<?xml version="1.0" encoding="UTF-8" standalone="no"?>
<svg
   xmlns:dc="http://purl.org/dc/elements/1.1/"
   xmlns:cc="http://creativecommons.org/ns#"
   xmlns:rdf="http://www.w3.org/1999/02/22-rdf-syntax-ns#"
   xmlns:svg="http://www.w3.org/2000/svg"
   xmlns="http://www.w3.org/2000/svg"
   xml:space="preserve"
   style="enable-background:new 0 0 182 56;"
   viewBox="0 0 182 56"
   y="0px"
   x="0px"
   id="Layer_1"
   version="1.1"><metadata
   id="metadata24"><rdf:RDF><cc:Work
       rdf:about=""><dc:format>image/svg+xml</dc:format><dc:type
         rdf:resource="http://purl.org/dc/dcmitype/StillImage" /><dc:title>[EN]-snap-store-white</dc:title></cc:Work></rdf:RDF></metadata><defs
   id="defs22" />
<style
   id="style2"
   type="text/css">
	.st0{fill-rule:evenodd;clip-rule:evenodd;fill:#FFFFFF;stroke:#CDCDCD;}
	.st1{fill:#82BEA0;}
	.st2{fill:#FA6441;}
	.st3{fill:#111111;}
	.st4{font-family:'Ubuntu';}
	.st5{font-size:12px;}
	.st6{font-size:24px;}
</style>
<title
   id="title4">[EN]-snap-store-white</title>
<desc
   id="desc6">Created with Sketch.</desc>
<g
   id="g17">
	<g
   id="White-badge">
		<path
   d="M2.5,0.5h177c1.1,0,2,0.9,2,2v51c0,1.1-0.9,2-2,2H2.5c-1.1,0-2-0.9-2-2v-51    C0.5,1.4,1.4,0.5,2.5,0.5z"
   class="st0"
   id="Rectangle-path" />
		<g
   transform="translate(138,11)"
   id="logo">
			<path
   d="M 19,17.8 V 7.3 l 7.2,3.2 z M 5.2,31.6 14.1,15 18,18.9 Z M 0.2,0.2 18.4,6.8 v 11.6 z"
   class="st1"
   id="body" />
			<polygon
   points="29.9,6.8 19.4,6.8 32.9,12.9 "
   class="st2"
   id="head" />
		</g>
		<g
   class="st3 st4 st5"
   style="font-size:12px;font-family:Ubuntu;fill:#111111"
   id="text12"
   aria-label="احصل عليه من "><path
     d="m 64.36,16.472 q 0,-0.432 0.084,-0.876 0.084,-0.456 0.24,-0.9 l 0.972,0.276 q -0.216,0.72 -0.216,1.428 0,1.032 0.516,1.584 0.528,0.564 1.584,0.564 0.912,0 1.404,-0.528 0.504,-0.516 0.504,-1.644 v -4.752 l 1.044,-0.192 v 4.476 q 0.108,0.036 0.408,0.096 0.312,0.06 0.636,0.06 h 0.3 V 17 h -0.3 q -0.48,0 -1.068,-0.132 -0.06,0.672 -0.3,1.164 -0.24,0.492 -0.624,0.816 -0.384,0.336 -0.9,0.492 -0.516,0.168 -1.128,0.168 -0.708,0 -1.296,-0.192 Q 65.644,19.124 65.224,18.74 64.816,18.356 64.588,17.78 64.36,17.216 64.36,16.472 Z m 2.52,-4.344 q 0,-0.3 0.192,-0.504 0.192,-0.204 0.504,-0.204 0.312,0 0.504,0.204 0.192,0.204 0.192,0.504 0,0.3 -0.192,0.504 -0.192,0.204 -0.504,0.204 -0.312,0 -0.504,-0.204 -0.192,-0.204 -0.192,-0.504 z m 6.992062,3.78 q 0.612,0.156 1.128,0.156 0.864001,0 1.272001,-0.468 0.408,-0.468 0.408,-1.332 0,-1.788 -1.464001,-1.788 -0.696,0 -1.02,0.384 -0.324,0.384 -0.324,1.14 z m -1.043999,-1.884 q 0,-1.284 0.647999,-1.896 0.66,-0.612 1.752,-0.612 0.564,0 1.032001,0.168 0.467999,0.168 0.792,0.516 0.336,0.336 0.515999,0.852 0.192001,0.504 0.192001,1.188 0,0.564 -0.168001,1.068 -0.167999,0.492 -0.515999,0.876 -0.336001,0.372 -0.864,0.6 Q 75.696062,17 74.988062,17 q -0.48,0 -0.875999,-0.072 -0.396,-0.084 -0.768,-0.216 -0.312001,0.132 -0.696001,0.216 Q 72.264062,17 71.784063,17 h -0.300001 v -0.936 h 0.300001 q 0.324,0 0.623999,-0.06 0.312,-0.06 0.420001,-0.096 z M 87.4465,17 q -0.528,0 -0.924,-0.108 -0.384,-0.108 -0.6,-0.384 -0.144,0.096 -0.312,0.216 -0.168,0.108 -0.384,0.204 -0.204,0.096 -0.468,0.156 -0.264,0.06 -0.588,0.06 -0.66,0 -1.152,-0.228 -0.48,-0.228 -0.792,-0.6 -0.312,-0.372 -0.468,-0.84 -0.156,-0.48 -0.156,-0.984 0,-0.552 0.144,-1.08 0.156,-0.54 0.492,-0.96 0.336,-0.42 0.876,-0.672 0.54,-0.264 1.308,-0.264 0.288,0 0.588,0.036 0.312,0.036 0.588,0.096 0.288,0.048 0.528,0.12 0.252,0.06 0.408,0.12 v 3.132 q 0,0.54 0.132,0.792 0.132,0.252 0.42,0.252 h 0.792 V 17 Z m -3.264,-0.816 q 0.504,0 0.84,-0.156 0.348,-0.168 0.54,-0.312 -0.072,-0.324 -0.072,-0.744 V 12.62 q -0.048,-0.012 -0.168,-0.036 -0.12,-0.036 -0.288,-0.048 -0.156,-0.024 -0.348,-0.036 -0.192,-0.024 -0.372,-0.024 -0.432,0 -0.744,0.168 -0.312,0.168 -0.516,0.456 -0.192,0.276 -0.288,0.636 -0.084,0.36 -0.084,0.756 0,0.336 0.084,0.648 0.084,0.3 0.264,0.54 0.192,0.228 0.468,0.372 0.288,0.132 0.684,0.132 z m 5.192813,0.528 Q 89.063312,16.844 88.679312,16.928 88.295312,17 87.815313,17 h -0.300001 v -0.936 h 0.300001 q 0.324,0 0.623999,-0.06 0.312,-0.06 0.420001,-0.096 v -4.284 l 1.043999,-0.192 v 4.476 q 0.108001,0.036 0.408,0.096 0.312,0.06 0.636,0.06 h 0.3 V 17 h -0.3 q -0.479999,0 -0.875999,-0.072 -0.384,-0.084 -0.696,-0.216 z m -0.168001,1.764 q 0,0.312 -0.192,0.492 -0.192,0.18 -0.467999,0.18 -0.276001,0 -0.468001,-0.18 -0.192,-0.18 -0.192,-0.492 0,-0.312 0.192,-0.492 0.192,-0.18 0.468001,-0.18 0.275999,0 0.467999,0.18 0.192,0.18 0.192,0.492 z m 1.656001,0 q 0,0.312 -0.192001,0.492 -0.191999,0.18 -0.468,0.18 -0.276,0 -0.467999,-0.18 -0.192001,-0.18 -0.192001,-0.492 0,-0.312 0.192001,-0.492 0.191999,-0.18 0.467999,-0.18 0.276001,0 0.468,0.18 0.192001,0.18 0.192001,0.492 z m 1.887,-1.764 Q 92.438312,16.844 92.054312,16.928 91.670312,17 91.190313,17 h -0.300001 v -0.936 h 0.300001 q 0.324,0 0.623999,-0.06 0.312,-0.06 0.420001,-0.096 V 7.88 l 1.043999,-0.192 v 8.22 q 0.108001,0.036 0.408,0.096 0.312,0.06 0.636,0.06 h 0.3 V 17 h -0.3 q -0.479999,0 -0.875999,-0.072 -0.384,-0.084 -0.696,-0.216 z M 94.265312,17 v -0.936 h 1.416001 V 14.12 q 0,-0.684 0.203999,-1.176 0.216001,-0.504 0.564001,-0.816 0.36,-0.312 0.839999,-0.456 0.48,-0.156 1.020001,-0.156 0.312,0 0.599999,0.048 0.3,0.036 0.492001,0.072 l -0.192001,0.912 q -0.131999,-0.024 -0.336,-0.048 -0.203999,-0.024 -0.456,-0.024 -0.803999,0 -1.247999,0.432 -0.444001,0.42 -0.444001,1.44 v 1.716 h 2.568 V 17 Z m 8.508748,-0.528 q 0,-0.432 0.084,-0.876 0.084,-0.456 0.24,-0.9 l 0.972,0.276 q -0.216,0.72 -0.216,1.428 0,1.032 0.516,1.584 0.528,0.564 1.584,0.564 0.912,0 1.404,-0.528 0.504,-0.516 0.504,-1.644 V 7.88 l 1.044,-0.192 v 8.22 q 0.108,0.036 0.408,0.096 0.312,0.06 0.636,0.06 h 0.3 V 17 h -0.3 q -0.48,0 -1.068,-0.132 -0.06,0.672 -0.3,1.164 -0.24,0.492 -0.624,0.816 -0.384,0.336 -0.9,0.492 -0.516,0.168 -1.128,0.168 -0.708,0 -1.296,-0.192 -0.576,-0.192 -0.996,-0.576 -0.408,-0.384 -0.636,-0.96 -0.228,-0.564 -0.228,-1.308 z m 14.38406,-1.956 q 0,-0.552 -0.132,-0.936 -0.11999,-0.384 -0.348,-0.624 -0.22799,-0.252 -0.52799,-0.36 -0.3,-0.12 -0.648,-0.12 -0.852,0 -1.668,0.456 -0.81601,0.456 -1.38,1.32 v 1.812 h 0.996 q 1.71599,0 2.652,-0.06 0.93599,-0.06 1.05599,-0.096 z m -7.26,2.484 v -0.936 h 1.512 v -4.44 l 1.04401,-0.192 v 1.5 q 0.648,-0.684 1.464,-1.044 0.828,-0.372 1.65599,-0.372 0.52801,0 0.99601,0.168 0.47999,0.168 0.83999,0.516 0.36001,0.348 0.57601,0.888 0.21599,0.54 0.21599,1.296 v 1.524 q 0.10801,0.036 0.408,0.096 0.312,0.06 0.63601,0.06 h 0.3 V 17 h -0.3 q -0.456,0 -0.864,-0.084 -0.396,-0.084 -0.708,-0.204 -0.096,0.036 -0.432,0.084 -0.336,0.048 -0.86401,0.096 -0.52799,0.048 -1.248,0.084 -0.708,0.024 -1.57199,0.024 z m 15.61726,-0.288 q -0.156,0.024 -0.516,0.072 -0.348,0.048 -0.96,0.096 -0.61201,0.048 -1.524,0.084 -0.9,0.036 -2.17201,0.036 h -1.164 v -0.936 h 1.27201 q 1.03199,0 1.76399,-0.012 0.732,-0.024 1.212,-0.048 0.48001,-0.036 0.72,-0.06 0.25201,-0.024 0.324,-0.036 v -1.44 q 0,-1.008 -0.47999,-1.5 -0.48,-0.492 -1.548,-0.492 -0.336,0 -0.684,0.036 -0.348,0.036 -0.64801,0.096 -0.28799,0.048 -0.51599,0.108 -0.22801,0.06 -0.336,0.096 L 120.06737,11.9 q 0.60001,-0.18 1.17601,-0.276 0.58799,-0.108 1.2,-0.108 0.66,0 1.21199,0.156 0.56401,0.144 0.97201,0.48 0.42,0.336 0.64799,0.888 0.24001,0.552 0.24001,1.344 z M 127.18656,17 V 7.88 l 1.044,-0.192 V 17 Z"
     style="font-style:normal;font-variant:normal;font-weight:normal;font-stretch:normal;font-family:'Ubuntu Arabic';-inkscape-font-specification:'Ubuntu Arabic'"
     id="path132" /></g>
		<g
   class="st3 st4 st6"
   style="font-size:24px;font-family:Ubuntu;fill:#111111"
   id="text14"
   aria-label="Snap Store"><path
     d="m 20.767578,23.984375 c -1.744,0 -3.111515,0.406656 -4.103516,1.222656 -0.991998,0.816 -1.488281,1.952203 -1.488281,3.408203 0,0.704 0.111938,1.304782 0.335938,1.800782 0.24,0.496 0.560937,0.928875 0.960937,1.296875 0.4,0.352 0.872016,0.663546 1.416016,0.935547 0.544,0.256 1.118562,0.487312 1.726562,0.695312 0.528,0.192 1.024282,0.384172 1.488282,0.576172 0.48,0.192 0.905437,0.423312 1.273437,0.695312 0.368,0.256 0.655281,0.5695 0.863281,0.9375 0.224,0.352 0.335938,0.782922 0.335938,1.294922 0,1.664 -1.216438,2.496094 -3.648438,2.496094 -1.088,0 -2.007765,-0.126813 -2.759765,-0.382812 -0.752,-0.256001 -1.311688,-0.489266 -1.679688,-0.697266 l -0.695312,1.919922 c 0.176,0.096 0.41475,0.217328 0.71875,0.361328 0.32,0.128 0.696906,0.254812 1.128906,0.382812 0.432,0.112 0.918891,0.209063 1.462891,0.289063 0.56,0.096 1.168218,0.142578 1.824218,0.142578 1.936,0 3.432282,-0.391781 4.488282,-1.175781 1.072,-0.784 1.607421,-1.903375 1.607422,-3.359375 -2e-6,-0.784 -0.119376,-1.448188 -0.359376,-1.992188 -0.239999,-0.56 -0.583248,-1.039453 -1.03125,-1.439453 -0.431999,-0.4 -0.952546,-0.745203 -1.560546,-1.033203 -0.592,-0.288 -1.24875,-0.575281 -1.96875,-0.863281 -0.512,-0.192 -0.984016,-0.384172 -1.416016,-0.576172 -0.416,-0.192 -0.783516,-0.399047 -1.103516,-0.623047 -0.32,-0.24 -0.56814,-0.512406 -0.74414,-0.816406 -0.176,-0.304 -0.263672,-0.680905 -0.263672,-1.128907 0,-0.399999 0.08023,-0.74325 0.240234,-1.03125 0.176,-0.303999 0.407313,-0.55214 0.695313,-0.74414 0.288,-0.192 0.623812,-0.335641 1.007812,-0.431641 C 19.903531,26.048531 20.319578,26 20.767578,26 c 0.88,0 1.648688,0.1045 2.304688,0.3125 0.672,0.192 1.175718,0.391609 1.511718,0.599609 l 0.744141,-1.896484 c -0.384,-0.256 -0.992219,-0.487313 -1.824219,-0.695313 -0.816,-0.224 -1.728328,-0.335937 -2.736328,-0.335937 z m 58.734375,0 c -1.744,0 -3.111517,0.406656 -4.103515,1.222656 -0.992001,0.816 -1.488282,1.952203 -1.488282,3.408203 0,0.704 0.111938,1.304782 0.335938,1.800782 0.24,0.496 0.560937,0.928875 0.960937,1.296875 0.4,0.352 0.872016,0.663545 1.416016,0.935547 0.544,0.256 1.118562,0.487312 1.726562,0.695312 0.528,0.192 1.024282,0.384172 1.488282,0.576172 0.48,0.192 0.905437,0.423312 1.273437,0.695312 0.368,0.256 0.655281,0.5695 0.863281,0.9375 0.224,0.352 0.335938,0.782922 0.335938,1.294922 0,1.664 -1.216438,2.496094 -3.648438,2.496094 -1.088,0 -2.007765,-0.126813 -2.759765,-0.382812 -0.752,-0.256001 -1.311688,-0.489266 -1.679688,-0.697266 l -0.695312,1.919922 c 0.176,0.096 0.41475,0.217328 0.71875,0.361328 0.32,0.128 0.696906,0.254812 1.128906,0.382812 0.432,0.112 0.918891,0.209063 1.462891,0.289063 0.56,0.096 1.168218,0.142578 1.824218,0.142578 1.936,0 3.432282,-0.391781 4.488282,-1.175781 1.072,-0.784 1.607421,-1.903375 1.607421,-3.359375 10e-7,-0.784 -0.119374,-1.448188 -0.359374,-1.992188 -0.240002,-0.56 -0.583252,-1.039453 -1.03125,-1.439453 -0.432001,-0.4 -0.952547,-0.745203 -1.560547,-1.033203 -0.592,-0.288 -1.24875,-0.575281 -1.96875,-0.863281 -0.512,-0.192 -0.984016,-0.384172 -1.416016,-0.576172 -0.416,-0.192 -0.783516,-0.399047 -1.103516,-0.623047 -0.32,-0.24 -0.56814,-0.512406 -0.74414,-0.816406 -0.176,-0.304 -0.263672,-0.680905 -0.263672,-1.128907 0,-0.399999 0.08023,-0.74325 0.240234,-1.03125 0.176,-0.303999 0.407313,-0.55214 0.695313,-0.74414 0.288,-0.192 0.623812,-0.335641 1.007812,-0.431641 C 78.637906,26.048531 79.053953,26 79.501953,26 c 0.88,0 1.648688,0.1045 2.304688,0.3125 0.672,0.192 1.175718,0.391609 1.511718,0.599609 L 84.0625,25.015625 c -0.384,-0.256 -0.992219,-0.487312 -1.824219,-0.695313 -0.816,-0.224 -1.728328,-0.335937 -2.736328,-0.335937 z m 9.990235,0.671875 -2.232422,0.382812 v 11.136719 c 0,0.832 0.06536,1.568985 0.193359,2.208985 0.144,0.624 0.38275,1.151984 0.71875,1.583984 0.336,0.432 0.776312,0.758422 1.320313,0.982422 0.56,0.208 1.263328,0.3125 2.111328,0.3125 0.72,0 1.359921,-0.08767 1.919922,-0.263672 0.559999,-0.16 0.953734,-0.296203 1.177734,-0.408203 l -0.433594,-1.847656 c -0.16,0.064 -0.447281,0.175937 -0.863281,0.335937 -0.4,0.144 -0.935422,0.216797 -1.607422,0.216797 -0.384,0 -0.719811,-0.04853 -1.007813,-0.144531 -0.287998,-0.096 -0.528703,-0.256469 -0.720703,-0.480469 -0.192,-0.24 -0.33564,-0.558984 -0.43164,-0.958984 -0.096,-0.416 -0.144531,-0.936547 -0.144531,-1.560547 v -5.759766 h 4.728515 v -1.873047 h -4.728515 z m -43.009766,3.550781 c -0.784,0 -1.511594,0.06536 -2.183594,0.19336 -0.672,0.112 -1.151453,0.231375 -1.439453,0.359375 l 0.263672,1.847656 c 0.272,-0.112 0.680609,-0.214547 1.224609,-0.310547 0.56,-0.112 1.20736,-0.167969 1.94336,-0.167969 0.576,0 1.040578,0.08767 1.392578,0.263672 0.368,0.16 0.655281,0.383875 0.863281,0.671875 0.208,0.272 0.351641,0.590984 0.431641,0.958985 0.08,0.351998 0.121093,0.712078 0.121093,1.080078 v 0.625 c -0.064,-0.016 -0.175937,-0.04027 -0.335937,-0.07227 -0.16,-0.032 -0.352172,-0.0637 -0.576172,-0.0957 -0.208,-0.048 -0.431875,-0.0797 -0.671875,-0.0957 -0.24,-0.032 -0.473266,-0.04883 -0.697266,-0.04883 -0.704,0 -1.375625,0.0728 -2.015625,0.216796 -0.64,0.144 -1.199687,0.367875 -1.679687,0.671876 -0.48,0.304 -0.864344,0.703218 -1.152344,1.199218 -0.272,0.496 -0.408203,1.087391 -0.408203,1.775391 0,0.72 0.121328,1.337609 0.361328,1.849609 0.24,0.512 0.575813,0.928047 1.007813,1.248047 0.432,0.304 0.943156,0.527875 1.535156,0.671875 0.592,0.144 1.241312,0.214844 1.945312,0.214844 0.496,0 0.990329,-0.02427 1.486329,-0.07227 0.512,-0.032 0.984015,-0.07114 1.416015,-0.11914 0.432,-0.048 0.816344,-0.09653 1.152344,-0.144532 0.352,-0.064 0.624406,-0.112531 0.816406,-0.144531 v -7.798828 c 0,-0.704 -0.08023,-1.343922 -0.240234,-1.919922 -0.16,-0.592 -0.432405,-1.095719 -0.816407,-1.511719 -0.368,-0.432 -0.864281,-0.760375 -1.488281,-0.984375 -0.608,-0.24 -1.359859,-0.361328 -2.255859,-0.361328 z m 55.410158,0 c -0.848,0 -1.63156,0.160469 -2.351564,0.480469 -0.72,0.304 -1.345047,0.744312 -1.873047,1.320312 -0.512,0.576001 -0.911219,1.271891 -1.199219,2.087891 -0.288,0.8 -0.431641,1.688063 -0.431641,2.664063 0,0.992 0.143641,1.8875 0.431641,2.6875 0.288,0.8 0.687219,1.488453 1.199219,2.064453 0.528,0.576 1.153047,1.02375 1.873047,1.34375 0.720004,0.304 1.503564,0.457031 2.351564,0.457031 0.848,0 1.63156,-0.153031 2.35156,-0.457031 0.72,-0.32 1.33566,-0.76775 1.84766,-1.34375 0.528,-0.576 0.93661,-1.264453 1.22461,-2.064453 0.288,-0.8 0.43164,-1.6955 0.43164,-2.6875 0,-0.976 -0.14364,-1.864063 -0.43164,-2.664063 -0.288,-0.816 -0.69661,-1.51189 -1.22461,-2.087891 -0.512,-0.575998 -1.12766,-1.016312 -1.84766,-1.320312 -0.72,-0.32 -1.50356,-0.480469 -2.35156,-0.480469 z m 23.26953,0 c -0.72,0 -1.42333,0.136203 -2.11133,0.408203 -0.688,0.272 -1.29622,0.68061 -1.82422,1.22461 -0.528,0.544 -0.95343,1.232453 -1.27344,2.064453 -0.31999,0.816 -0.47851,1.774906 -0.47851,2.878906 0,0.944 0.11937,1.817188 0.35937,2.617188 0.256,0.784 0.64035,1.463062 1.15235,2.039062 0.512,0.576 1.15936,1.033141 1.94336,1.369141 0.8,0.32 1.74403,0.478515 2.83203,0.478515 0.864,0 1.63269,-0.07828 2.30469,-0.238281 0.688,-0.16 1.16745,-0.313031 1.43945,-0.457031 l -0.3125,-1.871094 c -0.272,0.128 -0.67866,0.264203 -1.22266,0.408203 -0.528,0.128 -1.18475,0.191406 -1.96875,0.191406 -1.392,0 -2.41626,-0.335812 -3.07226,-1.007812 -0.656,-0.672 -1.03096,-1.657125 -1.12696,-2.953125 h 8.54297 c 0.016,-0.128 0.0234,-0.264203 0.0234,-0.408203 v -0.382813 c 0,-2.144 -0.44775,-3.73539 -1.34375,-4.77539 -0.896,-1.056 -2.18328,-1.585938 -3.86328,-1.585938 z m -91.523438,0.04883 c -1.104,0 -2.079735,0.0728 -2.927734,0.216797 -0.848,0.144 -1.529016,0.280203 -2.041016,0.408203 V 41 h 2.232422 V 30.464844 c 0.08,-0.016 0.206812,-0.04027 0.382812,-0.07227 0.192,-0.032 0.401,-0.05626 0.625,-0.07227 0.24,-0.032 0.488141,-0.05626 0.744141,-0.07227 0.256,-0.016 0.50414,-0.02344 0.744141,-0.02344 0.591999,0 1.088281,0.08023 1.488281,0.240235 0.4,0.144 0.718984,0.38275 0.958984,0.71875 0.24,0.336 0.407906,0.776312 0.503906,1.320312 0.112,0.544 0.167969,1.20075 0.167969,1.96875 V 41 H 38.75 v -7.007812 c 0,-0.848 -0.08023,-1.624124 -0.240234,-2.328126 -0.16,-0.704 -0.439844,-1.304781 -0.839844,-1.800781 -0.384,-0.512 -0.904547,-0.903781 -1.560547,-1.175781 -0.656,-0.288 -1.478703,-0.431641 -2.470703,-0.431641 z m 26.05664,0 c -1.039999,0 -1.959765,0.08023 -2.759765,0.240235 -0.784,0.144 -1.44075,0.280203 -1.96875,0.408203 v 16.535156 h 2.232422 v -4.992187 c 0.272,0.176 0.680609,0.360734 1.224609,0.552734 0.56,0.192 1.199922,0.287109 1.919922,0.287109 0.896,0 1.687,-0.158515 2.375,-0.478515 0.704,-0.32 1.295391,-0.76775 1.775391,-1.34375 0.48,-0.576 0.840078,-1.264453 1.080078,-2.064453 0.256,-0.8 0.384765,-1.673188 0.384765,-2.617188 0,-1.008 -0.153031,-1.910937 -0.457031,-2.710937 -0.288,-0.816 -0.704047,-1.504454 -1.248047,-2.064454 -0.544,-0.559999 -1.198797,-0.990921 -1.966797,-1.294921 -0.768,-0.304 -1.631797,-0.457032 -2.591797,-0.457032 z m 55.800778,0 c -0.976,0 -1.85467,0.08767 -2.63867,0.263672 -0.784,0.16 -1.44075,0.337297 -1.96875,0.529297 V 41 h 2.23242 V 30.511719 c 0.128,-0.032 0.39102,-0.08797 0.79102,-0.167969 0.416,-0.096 0.83205,-0.144531 1.24805,-0.144531 0.64,0 1.16054,0.04853 1.56054,0.144531 0.416,0.08 0.71266,0.152797 0.88868,0.216797 l 0.38281,-1.945313 c -0.096,-0.032 -0.24708,-0.0637 -0.45508,-0.0957 -0.192,-0.048 -0.40844,-0.08714 -0.64844,-0.11914 -0.24,-0.048 -0.48814,-0.0797 -0.74414,-0.0957 -0.24,-0.032 -0.45644,-0.04883 -0.64844,-0.04883 z m 9.64258,1.847657 c 0.912,0 1.62277,0.328375 2.13477,0.984375 0.528,0.64 0.78553,1.464656 0.76953,2.472656 h -6.19336 c 0.048,-0.432 0.14506,-0.857438 0.28906,-1.273438 0.16,-0.416 0.37449,-0.783515 0.64649,-1.103515 0.272,-0.32 0.60037,-0.575578 0.98437,-0.767578 0.4,-0.208 0.85714,-0.3125 1.36914,-0.3125 z m -23.24609,0.07227 c 1.088,0 1.94436,0.416047 2.56836,1.248047 0.64,0.816 0.95898,1.927938 0.95898,3.335938 0,1.408 -0.31898,2.527375 -0.95898,3.359375 -0.624,0.816 -1.48036,1.224609 -2.56836,1.224609 -1.088,0 -1.951799,-0.408609 -2.591799,-1.224609 -0.624,-0.832 -0.935547,-1.951375 -0.935547,-3.359375 0,-1.408 0.311547,-2.519938 0.935547,-3.335938 0.64,-0.832 1.503799,-1.248047 2.591799,-1.248047 z m -42.222658,0.07227 c 1.2,0 2.160859,0.391781 2.880859,1.175781 0.72,0.784 1.080078,1.903375 1.080078,3.359375 0,0.64 -0.06341,1.240781 -0.191406,1.800781 -0.128,0.544 -0.337,1.023453 -0.625,1.439454 -0.288,0.399999 -0.662953,0.720937 -1.126953,0.960937 -0.448,0.224 -0.992813,0.335937 -1.632812,0.335937 -0.608002,0 -1.167688,-0.1045 -1.679688,-0.3125 -0.512,-0.207999 -0.903781,-0.424437 -1.175781,-0.648437 v -7.871094 c 0.224,-0.064 0.518718,-0.119969 0.886719,-0.167969 0.384,-0.048 0.911984,-0.07227 1.583984,-0.07227 z m -12.658203,4.96875 c 0.512,0 0.942922,0.0317 1.294922,0.0957 0.368,0.048 0.632968,0.111406 0.792968,0.191406 v 3.720703 c -0.272,0.064 -0.617203,0.110577 -1.033203,0.142579 -0.4,0.016 -0.862625,0.02539 -1.390625,0.02539 -0.88,0 -1.57589,-0.153031 -2.08789,-0.457031 -0.512,-0.32 -0.769532,-0.879688 -0.769532,-1.679688 0,-0.432 0.1045,-0.77525 0.3125,-1.03125 0.208,-0.272 0.463577,-0.481 0.767579,-0.625 0.32,-0.16 0.665203,-0.2645 1.033203,-0.3125 0.384,-0.048 0.744078,-0.07031 1.080078,-0.07031 z"
     style="font-size:24px;font-family:Ubuntu;fill:#111111"
     id="path152" /></g>
	</g>
</g>
</svg>
