<?xml version="1.0" encoding="UTF-8" standalone="no"?>
<svg
   xmlns:dc="http://purl.org/dc/elements/1.1/"
   xmlns:cc="http://creativecommons.org/ns#"
   xmlns:rdf="http://www.w3.org/1999/02/22-rdf-syntax-ns#"
   xmlns:svg="http://www.w3.org/2000/svg"
   xmlns="http://www.w3.org/2000/svg"
   version="1.1"
   id="Layer_1"
   x="0px"
   y="0px"
   viewBox="0 0 182 56"
   style="enable-background:new 0 0 182 56;"
   xml:space="preserve"><metadata
   id="metadata108"><rdf:RDF><cc:Work
       rdf:about=""><dc:format>image/svg+xml</dc:format><dc:type
         rdf:resource="http://purl.org/dc/dcmitype/StillImage" /><dc:title>[EN]-snap-store-black</dc:title></cc:Work></rdf:RDF></metadata><defs
   id="defs106" />
<style
   type="text/css"
   id="style86">
	.st0{fill-rule:evenodd;clip-rule:evenodd;fill:#252525;stroke:#CDCDCD;}
	.st1{fill:#82BEA0;}
	.st2{fill:#FA6441;}
	.st3{fill:#FFFFFF;}
	.st4{font-family:'Ubuntu';}
	.st5{font-size:12px;}
	.st6{font-size:24px;}
</style>
<title
   id="title88">[EN]-snap-store-black</title>
<desc
   id="desc90">Created with Sketch.</desc>
<g
   id="g101">
	<g
   id="Black-badge">
		<path
   id="Rectangle-path"
   class="st0"
   d="M2,0h178c1.1,0,2,0.9,2,2v52c0,1.1-0.9,2-2,2H2c-1.1,0-2-0.9-2-2V2C0,0.9,0.9,0,2,0z" />
		<g
   id="logo"
   transform="translate(137.53656,11)">
			<path
   id="body"
   class="st1"
   d="M 19.46344,17.8 V 7.3 l 7.2,3.2 z m -13.8,13.8 8.9,-16.6 3.9,3.9 z m -5,-31.4 18.2,6.6 v 11.6 z" />
			<polygon
   id="head"
   class="st2"
   points="19.4,6.8 32.9,12.9 29.9,6.8 "
   transform="translate(0.46344)" />
		</g>
		<g
   class="st3 st4 st5"
   style="font-size:12px;font-family:Ubuntu;fill:#ffffff"
   id="text96"
   aria-label="احصل عليه من"><path
     d="m 93.277344,7.6875 -1.042969,0.1933594 v 8.0273436 c -0.072,0.024 -0.211922,0.0557 -0.419922,0.0957 -0.199999,0.04 -0.409,0.06055 -0.625,0.06055 h -0.242187 c -0.216,0 -0.428719,-0.02055 -0.636719,-0.06055 -0.199999,-0.04 -0.336203,-0.0717 -0.408203,-0.0957 v -4.476562 l -1.042969,0.191406 v 4.285156 c -0.072,0.024 -0.211922,0.0557 -0.419922,0.0957 -0.199999,0.04 -0.409,0.06055 -0.625,0.06055 h -0.298828 -0.429687 c -0.192001,0 -0.331922,-0.08395 -0.419922,-0.251953 -0.088,-0.168 -0.13086,-0.432969 -0.13086,-0.792969 v -3.130859 c -0.104,-0.04 -0.240203,-0.08109 -0.408203,-0.121094 -0.16,-0.048 -0.337297,-0.08714 -0.529297,-0.11914 -0.184,-0.04 -0.37989,-0.0717 -0.58789,-0.0957 -0.2,-0.024 -0.395891,-0.03711 -0.587891,-0.03711 -0.512,0 -0.946641,0.08767 -1.306641,0.263672 -0.36,0.168 -0.652953,0.391875 -0.876953,0.671875 -0.224,0.28 -0.388187,0.600937 -0.492187,0.960937 -0.096,0.352 -0.144532,0.712078 -0.144532,1.080079 0,0.335999 0.05225,0.664375 0.15625,0.984374 0.104001,0.312001 0.260751,0.591844 0.46875,0.839844 0.208,0.248 0.471016,0.44761 0.791016,0.59961 0.328,0.152 0.712344,0.228515 1.152344,0.228515 0.216,0 0.41189,-0.02055 0.58789,-0.06055 0.176001,-0.04 0.332751,-0.09225 0.46875,-0.15625 0.144001,-0.064 0.272766,-0.131125 0.384766,-0.203125 0.112,-0.08 0.214547,-0.152796 0.310547,-0.216797 0.144,0.184 0.345562,0.312766 0.601563,0.384766 C 86.787437,16.964578 87.095266,17 87.447266,17 h 0.06836 0.298828 0.06445 v -0.0059 c 0.291733,-0.0033 0.563863,-0.02198 0.800782,-0.06641 0.256,-0.056 0.487311,-0.126843 0.695312,-0.214843 0.208,0.088 0.441266,0.158843 0.697266,0.214843 0.246929,0.0449 0.522438,0.06546 0.818359,0.06836 V 17 h 0.05664 0.242187 0.05859 v -0.0059 c 0.294254,-0.003 0.568001,-0.02166 0.806641,-0.06641 0.256,-0.056 0.487311,-0.126843 0.695312,-0.214843 0.208,0.088 0.441266,0.158843 0.697266,0.214843 0.246929,0.0449 0.522438,0.06546 0.818359,0.06836 V 17 h 0.05664 0.300781 4.669922 v -0.935547 h -2.56836 v -1.716797 c 0,-0.68 0.149312,-1.159453 0.445313,-1.439453 0.296,-0.288 0.712047,-0.431641 1.248047,-0.431641 0.168,0 0.319079,0.0074 0.455078,0.02344 0.136001,0.016 0.247938,0.03283 0.335937,0.04883 l 0.191407,-0.912109 c -0.128001,-0.024 -0.290235,-0.04827 -0.490235,-0.07227 -0.191999,-0.032 -0.393562,-0.04883 -0.601562,-0.04883 -0.360001,0 -0.699531,0.05225 -1.019532,0.15625 -0.319999,0.096 -0.599843,0.249031 -0.839843,0.457031 -0.232,0.208 -0.420453,0.478453 -0.564453,0.814453 -0.136,0.328 -0.203125,0.719782 -0.203125,1.175782 v 1.945312 h -1.058594 -0.300781 c -0.216,0 -0.428719,-0.02055 -0.636719,-0.06055 -0.199999,-0.04 -0.336203,-0.0717 -0.408203,-0.0957 z m 15.628906,0 -1.04492,0.1933594 v 8.4960936 c 0,0.752 -0.16791,1.298578 -0.50391,1.642578 -0.328,0.352 -0.7963,0.529297 -1.4043,0.529297 -0.70399,0 -1.23198,-0.188453 -1.58398,-0.564453 -0.344,-0.368 -0.51562,-0.895984 -0.51562,-1.583984 0,-0.472 0.0728,-0.947735 0.21679,-1.427735 l -0.97265,-0.277344 c -0.104,0.296001 -0.18424,0.596391 -0.24024,0.900391 -0.056,0.296 -0.084,0.588953 -0.084,0.876953 0,0.496 0.0765,0.930641 0.22851,1.306641 0.152,0.384 0.36472,0.704937 0.63672,0.960937 0.28,0.256 0.6121,0.448172 0.9961,0.576172 0.392,0.128 0.82292,0.191406 1.29492,0.191406 0.408,0 0.7849,-0.05597 1.1289,-0.167968 0.344,-0.104 0.64439,-0.268188 0.90039,-0.492188 0.256,-0.216 0.46305,-0.488406 0.62305,-0.816406 0.16,-0.328 0.26078,-0.716062 0.30078,-1.164062 0.37336,0.08381 0.70759,0.122966 1.01563,0.126953 V 17 h 0.0508 0.30078 3.30859 c 0.576,0 1.10027,-0.0074 1.57227,-0.02344 0.48001,-0.024 0.89605,-0.05198 1.24805,-0.08398 0.352,-0.032 0.63928,-0.0637 0.86328,-0.0957 0.224,-0.032 0.36764,-0.05998 0.43164,-0.08398 0.208,0.08 0.44498,0.147125 0.70898,0.203125 0.2511,0.0517 0.51851,0.07415 0.79688,0.07813 V 17 h 0.0664 0.30079 0.79687 c 0.84801,0 1.57187,-0.01116 2.17187,-0.03516 0.608,-0.024 1.11544,-0.05198 1.52344,-0.08398 0.408,-0.032 0.72894,-0.06566 0.96094,-0.09766 0.24,-0.032 0.41163,-0.05431 0.51562,-0.07031 v -2.328125 c 0,-0.528 -0.0802,-0.977703 -0.24023,-1.345704 -0.15199,-0.367999 -0.36844,-0.662718 -0.64844,-0.886718 -0.272,-0.224 -0.59469,-0.384469 -0.9707,-0.480469 -0.36799,-0.104 -0.77289,-0.15625 -1.21289,-0.15625 -0.40801,0 -0.80723,0.03542 -1.19922,0.107422 -0.384,0.064 -0.77773,0.157344 -1.17773,0.277344 l 0.19336,0.912109 c 0.072,-0.024 0.18393,-0.0557 0.33593,-0.0957 0.152,-0.04 0.32363,-0.07737 0.51563,-0.109375 0.2,-0.04 0.41644,-0.0717 0.64844,-0.0957 0.232,-0.024 0.45959,-0.03516 0.68359,-0.03516 0.712,0 1.22883,0.164188 1.54883,0.492188 0.31999,0.328 0.47851,0.828 0.47851,1.5 v 1.439453 c -0.048,0.008 -0.15621,0.01916 -0.32422,0.03516 -0.15999,0.016 -0.39874,0.03655 -0.71875,0.06055 -0.32,0.016 -0.72489,0.03283 -1.21289,0.04883 -0.488,0.008 -1.07567,0.01172 -1.76367,0.01172 h -0.90429 -0.30079 c -0.216,0 -0.42872,-0.02055 -0.63671,-0.06055 -0.2,-0.04 -0.3362,-0.0717 -0.40821,-0.0957 v -1.523437 c 0,-0.504 -0.0709,-0.936875 -0.21484,-1.296875 -0.144,-0.36 -0.33617,-0.656672 -0.57617,-0.888672 -0.24,-0.232 -0.51985,-0.403625 -0.83985,-0.515625 -0.312,-0.112 -0.64408,-0.167969 -0.99609,-0.167969 -0.55199,0 -1.10425,0.125047 -1.65625,0.373047 -0.544,0.24 -1.03089,0.586969 -1.46289,1.042969 v -1.5 l -1.04492,0.191406 v 4.441406 H 110.25 109.94922 c -0.216,0 -0.42677,-0.02055 -0.63477,-0.06055 -0.2,-0.04 -0.3362,-0.0717 -0.4082,-0.0957 z m 19.32422,0 -1.04297,0.1933594 V 17 h 1.04297 z m -60.654298,3.732422 c -0.208,0 -0.375906,0.06713 -0.503906,0.203125 -0.128,0.136 -0.191407,0.305859 -0.191407,0.505859 0,0.2 0.06341,0.367907 0.191407,0.503906 0.128,0.136001 0.295906,0.203126 0.503906,0.203126 0.208,0 0.375906,-0.06713 0.503906,-0.203126 0.128,-0.136 0.191406,-0.303906 0.191406,-0.503906 0,-0.2 -0.06341,-0.369859 -0.191406,-0.505859 -0.128,-0.136 -0.295906,-0.203125 -0.503906,-0.203125 z m 2.916016,0.01172 -1.044922,0.191406 v 4.753906 c 0,0.752 -0.167907,1.298578 -0.503907,1.642578 -0.328,0.352 -0.796296,0.529297 -1.404297,0.529297 -0.704,0 -1.231984,-0.188453 -1.583984,-0.564453 -0.344,-0.368 -0.515625,-0.895984 -0.515625,-1.583984 0,-0.472 0.0728,-0.947735 0.216797,-1.427735 l -0.972656,-0.277344 c -0.104,0.296001 -0.184235,0.596391 -0.240235,0.900391 -0.056,0.296 -0.08398,0.588953 -0.08398,0.876953 0,0.496 0.07652,0.930641 0.228516,1.306641 0.152,0.384 0.364718,0.704937 0.636718,0.960937 0.28,0.256 0.612094,0.448172 0.996094,0.576172 0.392,0.128 0.822922,0.191406 1.294922,0.191406 0.408,0 0.784906,-0.05597 1.128906,-0.167968 0.344,-0.104 0.644391,-0.268188 0.900391,-0.492188 0.256,-0.216 0.463047,-0.488406 0.623047,-0.816406 0.16,-0.328 0.260781,-0.716062 0.300781,-1.164062 0.373354,0.08381 0.707584,0.122966 1.015625,0.126953 V 17 h 0.05078 0.248047 0.05273 v -0.0039 c 0.296851,-0.0027 0.57209,-0.02328 0.8125,-0.06836 0.256,-0.056 0.487311,-0.126843 0.695312,-0.214843 0.248,0.088 0.503578,0.158843 0.767578,0.214843 0.263999,0.048 0.556953,0.07227 0.876953,0.07227 0.472,0 0.880609,-0.0728 1.22461,-0.216797 0.351999,-0.152 0.63928,-0.351609 0.863281,-0.599609 0.232,-0.256 0.403626,-0.547 0.515625,-0.875 0.112001,-0.336 0.167969,-0.69236 0.167969,-1.06836 0,-0.456 -0.06341,-0.8515 -0.191407,-1.1875 -0.119999,-0.344 -0.291625,-0.629515 -0.515625,-0.853515 -0.216,-0.232 -0.480969,-0.403625 -0.792968,-0.515625 -0.312001,-0.112 -0.65525,-0.167969 -1.03125,-0.167969 -0.728,0 -1.311954,0.205281 -1.751954,0.613281 -0.431999,0.408 -0.648437,1.038532 -0.648437,1.894532 v 1.884765 c -0.072,0.024 -0.211922,0.0557 -0.419922,0.0957 -0.199999,0.04 -0.409,0.06055 -0.625,0.06055 h -0.248047 c -0.216,0 -0.426765,-0.02055 -0.634765,-0.06055 -0.2,-0.04 -0.336203,-0.0717 -0.408203,-0.0957 z m 4.724609,1.044921 c 0.976001,0 1.462891,0.59511 1.462891,1.78711 0,0.576 -0.136204,1.020031 -0.408204,1.332031 -0.272,0.312 -0.695483,0.46875 -1.271484,0.46875 -0.344,0 -0.720906,-0.05225 -1.128906,-0.15625 V 14 c 0,-0.504 0.108219,-0.884625 0.324218,-1.140625 0.216,-0.256 0.557485,-0.382813 1.021485,-0.382813 z m 9.097656,0 c 0.12,0 0.243094,0.0074 0.371094,0.02344 0.128,0.008 0.245609,0.01916 0.349609,0.03516 0.112,0.008 0.20711,0.02483 0.28711,0.04883 0.08,0.016 0.135968,0.02716 0.167968,0.03516 v 2.353515 c 0,0.28 0.02427,0.528141 0.07227,0.744141 -0.128,0.096 -0.307063,0.198547 -0.539062,0.310547 -0.224001,0.104 -0.505797,0.15625 -0.841797,0.15625 -0.264,0 -0.491594,-0.04286 -0.683594,-0.13086 -0.184,-0.096 -0.338797,-0.221047 -0.466797,-0.373046 -0.12,-0.160001 -0.209625,-0.339063 -0.265625,-0.539063 -0.056,-0.208 -0.08398,-0.424437 -0.08398,-0.648437 0,-0.264 0.02798,-0.51586 0.08398,-0.75586 0.064,-0.24 0.161062,-0.452719 0.289063,-0.636719 0.136,-0.192 0.307625,-0.343078 0.515624,-0.455078 0.208,-0.112 0.456141,-0.167969 0.744141,-0.167969 z m 31.187497,0 c 0.232,0 0.44844,0.03914 0.64844,0.119141 0.2,0.072 0.37535,0.191375 0.52734,0.359375 0.15201,0.16 0.26767,0.369 0.34766,0.625 0.088,0.256 0.13281,0.567547 0.13281,0.935547 v 1.392578 c -0.08,0.024 -0.43264,0.0557 -1.05664,0.0957 -0.624,0.04 -1.50835,0.06055 -2.65234,0.06055 h -0.99414 v -1.8125 c 0.37599,-0.576 0.8349,-1.016312 1.3789,-1.320312 0.544,-0.304 1.09997,-0.455078 1.66797,-0.455079 z m -26.955075,5.328126 c -0.184001,0 -0.338797,0.05969 -0.466797,0.179687 -0.128,0.12 -0.193359,0.284187 -0.193359,0.492187 0,0.208001 0.06536,0.372188 0.193359,0.492188 0.128,0.12 0.282796,0.179688 0.466797,0.179688 0.183999,-1e-6 0.34075,-0.05969 0.46875,-0.179688 0.128,-0.12 0.191406,-0.284187 0.191406,-0.492188 0,-0.208 -0.06341,-0.372187 -0.191406,-0.492187 -0.128,-0.12 -0.284751,-0.179687 -0.46875,-0.179687 z m 1.65625,0 c -0.184,0 -0.340751,0.05969 -0.46875,0.179687 -0.128001,0.12 -0.191406,0.284187 -0.191406,0.492187 0,0.208001 0.06341,0.372188 0.191406,0.492188 0.127999,0.12 0.28475,0.179688 0.46875,0.179688 0.184001,-1e-6 0.340751,-0.05969 0.46875,-0.179688 0.128001,-0.12 0.191406,-0.284187 0.191406,-0.492188 0,-0.208 -0.06341,-0.372187 -0.191406,-0.492187 -0.127999,-0.12 -0.284749,-0.179687 -0.46875,-0.179687 z"
     style="font-style:normal;font-variant:normal;font-weight:normal;font-stretch:normal;font-family:'Ubuntu Arabic';-inkscape-font-specification:'Ubuntu Arabic'"
     id="path36" /></g>
		<g
   class="st3 st4 st6"
   style="font-size:24px;font-family:Ubuntu;fill:#ffffff"
   id="text98"
   aria-label="Snap Store"><path
     d="m 20.767578,23.984375 c -1.744,0 -3.111515,0.406656 -4.103516,1.222656 -0.991999,0.816 -1.488281,1.952203 -1.488281,3.408203 0,0.704 0.111938,1.304782 0.335938,1.800782 0.24,0.496 0.560937,0.928875 0.960937,1.296875 0.4,0.352 0.872016,0.663547 1.416016,0.935547 0.544,0.256 1.118562,0.487312 1.726562,0.695312 0.528,0.192 1.024282,0.384172 1.488282,0.576172 0.48,0.192 0.905437,0.423312 1.273437,0.695312 0.368,0.256 0.655281,0.5695 0.863281,0.9375 0.224,0.352 0.335938,0.782922 0.335938,1.294922 0,1.664 -1.216438,2.496094 -3.648438,2.496094 -1.088,0 -2.007765,-0.126813 -2.759765,-0.382812 -0.752,-0.256001 -1.311688,-0.489266 -1.679688,-0.697266 l -0.695312,1.919922 c 0.176,0.096 0.41475,0.217328 0.71875,0.361328 0.32,0.128 0.696906,0.254812 1.128906,0.382812 0.432,0.112 0.918891,0.209063 1.462891,0.289063 0.56,0.096 1.168218,0.142578 1.824218,0.142578 1.936,0 3.432282,-0.391781 4.488282,-1.175781 1.072,-0.784 1.607422,-1.903375 1.607422,-3.359375 -10e-7,-0.784 -0.119376,-1.448188 -0.359376,-1.992188 -0.24,-0.56 -0.583249,-1.039453 -1.03125,-1.439453 -0.431999,-0.4 -0.952546,-0.745203 -1.560546,-1.033203 -0.592,-0.288 -1.24875,-0.575281 -1.96875,-0.863281 -0.512,-0.192 -0.984016,-0.384172 -1.416016,-0.576172 -0.416,-0.192 -0.783516,-0.399047 -1.103516,-0.623047 -0.32,-0.24 -0.56814,-0.512406 -0.74414,-0.816406 -0.176,-0.304 -0.263672,-0.680906 -0.263672,-1.128907 0,-0.399999 0.08023,-0.74325 0.240234,-1.03125 0.176,-0.303999 0.407313,-0.55214 0.695313,-0.74414 0.288,-0.192 0.623812,-0.335641 1.007812,-0.431641 C 19.903531,26.048531 20.319578,26 20.767578,26 c 0.88,0 1.648688,0.1045 2.304688,0.3125 0.672,0.192 1.175718,0.391609 1.511718,0.599609 l 0.744141,-1.896484 c -0.384,-0.256 -0.992219,-0.487313 -1.824219,-0.695313 -0.816,-0.224 -1.728328,-0.335937 -2.736328,-0.335937 z m 58.734375,0 c -1.744,0 -3.111516,0.406656 -4.103515,1.222656 -0.992,0.816 -1.488282,1.952203 -1.488282,3.408203 0,0.704 0.111938,1.304782 0.335938,1.800782 0.24,0.496 0.560937,0.928875 0.960937,1.296875 0.4,0.352 0.872016,0.663546 1.416016,0.935547 0.544,0.256 1.118562,0.487312 1.726562,0.695312 0.528,0.192 1.024282,0.384172 1.488282,0.576172 0.48,0.192 0.905437,0.423312 1.273437,0.695312 0.368,0.256 0.655281,0.5695 0.863281,0.9375 0.224,0.352 0.335938,0.782922 0.335938,1.294922 0,1.664 -1.216438,2.496094 -3.648438,2.496094 -1.088,0 -2.007765,-0.126813 -2.759765,-0.382812 -0.752,-0.256001 -1.311688,-0.489266 -1.679688,-0.697266 l -0.695312,1.919922 c 0.176,0.096 0.41475,0.217328 0.71875,0.361328 0.32,0.128 0.696906,0.254812 1.128906,0.382812 0.432,0.112 0.918891,0.209063 1.462891,0.289063 0.56,0.096 1.168218,0.142578 1.824218,0.142578 1.936,0 3.432282,-0.391781 4.488282,-1.175781 1.072,-0.784 1.607421,-1.903375 1.607421,-3.359375 10e-7,-0.784 -0.119374,-1.448188 -0.359374,-1.992188 -0.240001,-0.56 -0.583251,-1.039453 -1.03125,-1.439453 -0.432001,-0.4 -0.952547,-0.745203 -1.560547,-1.033203 -0.592,-0.288 -1.24875,-0.575281 -1.96875,-0.863281 -0.512,-0.192 -0.984016,-0.384172 -1.416016,-0.576172 -0.416,-0.192 -0.783516,-0.399047 -1.103516,-0.623047 -0.32,-0.24 -0.56814,-0.512406 -0.74414,-0.816406 -0.176,-0.304 -0.263672,-0.680906 -0.263672,-1.128907 0,-0.399999 0.08023,-0.74325 0.240234,-1.03125 0.176,-0.303999 0.407313,-0.55214 0.695313,-0.74414 0.288,-0.192 0.623812,-0.335641 1.007812,-0.431641 C 78.637906,26.048531 79.053953,26 79.501953,26 c 0.88,0 1.648688,0.1045 2.304688,0.3125 0.672,0.192 1.175718,0.391609 1.511718,0.599609 L 84.0625,25.015625 c -0.384,-0.256 -0.992219,-0.487312 -1.824219,-0.695313 -0.816,-0.224 -1.728328,-0.335937 -2.736328,-0.335937 z m 9.990235,0.671875 -2.232422,0.382812 v 11.136719 c 0,0.832 0.06536,1.568985 0.193359,2.208985 0.144,0.624 0.38275,1.151984 0.71875,1.583984 0.336,0.432 0.776313,0.758422 1.320313,0.982422 0.56,0.208 1.263328,0.3125 2.111328,0.3125 0.72,0 1.359922,-0.08767 1.919922,-0.263672 0.559999,-0.16 0.953734,-0.296203 1.177734,-0.408203 l -0.433594,-1.847656 c -0.16,0.064 -0.447281,0.175937 -0.863281,0.335937 -0.4,0.144 -0.935422,0.216797 -1.607422,0.216797 -0.384,0 -0.719812,-0.04853 -1.007813,-0.144531 -0.287999,-0.096 -0.528703,-0.256469 -0.720703,-0.480469 -0.192,-0.24 -0.33564,-0.558984 -0.43164,-0.958984 -0.096,-0.416 -0.144531,-0.936547 -0.144531,-1.560547 v -5.759766 h 4.728515 v -1.873047 h -4.728515 z m -43.009766,3.550781 c -0.784,0 -1.511594,0.06536 -2.183594,0.19336 -0.672,0.112 -1.151453,0.231375 -1.439453,0.359375 l 0.263672,1.847656 c 0.272,-0.112 0.680609,-0.214547 1.224609,-0.310547 0.56,-0.112 1.20736,-0.167969 1.94336,-0.167969 0.576,0 1.040578,0.08767 1.392578,0.263672 0.368,0.16 0.655281,0.383875 0.863281,0.671875 0.208,0.272 0.351641,0.590984 0.431641,0.958985 0.08,0.351999 0.121093,0.712078 0.121093,1.080078 v 0.625 c -0.064,-0.016 -0.175937,-0.04027 -0.335937,-0.07227 -0.16,-0.032 -0.352172,-0.0637 -0.576172,-0.0957 -0.208,-0.048 -0.431875,-0.0797 -0.671875,-0.0957 -0.24,-0.032 -0.473266,-0.04883 -0.697266,-0.04883 -0.704,0 -1.375625,0.0728 -2.015625,0.216796 -0.64,0.144 -1.199687,0.367875 -1.679687,0.671876 -0.48,0.304 -0.864344,0.703218 -1.152344,1.199218 -0.272,0.496 -0.408203,1.087391 -0.408203,1.775391 0,0.72 0.121328,1.337609 0.361328,1.849609 0.24,0.512 0.575813,0.928047 1.007813,1.248047 0.432,0.304 0.943156,0.527875 1.535156,0.671875 0.592,0.144 1.241312,0.214844 1.945312,0.214844 0.496,0 0.990329,-0.02427 1.486329,-0.07227 0.512,-0.032 0.984015,-0.07114 1.416015,-0.11914 0.432,-0.048 0.816344,-0.09653 1.152344,-0.144532 0.352,-0.064 0.624406,-0.112531 0.816406,-0.144531 v -7.798828 c 0,-0.704 -0.08023,-1.343922 -0.240234,-1.919922 -0.16,-0.592 -0.432406,-1.095719 -0.816407,-1.511719 -0.368,-0.432 -0.864281,-0.760375 -1.488281,-0.984375 -0.608,-0.24 -1.359859,-0.361328 -2.255859,-0.361328 z m 55.410158,0 c -0.848,0 -1.63156,0.160469 -2.351564,0.480469 -0.72,0.304 -1.345047,0.744312 -1.873047,1.320312 -0.512,0.576 -0.911219,1.271891 -1.199219,2.087891 -0.288,0.8 -0.431641,1.688063 -0.431641,2.664063 0,0.992 0.143641,1.8875 0.431641,2.6875 0.288,0.8 0.687219,1.488453 1.199219,2.064453 0.528,0.576 1.153047,1.02375 1.873047,1.34375 0.720004,0.304 1.503564,0.457031 2.351564,0.457031 0.848,0 1.63156,-0.153031 2.35156,-0.457031 0.72,-0.32 1.33566,-0.76775 1.84766,-1.34375 0.528,-0.576 0.93661,-1.264453 1.22461,-2.064453 0.288,-0.8 0.43164,-1.6955 0.43164,-2.6875 0,-0.976 -0.14364,-1.864063 -0.43164,-2.664063 -0.288,-0.816 -0.69661,-1.51189 -1.22461,-2.087891 -0.512,-0.575999 -1.12766,-1.016312 -1.84766,-1.320312 -0.72,-0.32 -1.50356,-0.480469 -2.35156,-0.480469 z m 23.26953,0 c -0.72,0 -1.42333,0.136203 -2.11133,0.408203 -0.688,0.272 -1.29622,0.68061 -1.82422,1.22461 -0.528,0.544 -0.95344,1.232453 -1.27344,2.064453 -0.31999,0.816 -0.47851,1.774906 -0.47851,2.878906 0,0.944 0.11937,1.817188 0.35937,2.617188 0.256,0.784 0.64035,1.463062 1.15235,2.039062 0.512,0.576 1.15936,1.033141 1.94336,1.369141 0.8,0.32 1.74403,0.478515 2.83203,0.478515 0.864,0 1.63269,-0.07828 2.30469,-0.238281 0.688,-0.16 1.16745,-0.313031 1.43945,-0.457031 l -0.3125,-1.871094 c -0.272,0.128 -0.67866,0.264203 -1.22266,0.408203 -0.528,0.128 -1.18475,0.191406 -1.96875,0.191406 -1.392,0 -2.41626,-0.335812 -3.07226,-1.007812 -0.656,-0.672 -1.03096,-1.657125 -1.12696,-2.953125 h 8.54297 c 0.016,-0.128 0.0234,-0.264203 0.0234,-0.408203 v -0.382813 c 0,-2.144 -0.44775,-3.73539 -1.34375,-4.77539 -0.896,-1.056 -2.18328,-1.585938 -3.86328,-1.585938 z m -91.523438,0.04883 c -1.104,0 -2.079735,0.0728 -2.927734,0.216797 -0.848,0.144 -1.529016,0.280203 -2.041016,0.408203 V 41 h 2.232422 V 30.464844 c 0.08,-0.016 0.206812,-0.04027 0.382812,-0.07227 0.192,-0.032 0.401,-0.05626 0.625,-0.07227 0.24,-0.032 0.488141,-0.05626 0.744141,-0.07227 0.256,-0.016 0.50414,-0.02344 0.744141,-0.02344 0.591999,0 1.088281,0.08023 1.488281,0.240235 0.4,0.144 0.718984,0.38275 0.958984,0.71875 0.24,0.336 0.407906,0.776312 0.503906,1.320312 0.112,0.544 0.167969,1.20075 0.167969,1.96875 V 41 H 38.75 v -7.007812 c 0,-0.848 -0.08023,-1.624125 -0.240234,-2.328126 -0.16,-0.704 -0.439844,-1.304781 -0.839844,-1.800781 -0.384,-0.512 -0.904547,-0.903781 -1.560547,-1.175781 -0.656,-0.288 -1.478703,-0.431641 -2.470703,-0.431641 z m 26.05664,0 c -1.039999,0 -1.959765,0.08023 -2.759765,0.240235 -0.784,0.144 -1.44075,0.280203 -1.96875,0.408203 v 16.535156 h 2.232422 v -4.992187 c 0.272,0.176 0.680609,0.360734 1.224609,0.552734 0.56,0.192 1.199922,0.287109 1.919922,0.287109 0.896,0 1.687,-0.158515 2.375,-0.478515 0.704,-0.32 1.295391,-0.76775 1.775391,-1.34375 0.48,-0.576 0.840078,-1.264453 1.080078,-2.064453 0.256,-0.8 0.384765,-1.673188 0.384765,-2.617188 0,-1.008 -0.153031,-1.910937 -0.457031,-2.710937 -0.288,-0.816 -0.704047,-1.504454 -1.248047,-2.064454 -0.544,-0.56 -1.198797,-0.990921 -1.966797,-1.294921 -0.768,-0.304 -1.631797,-0.457032 -2.591797,-0.457032 z m 55.800778,0 c -0.976,0 -1.85467,0.08767 -2.63867,0.263672 -0.784,0.16 -1.44075,0.337297 -1.96875,0.529297 V 41 h 2.23242 V 30.511719 c 0.128,-0.032 0.39102,-0.08797 0.79102,-0.167969 0.416,-0.096 0.83205,-0.144531 1.24805,-0.144531 0.64,0 1.16054,0.04853 1.56054,0.144531 0.416,0.08 0.71267,0.152797 0.88868,0.216797 l 0.38281,-1.945313 c -0.096,-0.032 -0.24708,-0.0637 -0.45508,-0.0957 -0.192,-0.048 -0.40844,-0.08714 -0.64844,-0.11914 -0.24,-0.048 -0.48814,-0.0797 -0.74414,-0.0957 -0.24,-0.032 -0.45644,-0.04883 -0.64844,-0.04883 z m 9.64258,1.847657 c 0.912,0 1.62277,0.328375 2.13477,0.984375 0.528,0.64 0.78553,1.464656 0.76953,2.472656 h -6.19336 c 0.048,-0.432 0.14506,-0.857438 0.28906,-1.273438 0.16,-0.416 0.37449,-0.783515 0.64649,-1.103515 0.272,-0.32 0.60037,-0.575578 0.98437,-0.767578 0.4,-0.208 0.85714,-0.3125 1.36914,-0.3125 z m -23.24609,0.07227 c 1.088,0 1.94436,0.416047 2.56836,1.248047 0.64,0.816 0.95898,1.927938 0.95898,3.335938 0,1.408 -0.31898,2.527375 -0.95898,3.359375 -0.624,0.816 -1.48036,1.224609 -2.56836,1.224609 -1.088,0 -1.951799,-0.408609 -2.591799,-1.224609 -0.624,-0.832 -0.935547,-1.951375 -0.935547,-3.359375 0,-1.408 0.311547,-2.519938 0.935547,-3.335938 0.64,-0.832 1.503799,-1.248047 2.591799,-1.248047 z m -42.222658,0.07227 c 1.2,0 2.160859,0.391781 2.880859,1.175781 0.72,0.784 1.080078,1.903375 1.080078,3.359375 0,0.64 -0.06341,1.240781 -0.191406,1.800781 -0.128,0.544 -0.337,1.023453 -0.625,1.439454 -0.288,0.399999 -0.662953,0.720937 -1.126953,0.960937 -0.448,0.224 -0.992813,0.335937 -1.632812,0.335937 -0.608001,0 -1.167688,-0.1045 -1.679688,-0.3125 -0.512,-0.207999 -0.903781,-0.424437 -1.175781,-0.648437 v -7.871094 c 0.224,-0.064 0.518718,-0.119969 0.886719,-0.167969 0.384,-0.048 0.911984,-0.07227 1.583984,-0.07227 z m -12.658203,4.96875 c 0.512,0 0.942922,0.0317 1.294922,0.0957 0.368,0.048 0.632968,0.111406 0.792968,0.191406 v 3.720703 c -0.272,0.064 -0.617203,0.110578 -1.033203,0.142579 -0.4,0.016 -0.862625,0.02539 -1.390625,0.02539 -0.88,0 -1.57589,-0.153031 -2.08789,-0.457031 -0.512,-0.32 -0.769532,-0.879688 -0.769532,-1.679688 0,-0.432 0.1045,-0.77525 0.3125,-1.03125 0.208,-0.272 0.463578,-0.481 0.767579,-0.625 0.32,-0.16 0.665203,-0.2645 1.033203,-0.3125 0.384,-0.048 0.744078,-0.07031 1.080078,-0.07031 z"
     style="font-size:24px;font-family:Ubuntu;fill:#ffffff"
     id="path59" /></g>
	</g>
</g>
</svg>
