<?xml version="1.0" encoding="UTF-8"?>
<svg width="182px" height="56px" viewBox="0 0 182 56" version="1.1" xmlns="http://www.w3.org/2000/svg" xmlns:xlink="http://www.w3.org/1999/xlink">
    <!-- Generator: Sketch 52.3 (67297) - http://www.bohemiancoding.com/sketch -->
    <title>[EN]-snap-store-black-uneditable</title>
    <desc>Created with Sketch.</desc>
    <defs>
        <polygon id="path-1" points="10.5520345 0.559428571 0.0608793103 0.559428571 13.5487759 6.58"></polygon>
    </defs>
    <g id="Other-languages" stroke="none" stroke-width="1" fill="none" fill-rule="evenodd">
        <g id="EN" transform="translate(-199.000000, -43.000000)">
            <g id="[EN]-snap-store-black-uneditable" transform="translate(200.000000, 44.000000)">
                <rect id="Rectangle-path" stroke="#CDCDCD" fill="#252525" x="0" y="0" width="180" height="54" rx="2"></rect>
                <g id="logo" transform="translate(8.000000, 11.000000)">
                    <g>
                        <polygon id="Fill-2265" fill="#82BEA0" fill-rule="nonzero" points="18.9875172 17.8017143 26.2054138 10.5525714 18.9875172 7.33085714"></polygon>
                        <polygon id="Fill-2266" fill="#82BEA0" fill-rule="nonzero" points="5.20774138 31.6411429 17.9423276 18.852 14.058569 14.9742857"></polygon>
                        <polygon id="Fill-2267" fill="#82BEA0" fill-rule="nonzero" points="0.160180862 0.233262857 18.3753103 18.4171429 18.3753103 6.84571429"></polygon>
                        <g id="Fill-2268" transform="translate(19.344828, 6.285714)" fill="#FA6441" fill-rule="nonzero">
                            <polygon id="path-2" points="10.5520345 0.559428571 0.0608793103 0.559428571 13.5487759 6.58"></polygon>
                        </g>
                        <g id="colour/snappy-accent-Clipped" transform="translate(19.344828, 6.285714)">
                            <mask id="mask-2" fill="white">
                                <use xlink:href="#path-1"></use>
                            </mask>
                            <g id="path-2"></g>
                            <g id="colour/snappy-accent" mask="url(#mask-2)">
                                <g transform="translate(-19.913793, -9.142857)" id="Rectangle-2">
                                    <g transform="translate(0.343092, 0.497771)">
                                        <rect id="Rectangle-path" fill="#FA6441" fill-rule="nonzero" x="0" y="0" width="101.275862" height="34.8571429"></rect>
                                    </g>
                                </g>
                            </g>
                        </g>
                    </g>
                </g>
                <path d="M57.108,13.908 L58.272,13.908 L58.272,17.796 C58.1759995,17.8280002 58.0380009,17.8639998 57.858,17.904 C57.6779991,17.9440002 57.4700012,17.9839998 57.234,18.024 C56.9979988,18.0640002 56.7400014,18.0979999 56.46,18.126 C56.1799986,18.1540001 55.8960014,18.168 55.608,18.168 C55.0239971,18.168 54.4920024,18.072001 54.012,17.88 C53.5319976,17.687999 53.1200017,17.4080018 52.776,17.04 C52.4319983,16.6719982 52.1660009,16.2200027 51.978,15.684 C51.7899991,15.1479973 51.696,14.5320035 51.696,13.836 C51.696,13.1399965 51.8019989,12.5220027 52.014,11.982 C52.2260011,11.4419973 52.5119982,10.9880018 52.872,10.62 C53.2320018,10.2519982 53.6539976,9.97200096 54.138,9.78 C54.6220024,9.58799904 55.1399972,9.492 55.692,9.492 C56.0680019,9.492 56.4019985,9.51599976 56.694,9.564 C56.9860015,9.61200024 57.235999,9.66799968 57.444,9.732 C57.652001,9.79600032 57.8219993,9.85999968 57.954,9.924 C58.0860007,9.98800032 58.1759998,10.0359998 58.224,10.068 L57.852,11.04 C57.6199988,10.8879992 57.3120019,10.7620005 56.928,10.662 C56.5439981,10.5619995 56.152002,10.512 55.752,10.512 C55.3279979,10.512 54.9420017,10.5879992 54.594,10.74 C54.2459983,10.8920008 53.9500012,11.1119986 53.706,11.4 C53.4619988,11.6880014 53.2720007,12.0379979 53.136,12.45 C52.9999993,12.8620021 52.932,13.3239974 52.932,13.836 C52.932,14.3320025 52.9899994,14.783998 53.106,15.192 C53.2220006,15.600002 53.3979988,15.9499985 53.634,16.242 C53.8700012,16.5340015 54.1619983,16.7599992 54.51,16.92 C54.8580017,17.0800008 55.2679976,17.16 55.74,17.16 C56.0760017,17.16 56.3619988,17.1420002 56.598,17.106 C56.8340012,17.0699998 57.0039995,17.0360002 57.108,17.004 L57.108,13.908 Z M59.676,14.892 C59.676,14.3399972 59.7559992,13.8580021 59.916,13.446 C60.0760008,13.0339979 60.2879987,12.6920014 60.552,12.42 C60.8160013,12.1479986 61.1199983,11.9440007 61.464,11.808 C61.8080017,11.6719993 62.1599982,11.604 62.52,11.604 C63.3600042,11.604 64.0039978,11.8659974 64.452,12.39 C64.9000022,12.9140026 65.124,13.7119946 65.124,14.784 L65.124,14.97 C65.124,15.0460004 65.12,15.1159997 65.112,15.18 L60.84,15.18 C60.8880002,15.8280032 61.0759984,16.3199983 61.404,16.656 C61.7320016,16.9920017 62.2439965,17.16 62.94,17.16 C63.332002,17.16 63.6619987,17.1260003 63.93,17.058 C64.1980013,16.9899997 64.3999993,16.9240003 64.536,16.86 L64.692,17.796 C64.5559993,17.8680004 64.3180017,17.9439996 63.978,18.024 C63.6379983,18.1040004 63.2520022,18.144 62.82,18.144 C62.2759973,18.144 61.806002,18.0620008 61.41,17.898 C61.013998,17.7339992 60.6880013,17.5080014 60.432,17.22 C60.1759987,16.9319986 59.9860006,16.590002 59.862,16.194 C59.7379994,15.797998 59.676,15.3640024 59.676,14.892 Z M63.96,14.28 C63.968,13.7759975 63.8420013,13.3620016 63.582,13.038 C63.3219987,12.7139984 62.9640023,12.552 62.508,12.552 C62.2519987,12.552 62.026001,12.6019995 61.83,12.702 C61.633999,12.8020005 61.4680007,12.9319992 61.332,13.092 C61.1959993,13.2520008 61.0900004,13.435999 61.014,13.644 C60.9379996,13.852001 60.8880001,14.0639989 60.864,14.28 L63.96,14.28 Z M67.776,11.76 L70.14,11.76 L70.14,12.696 L67.776,12.696 L67.776,15.576 C67.776,15.8880016 67.7999998,16.145999 67.848,16.35 C67.8960002,16.554001 67.9679995,16.7139994 68.064,16.83 C68.1600005,16.9460006 68.2799993,17.0279998 68.424,17.076 C68.5680007,17.1240002 68.735999,17.148 68.928,17.148 C69.2640017,17.148 69.533999,17.1100004 69.738,17.034 C69.942001,16.9579996 70.0839996,16.9040002 70.164,16.872 L70.38,17.796 C70.2679994,17.8520003 70.0720014,17.9219996 69.792,18.006 C69.5119986,18.0900004 69.1920018,18.132 68.832,18.132 C68.4079979,18.132 68.0580014,18.0780005 67.782,17.97 C67.5059986,17.8619995 67.2840008,17.7000011 67.116,17.484 C66.9479992,17.2679989 66.8300003,17.0020016 66.762,16.686 C66.6939997,16.3699984 66.66,16.0040021 66.66,15.588 L66.66,10.02 L67.776,9.828 L67.776,11.76 Z M75.444,18 L74.328,18 L74.328,11.76 L75.444,11.76 L75.444,18 Z M74.88,10.632 C74.679999,10.632 74.5100007,10.5660007 74.37,10.434 C74.2299993,10.3019993 74.16,10.1240011 74.16,9.9 C74.16,9.67599888 74.2299993,9.49800066 74.37,9.366 C74.5100007,9.23399934 74.679999,9.168 74.88,9.168 C75.080001,9.168 75.2499993,9.23399934 75.39,9.366 C75.5300007,9.49800066 75.6,9.67599888 75.6,9.9 C75.6,10.1240011 75.5300007,10.3019993 75.39,10.434 C75.2499993,10.5660007 75.080001,10.632 74.88,10.632 Z M78.408,11.76 L80.772,11.76 L80.772,12.696 L78.408,12.696 L78.408,15.576 C78.408,15.8880016 78.4319998,16.145999 78.48,16.35 C78.5280002,16.554001 78.5999995,16.7139994 78.696,16.83 C78.7920005,16.9460006 78.9119993,17.0279998 79.056,17.076 C79.2000007,17.1240002 79.367999,17.148 79.56,17.148 C79.8960017,17.148 80.165999,17.1100004 80.37,17.034 C80.574001,16.9579996 80.7159996,16.9040002 80.796,16.872 L81.012,17.796 C80.8999994,17.8520003 80.7040014,17.9219996 80.424,18.006 C80.1439986,18.0900004 79.8240018,18.132 79.464,18.132 C79.0399979,18.132 78.6900014,18.0780005 78.414,17.97 C78.1379986,17.8619995 77.9160008,17.7000011 77.748,17.484 C77.5799992,17.2679989 77.4620003,17.0020016 77.394,16.686 C77.3259997,16.3699984 77.292,16.0040021 77.292,15.588 L77.292,10.02 L78.408,9.828 L78.408,11.76 Z M87.396,8.688 C87.7240016,8.688 88.0059988,8.71199976 88.242,8.76 C88.4780012,8.80800024 88.6439995,8.8519998 88.74,8.892 L88.536,9.852 C88.4399995,9.80399976 88.3040009,9.75800022 88.128,9.714 C87.9519991,9.66999978 87.7360013,9.648 87.48,9.648 C86.9599974,9.648 86.596001,9.78999858 86.388,10.074 C86.179999,10.3580014 86.076,10.7399976 86.076,11.22 L86.076,11.76 L88.476,11.76 L88.476,12.696 L86.076,12.696 L86.076,18 L84.96,18 L84.96,11.196 C84.96,10.395996 85.155998,9.77800218 85.548,9.342 C85.940002,8.90599782 86.5559958,8.688 87.396,8.688 Z M91.896,11.628 C91.9920005,11.628 92.1019994,11.6339999 92.226,11.646 C92.3500006,11.6580001 92.4719994,11.6739999 92.592,11.694 C92.7120006,11.7140001 92.8219995,11.7339999 92.922,11.754 C93.0220005,11.7740001 93.0959998,11.7919999 93.144,11.808 L92.952,12.78 C92.8639996,12.7479998 92.718001,12.7100002 92.514,12.666 C92.309999,12.6219998 92.0480016,12.6 91.728,12.6 C91.519999,12.6 91.314001,12.6219998 91.11,12.666 C90.905999,12.7100002 90.7720003,12.7399999 90.708,12.756 L90.708,18 L89.592,18 L89.592,12.024 C89.8560013,11.9279995 90.183998,11.8380004 90.576,11.754 C90.968002,11.6699996 91.4079976,11.628 91.896,11.628 Z M99.732,14.88 C99.732,15.3760025 99.6600007,15.823998 99.516,16.224 C99.3719993,16.624002 99.1700013,16.9679986 98.91,17.256 C98.6499987,17.5440014 98.3400018,17.7659992 97.98,17.922 C97.6199982,18.0780008 97.2280021,18.156 96.804,18.156 C96.3799979,18.156 95.9880018,18.0780008 95.628,17.922 C95.2679982,17.7659992 94.9580013,17.5440014 94.698,17.256 C94.4379987,16.9679986 94.2360007,16.624002 94.092,16.224 C93.9479993,15.823998 93.876,15.3760025 93.876,14.88 C93.876,14.3919976 93.9479993,13.946002 94.092,13.542 C94.2360007,13.137998 94.4379987,12.7920014 94.698,12.504 C94.9580013,12.2159986 95.2679982,11.9940008 95.628,11.838 C95.9880018,11.6819992 96.3799979,11.604 96.804,11.604 C97.2280021,11.604 97.6199982,11.6819992 97.98,11.838 C98.3400018,11.9940008 98.6499987,12.2159986 98.91,12.504 C99.1700013,12.7920014 99.3719993,13.137998 99.516,13.542 C99.6600007,13.946002 99.732,14.3919976 99.732,14.88 Z M98.568,14.88 C98.568,14.1759965 98.4100016,13.6180021 98.094,13.206 C97.7779984,12.7939979 97.3480027,12.588 96.804,12.588 C96.2599973,12.588 95.8300016,12.7939979 95.514,13.206 C95.1979984,13.6180021 95.04,14.1759965 95.04,14.88 C95.04,15.5840035 95.1979984,16.1419979 95.514,16.554 C95.8300016,16.9660021 96.2599973,17.172 96.804,17.172 C97.3480027,17.172 97.7779984,16.9660021 98.094,16.554 C98.4100016,16.1419979 98.568,15.5840035 98.568,14.88 Z M101.304,11.94 C101.560001,11.8759997 101.897998,11.8080004 102.318,11.736 C102.738002,11.6639996 103.223997,11.628 103.776,11.628 C104.176002,11.628 104.511999,11.6819995 104.784,11.79 C105.056001,11.8980005 105.283999,12.055999 105.468,12.264 C105.524,12.2239998 105.611999,12.1680004 105.732,12.096 C105.852001,12.0239996 105.999999,11.9540003 106.176,11.886 C106.352001,11.8179997 106.547999,11.7580003 106.764,11.706 C106.980001,11.6539997 107.211999,11.628 107.46,11.628 C107.940002,11.628 108.331998,11.6979993 108.636,11.838 C108.940002,11.9780007 109.177999,12.1759987 109.35,12.432 C109.522001,12.6880013 109.638,12.9919982 109.698,13.344 C109.758,13.6960018 109.788,14.0799979 109.788,14.496 L109.788,18 L108.672,18 L108.672,14.736 C108.672,14.3679982 108.654,14.0520013 108.618,13.788 C108.582,13.5239987 108.514,13.3040009 108.414,13.128 C108.313999,12.9519991 108.178001,12.8220004 108.006,12.738 C107.833999,12.6539996 107.612001,12.612 107.34,12.612 C106.963998,12.612 106.654001,12.6619995 106.41,12.762 C106.165999,12.8620005 106,12.9519996 105.912,13.032 C105.976,13.240001 106.024,13.4679988 106.056,13.716 C106.088,13.9640012 106.104,14.2239986 106.104,14.496 L106.104,18 L104.988,18 L104.988,14.736 C104.988,14.3679982 104.968,14.0520013 104.928,13.788 C104.888,13.5239987 104.818,13.3040009 104.718,13.128 C104.617999,12.9519991 104.482001,12.8220004 104.31,12.738 C104.137999,12.6539996 103.920001,12.612 103.656,12.612 C103.543999,12.612 103.424001,12.616 103.296,12.624 C103.167999,12.632 103.046001,12.6419999 102.93,12.654 C102.813999,12.6660001 102.708,12.6799999 102.612,12.696 C102.516,12.7120001 102.452,12.724 102.42,12.732 L102.42,18 L101.304,18 L101.304,11.94 Z M115.452,11.76 L117.816,11.76 L117.816,12.696 L115.452,12.696 L115.452,15.576 C115.452,15.8880016 115.476,16.145999 115.524,16.35 C115.572,16.554001 115.644,16.7139994 115.74,16.83 C115.836,16.9460006 115.955999,17.0279998 116.1,17.076 C116.244001,17.1240002 116.411999,17.148 116.604,17.148 C116.940002,17.148 117.209999,17.1100004 117.414,17.034 C117.618001,16.9579996 117.76,16.9040002 117.84,16.872 L118.056,17.796 C117.943999,17.8520003 117.748001,17.9219996 117.468,18.006 C117.187999,18.0900004 116.868002,18.132 116.508,18.132 C116.083998,18.132 115.734001,18.0780005 115.458,17.97 C115.181999,17.8619995 114.960001,17.7000011 114.792,17.484 C114.623999,17.2679989 114.506,17.0020016 114.438,16.686 C114.37,16.3699984 114.336,16.0040021 114.336,15.588 L114.336,10.02 L115.452,9.828 L115.452,11.76 Z M119.232,18 L119.232,8.88 L120.348,8.688 L120.348,11.88 C120.556001,11.7999996 120.777999,11.7380002 121.014,11.694 C121.250001,11.6499998 121.483999,11.628 121.716,11.628 C122.212002,11.628 122.623998,11.6979993 122.952,11.838 C123.280002,11.9780007 123.541999,12.1739987 123.738,12.426 C123.934001,12.6780013 124.072,12.9799982 124.152,13.332 C124.232,13.6840018 124.272,14.0719979 124.272,14.496 L124.272,18 L123.156,18 L123.156,14.736 C123.156,14.3519981 123.13,14.0240014 123.078,13.752 C123.026,13.4799986 122.940001,13.2600008 122.82,13.092 C122.699999,12.9239992 122.540001,12.8020004 122.34,12.726 C122.139999,12.6499996 121.892001,12.612 121.596,12.612 C121.475999,12.612 121.352001,12.6199999 121.224,12.636 C121.095999,12.6520001 120.974001,12.6699999 120.858,12.69 C120.741999,12.7100001 120.638,12.7319999 120.546,12.756 C120.454,12.7800001 120.388,12.7999999 120.348,12.816 L120.348,18 L119.232,18 Z M125.736,14.892 C125.736,14.3399972 125.815999,13.8580021 125.976,13.446 C126.136001,13.0339979 126.347999,12.6920014 126.612,12.42 C126.876001,12.1479986 127.179998,11.9440007 127.524,11.808 C127.868002,11.6719993 128.219998,11.604 128.58,11.604 C129.420004,11.604 130.063998,11.8659974 130.512,12.39 C130.960002,12.9140026 131.184,13.7119946 131.184,14.784 L131.184,14.97 C131.184,15.0460004 131.18,15.1159997 131.172,15.18 L126.9,15.18 C126.948,15.8280032 127.135998,16.3199983 127.464,16.656 C127.792002,16.9920017 128.303997,17.16 129,17.16 C129.392002,17.16 129.721999,17.1260003 129.99,17.058 C130.258001,16.9899997 130.459999,16.9240003 130.596,16.86 L130.752,17.796 C130.615999,17.8680004 130.378002,17.9439996 130.038,18.024 C129.697998,18.1040004 129.312002,18.144 128.88,18.144 C128.335997,18.144 127.866002,18.0620008 127.47,17.898 C127.073998,17.7339992 126.748001,17.5080014 126.492,17.22 C126.235999,16.9319986 126.046001,16.590002 125.922,16.194 C125.797999,15.797998 125.736,15.3640024 125.736,14.892 Z M130.02,14.28 C130.028,13.7759975 129.902001,13.3620016 129.642,13.038 C129.381999,12.7139984 129.024002,12.552 128.568,12.552 C128.311999,12.552 128.086001,12.6019995 127.89,12.702 C127.693999,12.8020005 127.528001,12.9319992 127.392,13.092 C127.255999,13.2520008 127.15,13.435999 127.074,13.644 C126.998,13.852001 126.948,14.0639989 126.924,14.28 L130.02,14.28 Z" id="Get-it-from-the" fill="#FFFFFF"></path>
                <path d="M56.928,39.344 C59.3600122,39.344 60.576,38.5120083 60.576,36.848 C60.576,36.3359974 60.4680011,35.9000018 60.252,35.54 C60.0359989,35.1799982 59.7440018,34.8680013 59.376,34.604 C59.0079982,34.3399987 58.5880024,34.112001 58.116,33.92 C57.6439976,33.727999 57.1440026,33.536001 56.616,33.344 C56.007997,33.135999 55.4320027,32.9000013 54.888,32.636 C54.3439973,32.3719987 53.872002,32.0600018 53.472,31.7 C53.071998,31.3399982 52.7560012,30.9120025 52.524,30.416 C52.2919988,29.9199975 52.176,29.3200035 52.176,28.616 C52.176,27.1599927 52.671995,26.0240041 53.664,25.208 C54.656005,24.3919959 56.0239913,23.984 57.768,23.984 C58.776005,23.984 59.6919959,24.0919989 60.516,24.308 C61.3400041,24.5240011 61.9439981,24.7599987 62.328,25.016 L61.584,26.912 C61.2479983,26.703999 60.7480033,26.500001 60.084,26.3 C59.4199967,26.099999 58.6480044,26 57.768,26 C57.3199978,26 56.9040019,26.0479995 56.52,26.144 C56.1359981,26.2400005 55.8000014,26.383999 55.512,26.576 C55.2239986,26.768001 54.9960008,27.0119985 54.828,27.308 C54.6599992,27.6040015 54.576,27.951998 54.576,28.352 C54.576,28.8000022 54.6639991,29.1759985 54.84,29.48 C55.0160009,29.7840015 55.2639984,30.0519988 55.584,30.284 C55.9040016,30.5160012 56.2759979,30.727999 56.7,30.92 C57.1240021,31.112001 57.5919974,31.303999 58.104,31.496 C58.8240036,31.7840014 59.483997,32.0719986 60.084,32.36 C60.684003,32.6480014 61.2039978,32.991998 61.644,33.392 C62.0840022,33.792002 62.4239988,34.2679972 62.664,34.82 C62.9040012,35.3720028 63.024,36.0399961 63.024,36.824 C63.024,38.2800073 62.4920053,39.3999961 61.428,40.184 C60.3639947,40.9680039 58.8640097,41.36 56.928,41.36 C56.2719967,41.36 55.6680028,41.3160004 55.116,41.228 C54.5639972,41.1399996 54.0720022,41.0360006 53.64,40.916 C53.2079978,40.7959994 52.8360016,40.6680007 52.524,40.532 C52.2119984,40.3959993 51.9680009,40.2800005 51.792,40.184 L52.488,38.264 C52.8560018,38.472001 53.4159962,38.7039987 54.168,38.96 C54.9200038,39.2160013 55.8399946,39.344 56.928,39.344 Z M65.688,28.88 C66.2000026,28.7519994 66.8799958,28.6160007 67.728,28.472 C68.5760042,28.3279993 69.5519945,28.256 70.656,28.256 C71.648005,28.256 72.4719967,28.3959986 73.128,28.676 C73.7840033,28.9560014 74.307998,29.3479975 74.7,29.852 C75.092002,30.3560025 75.3679992,30.9599965 75.528,31.664 C75.6880008,32.3680035 75.768,33.1439958 75.768,33.992 L75.768,41 L73.536,41 L73.536,34.472 C73.536,33.7039962 73.4840005,33.0480027 73.38,32.504 C73.2759995,31.9599973 73.1040012,31.5200017 72.864,31.184 C72.6239988,30.8479983 72.304002,30.6040008 71.904,30.452 C71.503998,30.2999992 71.008003,30.224 70.416,30.224 C70.1759988,30.224 69.9280013,30.2319999 69.672,30.248 C69.4159987,30.2640001 69.1720012,30.2839999 68.94,30.308 C68.7079988,30.3320001 68.5000009,30.3599998 68.316,30.392 C68.1319991,30.4240002 68.0000004,30.4479999 67.92,30.464 L67.92,41 L65.688,41 L65.688,28.88 Z M83.688,39.392 C84.2160026,39.392 84.683998,39.3800001 85.092,39.356 C85.500002,39.3319999 85.8399986,39.2880003 86.112,39.224 L86.112,35.504 C85.9519992,35.4239996 85.6920018,35.3560003 85.332,35.3 C84.9719982,35.2439997 84.5360026,35.216 84.024,35.216 C83.6879983,35.216 83.3320019,35.2399998 82.956,35.288 C82.5799981,35.3360002 82.2360016,35.4359992 81.924,35.588 C81.6119984,35.7400008 81.352001,35.9479987 81.144,36.212 C80.935999,36.4760013 80.832,36.8239978 80.832,37.256 C80.832,38.056004 81.0879974,38.6119984 81.6,38.924 C82.1120026,39.2360016 82.8079956,39.392 83.688,39.392 Z M83.496,28.208 C84.3920045,28.208 85.1479969,28.3239988 85.764,28.556 C86.3800031,28.7880012 86.8759981,29.1159979 87.252,29.54 C87.6280019,29.9640021 87.8959992,30.4679971 88.056,31.052 C88.2160008,31.6360029 88.296,32.2799965 88.296,32.984 L88.296,40.784 C88.103999,40.8160002 87.8360017,40.8599997 87.492,40.916 C87.1479983,40.9720003 86.7600022,41.0239998 86.328,41.072 C85.8959978,41.1200002 85.4280025,41.1639998 84.924,41.204 C84.4199975,41.2440002 83.9200025,41.264 83.424,41.264 C82.7199965,41.264 82.072003,41.1920007 81.48,41.048 C80.887997,40.9039993 80.3760022,40.6760016 79.944,40.364 C79.5119978,40.0519984 79.1760012,39.6400026 78.936,39.128 C78.6959988,38.6159974 78.576,38.0000036 78.576,37.28 C78.576,36.5919966 78.7159986,36.0000025 78.996,35.504 C79.2760014,35.0079975 79.6559976,34.6080015 80.136,34.304 C80.6160024,33.9999985 81.1759968,33.7760007 81.816,33.632 C82.4560032,33.4879993 83.1279965,33.416 83.832,33.416 C84.0560011,33.416 84.2879988,33.4279999 84.528,33.452 C84.7680012,33.4760001 84.9959989,33.5079998 85.212,33.548 C85.4280011,33.5880002 85.6159992,33.6239998 85.776,33.656 C85.9360008,33.6880002 86.0479997,33.7119999 86.112,33.728 L86.112,33.104 C86.112,32.7359982 86.0720004,32.3720018 85.992,32.012 C85.9119996,31.6519982 85.768001,31.3320014 85.56,31.052 C85.351999,30.7719986 85.0680018,30.5480008 84.708,30.38 C84.3479982,30.2119992 83.8800029,30.128 83.304,30.128 C82.5679963,30.128 81.9240028,30.1799995 81.372,30.284 C80.8199972,30.3880005 80.4080014,30.4959994 80.136,30.608 L79.872,28.76 C80.1600014,28.6319994 80.6399966,28.5080006 81.312,28.388 C81.9840034,28.2679994 82.7119961,28.208 83.496,28.208 Z M100.656,34.784 C100.656,33.3279927 100.296004,32.2080039 99.576,31.424 C98.8559964,30.6399961 97.896006,30.248 96.696,30.248 C96.0239966,30.248 95.5000019,30.2719998 95.124,30.32 C94.7479981,30.3680002 94.4480011,30.4239997 94.224,30.488 L94.224,38.36 C94.4960014,38.5840011 94.8879974,38.799999 95.4,39.008 C95.9120026,39.216001 96.471997,39.32 97.08,39.32 C97.7200032,39.32 98.2679977,39.2040012 98.724,38.972 C99.1800023,38.7399988 99.5519986,38.420002 99.84,38.012 C100.128001,37.603998 100.335999,37.1240028 100.464,36.572 C100.592001,36.0199972 100.656,35.4240032 100.656,34.784 Z M102.984,34.784 C102.984,35.7280047 102.860001,36.599996 102.612,37.4 C102.363999,38.200004 102.000002,38.8879971 101.52,39.464 C101.039998,40.0400029 100.452003,40.4879984 99.756,40.808 C99.0599965,41.1280016 98.2640045,41.288 97.368,41.288 C96.6479964,41.288 96.0120028,41.192001 95.46,41 C94.9079972,40.807999 94.4960014,40.6240009 94.224,40.448 L94.224,45.44 L91.992,45.44 L91.992,28.904 C92.5200026,28.7759994 93.179996,28.6360008 93.972,28.484 C94.764004,28.3319992 95.6799948,28.256 96.72,28.256 C97.6800048,28.256 98.5439962,28.4079985 99.312,28.712 C100.080004,29.0160015 100.735997,29.4479972 101.28,30.008 C101.824003,30.5680028 102.243999,31.251996 102.54,32.06 C102.836001,32.868004 102.984,33.775995 102.984,34.784 Z M115.68,39.344 C118.112012,39.344 119.328,38.5120083 119.328,36.848 C119.328,36.3359974 119.220001,35.9000018 119.004,35.54 C118.787999,35.1799982 118.496002,34.8680013 118.128,34.604 C117.759998,34.3399987 117.340002,34.112001 116.868,33.92 C116.395998,33.727999 115.896003,33.536001 115.368,33.344 C114.759997,33.135999 114.184003,32.9000013 113.64,32.636 C113.095997,32.3719987 112.624002,32.0600018 112.224,31.7 C111.823998,31.3399982 111.508001,30.9120025 111.276,30.416 C111.043999,29.9199975 110.928,29.3200035 110.928,28.616 C110.928,27.1599927 111.423995,26.0240041 112.416,25.208 C113.408005,24.3919959 114.775991,23.984 116.52,23.984 C117.528005,23.984 118.443996,24.0919989 119.268,24.308 C120.092004,24.5240011 120.695998,24.7599987 121.08,25.016 L120.336,26.912 C119.999998,26.703999 119.500003,26.500001 118.836,26.3 C118.171997,26.099999 117.400004,26 116.52,26 C116.071998,26 115.656002,26.0479995 115.272,26.144 C114.887998,26.2400005 114.552001,26.383999 114.264,26.576 C113.975999,26.768001 113.748001,27.0119985 113.58,27.308 C113.411999,27.6040015 113.328,27.951998 113.328,28.352 C113.328,28.8000022 113.415999,29.1759985 113.592,29.48 C113.768001,29.7840015 114.015998,30.0519988 114.336,30.284 C114.656002,30.5160012 115.027998,30.727999 115.452,30.92 C115.876002,31.112001 116.343997,31.303999 116.856,31.496 C117.576004,31.7840014 118.235997,32.0719986 118.836,32.36 C119.436003,32.6480014 119.955998,32.991998 120.396,33.392 C120.836002,33.792002 121.175999,34.2679972 121.416,34.82 C121.656001,35.3720028 121.776,36.0399961 121.776,36.824 C121.776,38.2800073 121.244005,39.3999961 120.18,40.184 C119.115995,40.9680039 117.61601,41.36 115.68,41.36 C115.023997,41.36 114.420003,41.3160004 113.868,41.228 C113.315997,41.1399996 112.824002,41.0360006 112.392,40.916 C111.959998,40.7959994 111.588002,40.6680007 111.276,40.532 C110.963998,40.3959993 110.720001,40.2800005 110.544,40.184 L111.24,38.264 C111.608002,38.472001 112.167996,38.7039987 112.92,38.96 C113.672004,39.2160013 114.591995,39.344 115.68,39.344 Z M126.528,28.52 L131.256,28.52 L131.256,30.392 L126.528,30.392 L126.528,36.152 C126.528,36.7760031 126.576,37.291998 126.672,37.7 C126.768,38.108002 126.911999,38.4279988 127.104,38.66 C127.296001,38.8920012 127.535999,39.0559995 127.824,39.152 C128.112001,39.2480005 128.447998,39.296 128.832,39.296 C129.504003,39.296 130.043998,39.2200008 130.452,39.068 C130.860002,38.9159992 131.143999,38.8080003 131.304,38.744 L131.736,40.592 C131.511999,40.7040006 131.120003,40.8439992 130.56,41.012 C129.999997,41.1800008 129.360004,41.264 128.64,41.264 C127.791996,41.264 127.092003,41.1560011 126.54,40.94 C125.987997,40.7239989 125.544002,40.4000022 125.208,39.968 C124.871998,39.5359978 124.636001,39.0040032 124.5,38.372 C124.363999,37.7399968 124.296,37.0080042 124.296,36.176 L124.296,25.04 L126.528,24.656 L126.528,28.52 Z M144.768,34.76 C144.768,35.752005 144.624001,36.647996 144.336,37.448 C144.047999,38.248004 143.644003,38.9359971 143.124,39.512 C142.603997,40.0880029 141.984004,40.5319984 141.264,40.844 C140.543996,41.1560016 139.760004,41.312 138.912,41.312 C138.063996,41.312 137.280004,41.1560016 136.56,40.844 C135.839996,40.5319984 135.220003,40.0880029 134.7,39.512 C134.179997,38.9359971 133.776001,38.248004 133.488,37.448 C133.199999,36.647996 133.056,35.752005 133.056,34.76 C133.056,33.7839951 133.199999,32.892004 133.488,32.084 C133.776001,31.275996 134.179997,30.5840029 134.7,30.008 C135.220003,29.4319971 135.839996,28.9880016 136.56,28.676 C137.280004,28.3639984 138.063996,28.208 138.912,28.208 C139.760004,28.208 140.543996,28.3639984 141.264,28.676 C141.984004,28.9880016 142.603997,29.4319971 143.124,30.008 C143.644003,30.5840029 144.047999,31.275996 144.336,32.084 C144.624001,32.892004 144.768,33.7839951 144.768,34.76 Z M142.44,34.76 C142.44,33.351993 142.124003,32.2360041 141.492,31.412 C140.859997,30.5879959 140.000005,30.176 138.912,30.176 C137.823995,30.176 136.964003,30.5879959 136.332,31.412 C135.699997,32.2360041 135.384,33.351993 135.384,34.76 C135.384,36.168007 135.699997,37.2839959 136.332,38.108 C136.964003,38.9320041 137.823995,39.344 138.912,39.344 C140.000005,39.344 140.859997,38.9320041 141.492,38.108 C142.124003,37.2839959 142.44,36.168007 142.44,34.76 Z M152.52,28.256 C152.712001,28.256 152.931999,28.2679999 153.18,28.292 C153.428001,28.3160001 153.671999,28.3479998 153.912,28.388 C154.152001,28.4280002 154.371999,28.4679998 154.572,28.508 C154.772001,28.5480002 154.92,28.5839998 155.016,28.616 L154.632,30.56 C154.455999,30.4959997 154.164002,30.4200004 153.756,30.332 C153.347998,30.2439996 152.824003,30.2 152.184,30.2 C151.767998,30.2 151.356002,30.2439996 150.948,30.332 C150.539998,30.4200004 150.272001,30.4799998 150.144,30.512 L150.144,41 L147.912,41 L147.912,29.048 C148.440003,28.855999 149.095996,28.6760008 149.88,28.508 C150.664004,28.3399992 151.543995,28.256 152.52,28.256 Z M156.48,34.784 C156.48,33.6799945 156.639998,32.7160041 156.96,31.892 C157.280002,31.0679959 157.703997,30.3840027 158.232,29.84 C158.760003,29.2959973 159.367997,28.8880014 160.056,28.616 C160.744003,28.3439986 161.447996,28.208 162.168,28.208 C163.848008,28.208 165.135996,28.7319948 166.032,29.78 C166.928004,30.8280052 167.376,32.4239893 167.376,34.568 L167.376,34.94 C167.376,35.0920008 167.368,35.2319994 167.352,35.36 L158.808,35.36 C158.904,36.6560065 159.279997,37.6399966 159.936,38.312 C160.592003,38.9840034 161.615993,39.32 163.008,39.32 C163.792004,39.32 164.451997,39.2520007 164.988,39.116 C165.524003,38.9799993 165.927999,38.8480006 166.2,38.72 L166.512,40.592 C166.239999,40.7360007 165.764003,40.8879992 165.084,41.048 C164.403997,41.2080008 163.632004,41.288 162.768,41.288 C161.679995,41.288 160.740004,41.1240016 159.948,40.796 C159.155996,40.4679984 158.504003,40.0160029 157.992,39.44 C157.479997,38.8639971 157.100001,38.180004 156.852,37.388 C156.603999,36.595996 156.48,35.7280047 156.48,34.784 Z M165.048,33.56 C165.064,32.551995 164.812003,31.7240032 164.292,31.076 C163.771997,30.4279968 163.056005,30.104 162.144,30.104 C161.631997,30.104 161.180002,30.203999 160.788,30.404 C160.395998,30.604001 160.064001,30.8639984 159.792,31.184 C159.519999,31.5040016 159.308001,31.8719979 159.156,32.288 C159.003999,32.7040021 158.904,33.1279978 158.856,33.56 L165.048,33.56 Z" id="Snap-Store" fill="#FFFFFF"></path>
            </g>
        </g>
    </g>
</svg>