<?xml version="1.0" encoding="UTF-8"?>
<svg width="182px" height="56px" viewBox="0 0 182 56" version="1.1" xmlns="http://www.w3.org/2000/svg" xmlns:xlink="http://www.w3.org/1999/xlink">
    <!-- Generator: Sketch 52.3 (67297) - http://www.bohemiancoding.com/sketch -->
    <title>[DE]-snap-store-white-uneditable</title>
    <desc>Created with Sketch.</desc>
    <defs>
        <polygon id="path-1" points="10.5520345 0.559428571 0.0608793103 0.559428571 13.5487759 6.58"></polygon>
    </defs>
    <g id="Other-languages" stroke="none" stroke-width="1" fill="none" fill-rule="evenodd">
        <g id="DE" transform="translate(-199.000000, -113.000000)">
            <g id="[DE]-snap-store-white-uneditable" transform="translate(200.000000, 114.000000)">
                <rect id="Rectangle-path" stroke="#CDCDCD" fill="#FFFFFF" x="0" y="0" width="180" height="54" rx="2"></rect>
                <g id="logo" transform="translate(8.000000, 11.000000)">
                    <g>
                        <polygon id="Fill-2265" fill="#82BEA0" fill-rule="nonzero" points="18.9875172 17.8017143 26.2054138 10.5525714 18.9875172 7.33085714"></polygon>
                        <polygon id="Fill-2266" fill="#82BEA0" fill-rule="nonzero" points="5.20774138 31.6411429 17.9423276 18.852 14.058569 14.9742857"></polygon>
                        <polygon id="Fill-2267" fill="#82BEA0" fill-rule="nonzero" points="0.160180862 0.233262857 18.3753103 18.4171429 18.3753103 6.84571429"></polygon>
                        <g id="Fill-2268" transform="translate(19.344828, 6.285714)" fill="#FA6441" fill-rule="nonzero">
                            <polygon id="path-2" points="10.5520345 0.559428571 0.0608793103 0.559428571 13.5487759 6.58"></polygon>
                        </g>
                        <g id="colour/snappy-accent-Clipped" transform="translate(19.344828, 6.285714)">
                            <mask id="mask-2" fill="white">
                                <use xlink:href="#path-1"></use>
                            </mask>
                            <g id="path-2"></g>
                            <g id="colour/snappy-accent" mask="url(#mask-2)">
                                <g transform="translate(-19.913793, -9.142857)" id="Rectangle-2">
                                    <g transform="translate(0.343092, 0.497771)">
                                        <rect id="Rectangle-path" fill="#FA6441" fill-rule="nonzero" x="0" y="0" width="101.275862" height="34.8571429"></rect>
                                    </g>
                                </g>
                            </g>
                        </g>
                    </g>
                </g>
                <path d="M52.032,9.684 L53.196,9.684 L53.196,18 L52.032,18 L52.032,9.684 Z M55.188,11.94 C55.4440013,11.8759997 55.7839979,11.8080004 56.208,11.736 C56.6320021,11.6639996 57.1199972,11.628 57.672,11.628 C58.1680025,11.628 58.5799984,11.6979993 58.908,11.838 C59.2360016,11.9780007 59.497999,12.1739987 59.694,12.426 C59.890001,12.6780013 60.0279996,12.9799982 60.108,13.332 C60.1880004,13.6840018 60.228,14.0719979 60.228,14.496 L60.228,18 L59.112,18 L59.112,14.736 C59.112,14.3519981 59.0860003,14.0240014 59.034,13.752 C58.9819997,13.4799986 58.8960006,13.2600008 58.776,13.092 C58.6559994,12.9239992 58.496001,12.8020004 58.296,12.726 C58.095999,12.6499996 57.8480015,12.612 57.552,12.612 C57.4319994,12.612 57.3080006,12.616 57.18,12.624 C57.0519994,12.632 56.9300006,12.6419999 56.814,12.654 C56.6979994,12.6660001 56.5940005,12.6799999 56.502,12.696 C56.4099995,12.7120001 56.3440002,12.724 56.304,12.732 L56.304,18 L55.188,18 L55.188,11.94 Z M63.528,17.196 C63.9840023,17.196 64.3219989,17.1360006 64.542,17.016 C64.7620011,16.8959994 64.872,16.7040013 64.872,16.44 C64.872,16.1679986 64.7640011,15.9520008 64.548,15.792 C64.3319989,15.6319992 63.9760025,15.452001 63.48,15.252 C63.2399988,15.1559995 63.0100011,15.0580005 62.79,14.958 C62.5699989,14.8579995 62.3800008,14.7400007 62.22,14.604 C62.0599992,14.4679993 61.9320005,14.304001 61.836,14.112 C61.7399995,13.919999 61.692,13.6840014 61.692,13.404 C61.692,12.8519972 61.895998,12.4140016 62.304,12.09 C62.712002,11.7659984 63.2679965,11.604 63.972,11.604 C64.1480009,11.604 64.3239991,11.6139999 64.5,11.634 C64.6760009,11.6540001 64.8399992,11.6779999 64.992,11.706 C65.1440008,11.7340001 65.2779994,11.7639998 65.394,11.796 C65.5100006,11.8280002 65.5999997,11.8559999 65.664,11.88 L65.46,12.84 C65.3399994,12.7759997 65.1520013,12.7100003 64.896,12.642 C64.6399987,12.5739997 64.3320018,12.54 63.972,12.54 C63.6599984,12.54 63.3880012,12.6019994 63.156,12.726 C62.9239988,12.8500006 62.808,13.0439987 62.808,13.308 C62.808,13.4440007 62.8339997,13.5639995 62.886,13.668 C62.9380003,13.7720005 63.0179995,13.8659996 63.126,13.95 C63.2340005,14.0340004 63.3679992,14.1119996 63.528,14.184 C63.6880008,14.2560004 63.8799989,14.3319996 64.104,14.412 C64.4000015,14.5240006 64.6639988,14.6339995 64.896,14.742 C65.1280012,14.8500005 65.3259992,14.9759993 65.49,15.12 C65.6540008,15.2640007 65.7799996,15.437999 65.868,15.642 C65.9560004,15.846001 66,16.0959985 66,16.392 C66,16.9680029 65.7860021,17.4039985 65.358,17.7 C64.9299979,17.9960015 64.320004,18.144 63.528,18.144 C62.9759972,18.144 62.5440016,18.0980005 62.232,18.006 C61.9199984,17.9139995 61.7080006,17.8440002 61.596,17.796 L61.8,16.836 C61.9280006,16.8840002 62.1319986,16.9559995 62.412,17.052 C62.6920014,17.1480005 63.0639977,17.196 63.528,17.196 Z M68.472,11.76 L70.836,11.76 L70.836,12.696 L68.472,12.696 L68.472,15.576 C68.472,15.8880016 68.4959998,16.145999 68.544,16.35 C68.5920002,16.554001 68.6639995,16.7139994 68.76,16.83 C68.8560005,16.9460006 68.9759993,17.0279998 69.12,17.076 C69.2640007,17.1240002 69.431999,17.148 69.624,17.148 C69.9600017,17.148 70.229999,17.1100004 70.434,17.034 C70.638001,16.9579996 70.7799996,16.9040002 70.86,16.872 L71.076,17.796 C70.9639994,17.8520003 70.7680014,17.9219996 70.488,18.006 C70.2079986,18.0900004 69.8880018,18.132 69.528,18.132 C69.1039979,18.132 68.7540014,18.0780005 68.478,17.97 C68.2019986,17.8619995 67.9800008,17.7000011 67.812,17.484 C67.6439992,17.2679989 67.5260003,17.0020016 67.458,16.686 C67.3899997,16.3699984 67.356,16.0040021 67.356,15.588 L67.356,10.02 L68.472,9.828 L68.472,11.76 Z M74.364,17.196 C74.6280013,17.196 74.861999,17.1900001 75.066,17.178 C75.270001,17.1659999 75.4399993,17.1440002 75.576,17.112 L75.576,15.252 C75.4959996,15.2119998 75.3660009,15.1780001 75.186,15.15 C75.0059991,15.1219999 74.7880013,15.108 74.532,15.108 C74.3639992,15.108 74.1860009,15.1199999 73.998,15.144 C73.8099991,15.1680001 73.6380008,15.2179996 73.482,15.294 C73.3259992,15.3700004 73.1960005,15.4739993 73.092,15.606 C72.9879995,15.7380007 72.936,15.9119989 72.936,16.128 C72.936,16.528002 73.0639987,16.8059992 73.32,16.962 C73.5760013,17.1180008 73.9239978,17.196 74.364,17.196 Z M74.268,11.604 C74.7160022,11.604 75.0939985,11.6619994 75.402,11.778 C75.7100015,11.8940006 75.9579991,12.0579989 76.146,12.27 C76.3340009,12.4820011 76.4679996,12.7339985 76.548,13.026 C76.6280004,13.3180015 76.668,13.6399982 76.668,13.992 L76.668,17.892 C76.5719995,17.9080001 76.4380009,17.9299999 76.266,17.958 C76.0939991,17.9860001 75.9000011,18.0119999 75.684,18.036 C75.4679989,18.0600001 75.2340013,18.0819999 74.982,18.102 C74.7299987,18.1220001 74.4800012,18.132 74.232,18.132 C73.8799982,18.132 73.5560015,18.0960004 73.26,18.024 C72.9639985,17.9519996 72.7080011,17.8380008 72.492,17.682 C72.2759989,17.5259992 72.1080006,17.3200013 71.988,17.064 C71.8679994,16.8079987 71.808,16.5000018 71.808,16.14 C71.808,15.7959983 71.8779993,15.5000012 72.018,15.252 C72.1580007,15.0039988 72.3479988,14.8040008 72.588,14.652 C72.8280012,14.4999992 73.1079984,14.3880004 73.428,14.316 C73.7480016,14.2439996 74.0839982,14.208 74.436,14.208 C74.5480006,14.208 74.6639994,14.2139999 74.784,14.226 C74.9040006,14.2380001 75.0179995,14.2539999 75.126,14.274 C75.2340005,14.2940001 75.3279996,14.3119999 75.408,14.328 C75.4880004,14.3440001 75.5439998,14.356 75.576,14.364 L75.576,14.052 C75.576,13.8679991 75.5560002,13.6860009 75.516,13.506 C75.4759998,13.3259991 75.4040005,13.1660007 75.3,13.026 C75.1959995,12.8859993 75.0540009,12.7740004 74.874,12.69 C74.6939991,12.6059996 74.4600014,12.564 74.172,12.564 C73.8039982,12.564 73.4820014,12.5899997 73.206,12.642 C72.9299986,12.6940003 72.7240007,12.7479997 72.588,12.804 L72.456,11.88 C72.6000007,11.8159997 72.8399983,11.7540003 73.176,11.694 C73.5120017,11.6339997 73.875998,11.604 74.268,11.604 Z M80.388,18.12 C79.6999966,18.1039999 79.2120014,17.9560014 78.924,17.676 C78.6359986,17.3959986 78.492,16.960003 78.492,16.368 L78.492,8.88 L79.608,8.688 L79.608,16.188 C79.608,16.3720009 79.6239998,16.5239994 79.656,16.644 C79.6880002,16.7640006 79.7399996,16.8599996 79.812,16.932 C79.8840004,17.0040004 79.9799994,17.0579998 80.1,17.094 C80.2200006,17.1300002 80.3679991,17.1599999 80.544,17.184 L80.388,18.12 Z M83.664,18.12 C82.9759966,18.1039999 82.4880014,17.9560014 82.2,17.676 C81.9119986,17.3959986 81.768,16.960003 81.768,16.368 L81.768,8.88 L82.884,8.688 L82.884,16.188 C82.884,16.3720009 82.8999998,16.5239994 82.932,16.644 C82.9640002,16.7640006 83.0159996,16.8599996 83.088,16.932 C83.1600004,17.0040004 83.2559994,17.0579998 83.376,17.094 C83.4960006,17.1300002 83.6439991,17.1599999 83.82,17.184 L83.664,18.12 Z M86.184,18 L85.068,18 L85.068,11.76 L86.184,11.76 L86.184,18 Z M85.62,10.632 C85.419999,10.632 85.2500007,10.5660007 85.11,10.434 C84.9699993,10.3019993 84.9,10.1240011 84.9,9.9 C84.9,9.67599888 84.9699993,9.49800066 85.11,9.366 C85.2500007,9.23399934 85.419999,9.168 85.62,9.168 C85.820001,9.168 85.9899993,9.23399934 86.13,9.366 C86.2700007,9.49800066 86.34,9.67599888 86.34,9.9 C86.34,10.1240011 86.2700007,10.3019993 86.13,10.434 C85.9899993,10.5660007 85.820001,10.632 85.62,10.632 Z M87.756,14.892 C87.756,14.3399972 87.8359992,13.8580021 87.996,13.446 C88.1560008,13.0339979 88.3679987,12.6920014 88.632,12.42 C88.8960013,12.1479986 89.1999983,11.9440007 89.544,11.808 C89.8880017,11.6719993 90.2399982,11.604 90.6,11.604 C91.4400042,11.604 92.0839978,11.8659974 92.532,12.39 C92.9800022,12.9140026 93.204,13.7119946 93.204,14.784 L93.204,14.97 C93.204,15.0460004 93.2,15.1159997 93.192,15.18 L88.92,15.18 C88.9680002,15.8280032 89.1559984,16.3199983 89.484,16.656 C89.8120016,16.9920017 90.3239965,17.16 91.02,17.16 C91.412002,17.16 91.7419987,17.1260003 92.01,17.058 C92.2780013,16.9899997 92.4799993,16.9240003 92.616,16.86 L92.772,17.796 C92.6359993,17.8680004 92.3980017,17.9439996 92.058,18.024 C91.7179983,18.1040004 91.3320022,18.144 90.9,18.144 C90.3559973,18.144 89.886002,18.0620008 89.49,17.898 C89.093998,17.7339992 88.7680013,17.5080014 88.512,17.22 C88.2559987,16.9319986 88.0660006,16.590002 87.942,16.194 C87.8179994,15.797998 87.756,15.3640024 87.756,14.892 Z M92.04,14.28 C92.048,13.7759975 91.9220013,13.3620016 91.662,13.038 C91.4019987,12.7139984 91.0440023,12.552 90.588,12.552 C90.3319987,12.552 90.106001,12.6019995 89.91,12.702 C89.713999,12.8020005 89.5480007,12.9319992 89.412,13.092 C89.2759993,13.2520008 89.1700004,13.435999 89.094,13.644 C89.0179996,13.852001 88.9680001,14.0639989 88.944,14.28 L92.04,14.28 Z M97.116,11.628 C97.2120005,11.628 97.3219994,11.6339999 97.446,11.646 C97.5700006,11.6580001 97.6919994,11.6739999 97.812,11.694 C97.9320006,11.7140001 98.0419995,11.7339999 98.142,11.754 C98.2420005,11.7740001 98.3159998,11.7919999 98.364,11.808 L98.172,12.78 C98.0839996,12.7479998 97.938001,12.7100002 97.734,12.666 C97.529999,12.6219998 97.2680016,12.6 96.948,12.6 C96.739999,12.6 96.534001,12.6219998 96.33,12.666 C96.125999,12.7100002 95.9920003,12.7399999 95.928,12.756 L95.928,18 L94.812,18 L94.812,12.024 C95.0760013,11.9279995 95.403998,11.8380004 95.796,11.754 C96.188002,11.6699996 96.6279976,11.628 97.116,11.628 Z M99.096,14.892 C99.096,14.3399972 99.1759992,13.8580021 99.336,13.446 C99.4960008,13.0339979 99.7079987,12.6920014 99.972,12.42 C100.236001,12.1479986 100.539998,11.9440007 100.884,11.808 C101.228002,11.6719993 101.579998,11.604 101.94,11.604 C102.780004,11.604 103.423998,11.8659974 103.872,12.39 C104.320002,12.9140026 104.544,13.7119946 104.544,14.784 L104.544,14.97 C104.544,15.0460004 104.54,15.1159997 104.532,15.18 L100.26,15.18 C100.308,15.8280032 100.495998,16.3199983 100.824,16.656 C101.152002,16.9920017 101.663997,17.16 102.36,17.16 C102.752002,17.16 103.081999,17.1260003 103.35,17.058 C103.618001,16.9899997 103.819999,16.9240003 103.956,16.86 L104.112,17.796 C103.975999,17.8680004 103.738002,17.9439996 103.398,18.024 C103.057998,18.1040004 102.672002,18.144 102.24,18.144 C101.695997,18.144 101.226002,18.0620008 100.83,17.898 C100.433998,17.7339992 100.108001,17.5080014 99.852,17.22 C99.5959987,16.9319986 99.4060006,16.590002 99.282,16.194 C99.1579994,15.797998 99.096,15.3640024 99.096,14.892 Z M103.38,14.28 C103.388,13.7759975 103.262001,13.3620016 103.002,13.038 C102.741999,12.7139984 102.384002,12.552 101.928,12.552 C101.671999,12.552 101.446001,12.6019995 101.25,12.702 C101.053999,12.8020005 100.888001,12.9319992 100.752,13.092 C100.615999,13.2520008 100.51,13.435999 100.434,13.644 C100.358,13.852001 100.308,14.0639989 100.284,14.28 L103.38,14.28 Z M106.152,11.94 C106.408001,11.8759997 106.747998,11.8080004 107.172,11.736 C107.596002,11.6639996 108.083997,11.628 108.636,11.628 C109.132002,11.628 109.543998,11.6979993 109.872,11.838 C110.200002,11.9780007 110.461999,12.1739987 110.658,12.426 C110.854001,12.6780013 110.992,12.9799982 111.072,13.332 C111.152,13.6840018 111.192,14.0719979 111.192,14.496 L111.192,18 L110.076,18 L110.076,14.736 C110.076,14.3519981 110.05,14.0240014 109.998,13.752 C109.946,13.4799986 109.860001,13.2600008 109.74,13.092 C109.619999,12.9239992 109.460001,12.8020004 109.26,12.726 C109.059999,12.6499996 108.812001,12.612 108.516,12.612 C108.395999,12.612 108.272001,12.616 108.144,12.624 C108.015999,12.632 107.894001,12.6419999 107.778,12.654 C107.661999,12.6660001 107.558,12.6799999 107.466,12.696 C107.374,12.7120001 107.308,12.724 107.268,12.732 L107.268,18 L106.152,18 L106.152,11.94 Z M120.684,11.76 C120.371998,12.9280058 120.006002,14.0479946 119.586,15.12 C119.165998,16.1920054 118.760002,17.1519958 118.368,18 L117.36,18 C116.967998,17.1519958 116.562002,16.1920054 116.142,15.12 C115.721998,14.0479946 115.356002,12.9280058 115.044,11.76 L116.244,11.76 C116.34,12.152002 116.453999,12.5699978 116.586,13.014 C116.718001,13.4580022 116.857999,13.8979978 117.006,14.334 C117.154001,14.7700022 117.303999,15.191998 117.456,15.6 C117.608001,16.008002 117.751999,16.3719984 117.888,16.692 C118.024001,16.3719984 118.167999,16.008002 118.32,15.6 C118.472001,15.191998 118.621999,14.7700022 118.77,14.334 C118.918001,13.8979978 119.057999,13.4580022 119.19,13.014 C119.322001,12.5699978 119.436,12.152002 119.532,11.76 L120.684,11.76 Z M127.176,14.88 C127.176,15.3760025 127.104001,15.823998 126.96,16.224 C126.815999,16.624002 126.614001,16.9679986 126.354,17.256 C126.093999,17.5440014 125.784002,17.7659992 125.424,17.922 C125.063998,18.0780008 124.672002,18.156 124.248,18.156 C123.823998,18.156 123.432002,18.0780008 123.072,17.922 C122.711998,17.7659992 122.402001,17.5440014 122.142,17.256 C121.881999,16.9679986 121.680001,16.624002 121.536,16.224 C121.391999,15.823998 121.32,15.3760025 121.32,14.88 C121.32,14.3919976 121.391999,13.946002 121.536,13.542 C121.680001,13.137998 121.881999,12.7920014 122.142,12.504 C122.402001,12.2159986 122.711998,11.9940008 123.072,11.838 C123.432002,11.6819992 123.823998,11.604 124.248,11.604 C124.672002,11.604 125.063998,11.6819992 125.424,11.838 C125.784002,11.9940008 126.093999,12.2159986 126.354,12.504 C126.614001,12.7920014 126.815999,13.137998 126.96,13.542 C127.104001,13.946002 127.176,14.3919976 127.176,14.88 Z M126.012,14.88 C126.012,14.1759965 125.854002,13.6180021 125.538,13.206 C125.221998,12.7939979 124.792003,12.588 124.248,12.588 C123.703997,12.588 123.274002,12.7939979 122.958,13.206 C122.641998,13.6180021 122.484,14.1759965 122.484,14.88 C122.484,15.5840035 122.641998,16.1419979 122.958,16.554 C123.274002,16.9660021 123.703997,17.172 124.248,17.172 C124.792003,17.172 125.221998,16.9660021 125.538,16.554 C125.854002,16.1419979 126.012,15.5840035 126.012,14.88 Z M128.748,11.94 C129.004001,11.8759997 129.341998,11.8080004 129.762,11.736 C130.182002,11.6639996 130.667997,11.628 131.22,11.628 C131.620002,11.628 131.955999,11.6819995 132.228,11.79 C132.500001,11.8980005 132.727999,12.055999 132.912,12.264 C132.968,12.2239998 133.055999,12.1680004 133.176,12.096 C133.296001,12.0239996 133.443999,11.9540003 133.62,11.886 C133.796001,11.8179997 133.991999,11.7580003 134.208,11.706 C134.424001,11.6539997 134.655999,11.628 134.904,11.628 C135.384002,11.628 135.775998,11.6979993 136.08,11.838 C136.384002,11.9780007 136.621999,12.1759987 136.794,12.432 C136.966001,12.6880013 137.082,12.9919982 137.142,13.344 C137.202,13.6960018 137.232,14.0799979 137.232,14.496 L137.232,18 L136.116,18 L136.116,14.736 C136.116,14.3679982 136.098,14.0520013 136.062,13.788 C136.026,13.5239987 135.958001,13.3040009 135.858,13.128 C135.758,12.9519991 135.622001,12.8220004 135.45,12.738 C135.277999,12.6539996 135.056001,12.612 134.784,12.612 C134.407998,12.612 134.098001,12.6619995 133.854,12.762 C133.609999,12.8620005 133.444,12.9519996 133.356,13.032 C133.42,13.240001 133.468,13.4679988 133.5,13.716 C133.532,13.9640012 133.548,14.2239986 133.548,14.496 L133.548,18 L132.432,18 L132.432,14.736 C132.432,14.3679982 132.412,14.0520013 132.372,13.788 C132.332,13.5239987 132.262001,13.3040009 132.162,13.128 C132.062,12.9519991 131.926001,12.8220004 131.754,12.738 C131.581999,12.6539996 131.364001,12.612 131.1,12.612 C130.987999,12.612 130.868001,12.616 130.74,12.624 C130.611999,12.632 130.490001,12.6419999 130.374,12.654 C130.257999,12.6660001 130.152,12.6799999 130.056,12.696 C129.96,12.7120001 129.896,12.724 129.864,12.732 L129.864,18 L128.748,18 L128.748,11.94 Z" id="Installieren-vom" fill="#111111"></path>
                <path d="M56.928,39.344 C59.3600122,39.344 60.576,38.5120083 60.576,36.848 C60.576,36.3359974 60.4680011,35.9000018 60.252,35.54 C60.0359989,35.1799982 59.7440018,34.8680013 59.376,34.604 C59.0079982,34.3399987 58.5880024,34.112001 58.116,33.92 C57.6439976,33.727999 57.1440026,33.536001 56.616,33.344 C56.007997,33.135999 55.4320027,32.9000013 54.888,32.636 C54.3439973,32.3719987 53.872002,32.0600018 53.472,31.7 C53.071998,31.3399982 52.7560012,30.9120025 52.524,30.416 C52.2919988,29.9199975 52.176,29.3200035 52.176,28.616 C52.176,27.1599927 52.671995,26.0240041 53.664,25.208 C54.656005,24.3919959 56.0239913,23.984 57.768,23.984 C58.776005,23.984 59.6919959,24.0919989 60.516,24.308 C61.3400041,24.5240011 61.9439981,24.7599987 62.328,25.016 L61.584,26.912 C61.2479983,26.703999 60.7480033,26.500001 60.084,26.3 C59.4199967,26.099999 58.6480044,26 57.768,26 C57.3199978,26 56.9040019,26.0479995 56.52,26.144 C56.1359981,26.2400005 55.8000014,26.383999 55.512,26.576 C55.2239986,26.768001 54.9960008,27.0119985 54.828,27.308 C54.6599992,27.6040015 54.576,27.951998 54.576,28.352 C54.576,28.8000022 54.6639991,29.1759985 54.84,29.48 C55.0160009,29.7840015 55.2639984,30.0519988 55.584,30.284 C55.9040016,30.5160012 56.2759979,30.727999 56.7,30.92 C57.1240021,31.112001 57.5919974,31.303999 58.104,31.496 C58.8240036,31.7840014 59.483997,32.0719986 60.084,32.36 C60.684003,32.6480014 61.2039978,32.991998 61.644,33.392 C62.0840022,33.792002 62.4239988,34.2679972 62.664,34.82 C62.9040012,35.3720028 63.024,36.0399961 63.024,36.824 C63.024,38.2800073 62.4920053,39.3999961 61.428,40.184 C60.3639947,40.9680039 58.8640097,41.36 56.928,41.36 C56.2719967,41.36 55.6680028,41.3160004 55.116,41.228 C54.5639972,41.1399996 54.0720022,41.0360006 53.64,40.916 C53.2079978,40.7959994 52.8360016,40.6680007 52.524,40.532 C52.2119984,40.3959993 51.9680009,40.2800005 51.792,40.184 L52.488,38.264 C52.8560018,38.472001 53.4159962,38.7039987 54.168,38.96 C54.9200038,39.2160013 55.8399946,39.344 56.928,39.344 Z M65.688,28.88 C66.2000026,28.7519994 66.8799958,28.6160007 67.728,28.472 C68.5760042,28.3279993 69.5519945,28.256 70.656,28.256 C71.648005,28.256 72.4719967,28.3959986 73.128,28.676 C73.7840033,28.9560014 74.307998,29.3479975 74.7,29.852 C75.092002,30.3560025 75.3679992,30.9599965 75.528,31.664 C75.6880008,32.3680035 75.768,33.1439958 75.768,33.992 L75.768,41 L73.536,41 L73.536,34.472 C73.536,33.7039962 73.4840005,33.0480027 73.38,32.504 C73.2759995,31.9599973 73.1040012,31.5200017 72.864,31.184 C72.6239988,30.8479983 72.304002,30.6040008 71.904,30.452 C71.503998,30.2999992 71.008003,30.224 70.416,30.224 C70.1759988,30.224 69.9280013,30.2319999 69.672,30.248 C69.4159987,30.2640001 69.1720012,30.2839999 68.94,30.308 C68.7079988,30.3320001 68.5000009,30.3599998 68.316,30.392 C68.1319991,30.4240002 68.0000004,30.4479999 67.92,30.464 L67.92,41 L65.688,41 L65.688,28.88 Z M83.688,39.392 C84.2160026,39.392 84.683998,39.3800001 85.092,39.356 C85.500002,39.3319999 85.8399986,39.2880003 86.112,39.224 L86.112,35.504 C85.9519992,35.4239996 85.6920018,35.3560003 85.332,35.3 C84.9719982,35.2439997 84.5360026,35.216 84.024,35.216 C83.6879983,35.216 83.3320019,35.2399998 82.956,35.288 C82.5799981,35.3360002 82.2360016,35.4359992 81.924,35.588 C81.6119984,35.7400008 81.352001,35.9479987 81.144,36.212 C80.935999,36.4760013 80.832,36.8239978 80.832,37.256 C80.832,38.056004 81.0879974,38.6119984 81.6,38.924 C82.1120026,39.2360016 82.8079956,39.392 83.688,39.392 Z M83.496,28.208 C84.3920045,28.208 85.1479969,28.3239988 85.764,28.556 C86.3800031,28.7880012 86.8759981,29.1159979 87.252,29.54 C87.6280019,29.9640021 87.8959992,30.4679971 88.056,31.052 C88.2160008,31.6360029 88.296,32.2799965 88.296,32.984 L88.296,40.784 C88.103999,40.8160002 87.8360017,40.8599997 87.492,40.916 C87.1479983,40.9720003 86.7600022,41.0239998 86.328,41.072 C85.8959978,41.1200002 85.4280025,41.1639998 84.924,41.204 C84.4199975,41.2440002 83.9200025,41.264 83.424,41.264 C82.7199965,41.264 82.072003,41.1920007 81.48,41.048 C80.887997,40.9039993 80.3760022,40.6760016 79.944,40.364 C79.5119978,40.0519984 79.1760012,39.6400026 78.936,39.128 C78.6959988,38.6159974 78.576,38.0000036 78.576,37.28 C78.576,36.5919966 78.7159986,36.0000025 78.996,35.504 C79.2760014,35.0079975 79.6559976,34.6080015 80.136,34.304 C80.6160024,33.9999985 81.1759968,33.7760007 81.816,33.632 C82.4560032,33.4879993 83.1279965,33.416 83.832,33.416 C84.0560011,33.416 84.2879988,33.4279999 84.528,33.452 C84.7680012,33.4760001 84.9959989,33.5079998 85.212,33.548 C85.4280011,33.5880002 85.6159992,33.6239998 85.776,33.656 C85.9360008,33.6880002 86.0479997,33.7119999 86.112,33.728 L86.112,33.104 C86.112,32.7359982 86.0720004,32.3720018 85.992,32.012 C85.9119996,31.6519982 85.768001,31.3320014 85.56,31.052 C85.351999,30.7719986 85.0680018,30.5480008 84.708,30.38 C84.3479982,30.2119992 83.8800029,30.128 83.304,30.128 C82.5679963,30.128 81.9240028,30.1799995 81.372,30.284 C80.8199972,30.3880005 80.4080014,30.4959994 80.136,30.608 L79.872,28.76 C80.1600014,28.6319994 80.6399966,28.5080006 81.312,28.388 C81.9840034,28.2679994 82.7119961,28.208 83.496,28.208 Z M100.656,34.784 C100.656,33.3279927 100.296004,32.2080039 99.576,31.424 C98.8559964,30.6399961 97.896006,30.248 96.696,30.248 C96.0239966,30.248 95.5000019,30.2719998 95.124,30.32 C94.7479981,30.3680002 94.4480011,30.4239997 94.224,30.488 L94.224,38.36 C94.4960014,38.5840011 94.8879974,38.799999 95.4,39.008 C95.9120026,39.216001 96.471997,39.32 97.08,39.32 C97.7200032,39.32 98.2679977,39.2040012 98.724,38.972 C99.1800023,38.7399988 99.5519986,38.420002 99.84,38.012 C100.128001,37.603998 100.335999,37.1240028 100.464,36.572 C100.592001,36.0199972 100.656,35.4240032 100.656,34.784 Z M102.984,34.784 C102.984,35.7280047 102.860001,36.599996 102.612,37.4 C102.363999,38.200004 102.000002,38.8879971 101.52,39.464 C101.039998,40.0400029 100.452003,40.4879984 99.756,40.808 C99.0599965,41.1280016 98.2640045,41.288 97.368,41.288 C96.6479964,41.288 96.0120028,41.192001 95.46,41 C94.9079972,40.807999 94.4960014,40.6240009 94.224,40.448 L94.224,45.44 L91.992,45.44 L91.992,28.904 C92.5200026,28.7759994 93.179996,28.6360008 93.972,28.484 C94.764004,28.3319992 95.6799948,28.256 96.72,28.256 C97.6800048,28.256 98.5439962,28.4079985 99.312,28.712 C100.080004,29.0160015 100.735997,29.4479972 101.28,30.008 C101.824003,30.5680028 102.243999,31.251996 102.54,32.06 C102.836001,32.868004 102.984,33.775995 102.984,34.784 Z M115.68,39.344 C118.112012,39.344 119.328,38.5120083 119.328,36.848 C119.328,36.3359974 119.220001,35.9000018 119.004,35.54 C118.787999,35.1799982 118.496002,34.8680013 118.128,34.604 C117.759998,34.3399987 117.340002,34.112001 116.868,33.92 C116.395998,33.727999 115.896003,33.536001 115.368,33.344 C114.759997,33.135999 114.184003,32.9000013 113.64,32.636 C113.095997,32.3719987 112.624002,32.0600018 112.224,31.7 C111.823998,31.3399982 111.508001,30.9120025 111.276,30.416 C111.043999,29.9199975 110.928,29.3200035 110.928,28.616 C110.928,27.1599927 111.423995,26.0240041 112.416,25.208 C113.408005,24.3919959 114.775991,23.984 116.52,23.984 C117.528005,23.984 118.443996,24.0919989 119.268,24.308 C120.092004,24.5240011 120.695998,24.7599987 121.08,25.016 L120.336,26.912 C119.999998,26.703999 119.500003,26.500001 118.836,26.3 C118.171997,26.099999 117.400004,26 116.52,26 C116.071998,26 115.656002,26.0479995 115.272,26.144 C114.887998,26.2400005 114.552001,26.383999 114.264,26.576 C113.975999,26.768001 113.748001,27.0119985 113.58,27.308 C113.411999,27.6040015 113.328,27.951998 113.328,28.352 C113.328,28.8000022 113.415999,29.1759985 113.592,29.48 C113.768001,29.7840015 114.015998,30.0519988 114.336,30.284 C114.656002,30.5160012 115.027998,30.727999 115.452,30.92 C115.876002,31.112001 116.343997,31.303999 116.856,31.496 C117.576004,31.7840014 118.235997,32.0719986 118.836,32.36 C119.436003,32.6480014 119.955998,32.991998 120.396,33.392 C120.836002,33.792002 121.175999,34.2679972 121.416,34.82 C121.656001,35.3720028 121.776,36.0399961 121.776,36.824 C121.776,38.2800073 121.244005,39.3999961 120.18,40.184 C119.115995,40.9680039 117.61601,41.36 115.68,41.36 C115.023997,41.36 114.420003,41.3160004 113.868,41.228 C113.315997,41.1399996 112.824002,41.0360006 112.392,40.916 C111.959998,40.7959994 111.588002,40.6680007 111.276,40.532 C110.963998,40.3959993 110.720001,40.2800005 110.544,40.184 L111.24,38.264 C111.608002,38.472001 112.167996,38.7039987 112.92,38.96 C113.672004,39.2160013 114.591995,39.344 115.68,39.344 Z M126.528,28.52 L131.256,28.52 L131.256,30.392 L126.528,30.392 L126.528,36.152 C126.528,36.7760031 126.576,37.291998 126.672,37.7 C126.768,38.108002 126.911999,38.4279988 127.104,38.66 C127.296001,38.8920012 127.535999,39.0559995 127.824,39.152 C128.112001,39.2480005 128.447998,39.296 128.832,39.296 C129.504003,39.296 130.043998,39.2200008 130.452,39.068 C130.860002,38.9159992 131.143999,38.8080003 131.304,38.744 L131.736,40.592 C131.511999,40.7040006 131.120003,40.8439992 130.56,41.012 C129.999997,41.1800008 129.360004,41.264 128.64,41.264 C127.791996,41.264 127.092003,41.1560011 126.54,40.94 C125.987997,40.7239989 125.544002,40.4000022 125.208,39.968 C124.871998,39.5359978 124.636001,39.0040032 124.5,38.372 C124.363999,37.7399968 124.296,37.0080042 124.296,36.176 L124.296,25.04 L126.528,24.656 L126.528,28.52 Z M144.768,34.76 C144.768,35.752005 144.624001,36.647996 144.336,37.448 C144.047999,38.248004 143.644003,38.9359971 143.124,39.512 C142.603997,40.0880029 141.984004,40.5319984 141.264,40.844 C140.543996,41.1560016 139.760004,41.312 138.912,41.312 C138.063996,41.312 137.280004,41.1560016 136.56,40.844 C135.839996,40.5319984 135.220003,40.0880029 134.7,39.512 C134.179997,38.9359971 133.776001,38.248004 133.488,37.448 C133.199999,36.647996 133.056,35.752005 133.056,34.76 C133.056,33.7839951 133.199999,32.892004 133.488,32.084 C133.776001,31.275996 134.179997,30.5840029 134.7,30.008 C135.220003,29.4319971 135.839996,28.9880016 136.56,28.676 C137.280004,28.3639984 138.063996,28.208 138.912,28.208 C139.760004,28.208 140.543996,28.3639984 141.264,28.676 C141.984004,28.9880016 142.603997,29.4319971 143.124,30.008 C143.644003,30.5840029 144.047999,31.275996 144.336,32.084 C144.624001,32.892004 144.768,33.7839951 144.768,34.76 Z M142.44,34.76 C142.44,33.351993 142.124003,32.2360041 141.492,31.412 C140.859997,30.5879959 140.000005,30.176 138.912,30.176 C137.823995,30.176 136.964003,30.5879959 136.332,31.412 C135.699997,32.2360041 135.384,33.351993 135.384,34.76 C135.384,36.168007 135.699997,37.2839959 136.332,38.108 C136.964003,38.9320041 137.823995,39.344 138.912,39.344 C140.000005,39.344 140.859997,38.9320041 141.492,38.108 C142.124003,37.2839959 142.44,36.168007 142.44,34.76 Z M152.52,28.256 C152.712001,28.256 152.931999,28.2679999 153.18,28.292 C153.428001,28.3160001 153.671999,28.3479998 153.912,28.388 C154.152001,28.4280002 154.371999,28.4679998 154.572,28.508 C154.772001,28.5480002 154.92,28.5839998 155.016,28.616 L154.632,30.56 C154.455999,30.4959997 154.164002,30.4200004 153.756,30.332 C153.347998,30.2439996 152.824003,30.2 152.184,30.2 C151.767998,30.2 151.356002,30.2439996 150.948,30.332 C150.539998,30.4200004 150.272001,30.4799998 150.144,30.512 L150.144,41 L147.912,41 L147.912,29.048 C148.440003,28.855999 149.095996,28.6760008 149.88,28.508 C150.664004,28.3399992 151.543995,28.256 152.52,28.256 Z M156.48,34.784 C156.48,33.6799945 156.639998,32.7160041 156.96,31.892 C157.280002,31.0679959 157.703997,30.3840027 158.232,29.84 C158.760003,29.2959973 159.367997,28.8880014 160.056,28.616 C160.744003,28.3439986 161.447996,28.208 162.168,28.208 C163.848008,28.208 165.135996,28.7319948 166.032,29.78 C166.928004,30.8280052 167.376,32.4239893 167.376,34.568 L167.376,34.94 C167.376,35.0920008 167.368,35.2319994 167.352,35.36 L158.808,35.36 C158.904,36.6560065 159.279997,37.6399966 159.936,38.312 C160.592003,38.9840034 161.615993,39.32 163.008,39.32 C163.792004,39.32 164.451997,39.2520007 164.988,39.116 C165.524003,38.9799993 165.927999,38.8480006 166.2,38.72 L166.512,40.592 C166.239999,40.7360007 165.764003,40.8879992 165.084,41.048 C164.403997,41.2080008 163.632004,41.288 162.768,41.288 C161.679995,41.288 160.740004,41.1240016 159.948,40.796 C159.155996,40.4679984 158.504003,40.0160029 157.992,39.44 C157.479997,38.8639971 157.100001,38.180004 156.852,37.388 C156.603999,36.595996 156.48,35.7280047 156.48,34.784 Z M165.048,33.56 C165.064,32.551995 164.812003,31.7240032 164.292,31.076 C163.771997,30.4279968 163.056005,30.104 162.144,30.104 C161.631997,30.104 161.180002,30.203999 160.788,30.404 C160.395998,30.604001 160.064001,30.8639984 159.792,31.184 C159.519999,31.5040016 159.308001,31.8719979 159.156,32.288 C159.003999,32.7040021 158.904,33.1279978 158.856,33.56 L165.048,33.56 Z" id="Snap-Store" fill="#111111"></path>
            </g>
        </g>
    </g>
</svg>