<svg xmlns="http://www.w3.org/2000/svg" id="Layer_1" x="0" y="0" version="1.1" viewBox="0 0 182 56" style="enable-background:new 0 0 182 56" xml:space="preserve"><style id="style2" type="text/css">.st0{fill-rule:evenodd;clip-rule:evenodd;fill:#252525;stroke:#CDCDCD;} .st1{fill:#82BEA0;} .st2{fill:#FA6441;} .st3{fill:#FFFFFF;} .st4{font-family:&apos;PingFangSC-Regular-GBpc-EUC-H&apos;;} .st5{font-size:12px;} .st6{font-family:&apos;Ubuntu&apos;;} .st7{font-size:24px;}</style><path style="fill:#ffffff" id="Rectangle-path" d="M2 0h178c1.1 0 2 .9 2 2v52c0 1.1-.9 2-2 2H2c-1.1 0-2-.9-2-2V2C0 .9.9 0 2 0z" class="st0"/><g id="logo" transform="translate(8 11)"><path id="body" d="M19 17.8V7.3l7.2 3.2zM5.2 31.6L14.1 15l3.9 3.9zM.2.2l18.2 6.6v11.6z" class="st1"/><polygon id="head" points="32.9,12.9 29.9,6.8 19.4,6.8" class="st2"/></g><text style="fill:#000000" id="text12" x="50" y="44" class="st3 st4 st5">থেকে ইনস্টল করুন</text><text style="fill:#000000" id="text14" x="50" y="27" class="st3 st6 st7">Snap Store</text></svg>