<?xml version="1.0" encoding="UTF-8" standalone="no"?>
<svg
   xmlns:dc="http://purl.org/dc/elements/1.1/"
   xmlns:cc="http://creativecommons.org/ns#"
   xmlns:rdf="http://www.w3.org/1999/02/22-rdf-syntax-ns#"
   xmlns:svg="http://www.w3.org/2000/svg"
   xmlns="http://www.w3.org/2000/svg"
   xmlns:sodipodi="http://sodipodi.sourceforge.net/DTD/sodipodi-0.dtd"
   xmlns:inkscape="http://www.inkscape.org/namespaces/inkscape"
   inkscape:export-ydpi="192"
   inkscape:export-xdpi="192"
   inkscape:export-filename="/home/tanmoy/Downloads/snap-store-badges-master/BN/[JP]-snap-store-black-uneditable@2x.png"
   width="182px"
   height="56px"
   viewBox="0 0 182 56"
   version="1.1"
   id="svg13"
   sodipodi:docname="[JP]-snap-store-black-uneditable.svg"
   inkscape:version="1.0 (6e3e5246a0, 2020-05-07)">
  <metadata
     id="metadata19">
    <rdf:RDF>
      <cc:Work
         rdf:about="">
        <dc:format>image/svg+xml</dc:format>
        <dc:type
           rdf:resource="http://purl.org/dc/dcmitype/StillImage" />
        <dc:title>[JP]-snap-store-black-uneditable</dc:title>
      </cc:Work>
    </rdf:RDF>
  </metadata>
  <defs
     id="defs17" />
  <sodipodi:namedview
     inkscape:document-rotation="0"
     pagecolor="#ffffff"
     bordercolor="#666666"
     borderopacity="1"
     objecttolerance="10"
     gridtolerance="10"
     guidetolerance="10"
     inkscape:pageopacity="0"
     inkscape:pageshadow="2"
     inkscape:window-width="1366"
     inkscape:window-height="741"
     id="namedview15"
     showgrid="false"
     inkscape:zoom="2.3019823"
     inkscape:cx="102.92162"
     inkscape:cy="67.833751"
     inkscape:window-x="0"
     inkscape:window-y="27"
     inkscape:window-maximized="1"
     inkscape:current-layer="svg13" />
  <!-- Generator: Sketch 52.3 (67297) - http://www.bohemiancoding.com/sketch -->
  <title
     id="title2">[JP]-snap-store-black-uneditable</title>
  <desc
     id="desc4">Created with Sketch.</desc>
  <style
     id="style844"
     type="text/css">
	.st0{fill-rule:evenodd;clip-rule:evenodd;fill:#252525;stroke:#CDCDCD;}
	.st1{fill:#82BEA0;}
	.st2{fill:#FA6441;}
	.st3{fill:#FFFFFF;}
	.st4{font-family:'PingFangSC-Regular-GBpc-EUC-H';}
	.st5{font-size:12px;}
	.st6{font-family:'Ubuntu';}
	.st7{font-size:24px;}
</style>
  <rect
     style="fill:#252525;fill-rule:evenodd;stroke-width:1;fill-opacity:1"
     rx="2"
     height="56"
     width="182"
     y="0"
     x="0"
     fill="#252525"
     stroke="#cdcdcd"
     id="Rectangle-path" />
  <g
     style="fill:none;stroke:none;stroke-width:1"
     fill-rule="nonzero"
     transform="translate(8,11)"
     id="logo">
    <path
       fill="#82bea0"
       id="body"
       d="M 18.987517,17.801714 V 7.3308571 l 7.217897,3.2217139 z M 5.2077414,31.641143 14.058569,14.974286 17.942328,18.852 Z M 0.16018086,0.23326286 18.37531,6.8457143 V 18.417143 Z" />
    <polygon
       points="32.893603,12.865714 29.896862,6.8451429 19.405707,6.8451429 "
       fill="#fa6441"
       id="head" />
  </g>
  <path
     style="fill:#ffffff;fill-rule:evenodd;stroke:none;stroke-width:1"
     fill="#ffffff"
     id="Snap-Store"
     d="m 55.928,25.344 c 2.432012,0 3.648,-0.831992 3.648,-2.496 0,-0.512003 -0.107999,-0.947998 -0.324,-1.308 -0.216001,-0.360002 -0.507998,-0.671999 -0.876,-0.936 -0.368002,-0.264001 -0.787998,-0.491999 -1.26,-0.684 -0.472002,-0.192001 -0.971997,-0.383999 -1.5,-0.576 -0.608003,-0.208001 -1.183997,-0.443999 -1.728,-0.708 -0.544003,-0.264001 -1.015998,-0.575998 -1.416,-0.936 -0.400002,-0.360002 -0.715999,-0.787998 -0.948,-1.284 -0.232001,-0.496003 -0.348,-1.095996 -0.348,-1.8 0,-1.456007 0.495995,-2.591996 1.488,-3.408 0.992005,-0.816004 2.359991,-1.224 4.104,-1.224 1.008005,0 1.923996,0.107999 2.748,0.324 0.824004,0.216001 1.427998,0.451999 1.812,0.708 l -0.744,1.896 C 60.247998,12.703999 59.748003,12.500001 59.084,12.3 58.419997,12.099999 57.648004,12 56.768,12 c -0.448002,0 -0.863998,0.048 -1.248,0.144 -0.384002,0.096 -0.719999,0.239999 -1.008,0.432 -0.288001,0.192001 -0.515999,0.435999 -0.684,0.732 -0.168001,0.296002 -0.252,0.643998 -0.252,1.044 0,0.448002 0.088,0.823999 0.264,1.128 0.176001,0.304002 0.423998,0.571999 0.744,0.804 0.320002,0.232001 0.691998,0.443999 1.116,0.636 0.424002,0.192001 0.891997,0.383999 1.404,0.576 0.720004,0.288001 1.379997,0.575999 1.98,0.864 0.600003,0.288001 1.119998,0.631998 1.56,1.032 0.440002,0.400002 0.779999,0.875997 1.02,1.428 0.240001,0.552003 0.36,1.219996 0.36,2.004 0,1.456007 -0.531995,2.575996 -1.596,3.36 -1.064005,0.784004 -2.56399,1.176 -4.5,1.176 -0.656003,0 -1.259997,-0.044 -1.812,-0.132 C 53.563997,27.14 53.072002,27.036001 52.64,26.916 52.207998,26.795999 51.836002,26.668001 51.524,26.532 51.211998,26.395999 50.968001,26.28 50.792,26.184 l 0.696,-1.92 c 0.368002,0.208001 0.927996,0.439999 1.68,0.696 0.752004,0.256001 1.671995,0.384 2.76,0.384 z m 8.76,-10.464 c 0.512003,-0.128001 1.191996,-0.263999 2.04,-0.408 0.848004,-0.144001 1.823995,-0.216 2.928,-0.216 0.992005,0 1.815997,0.139999 2.472,0.42 0.656003,0.280001 1.179998,0.671998 1.572,1.176 0.392002,0.504002 0.667999,1.107996 0.828,1.812 0.160001,0.704003 0.24,1.479996 0.24,2.328 V 27 h -2.232 v -6.528 c 0,-0.768004 -0.052,-1.423997 -0.156,-1.968 -0.104001,-0.544003 -0.275999,-0.983998 -0.516,-1.32 -0.240001,-0.336002 -0.559998,-0.579999 -0.96,-0.732 -0.400002,-0.152001 -0.895997,-0.228 -1.488,-0.228 -0.240001,0 -0.487999,0.008 -0.744,0.024 -0.256001,0.016 -0.499999,0.036 -0.732,0.06 -0.232001,0.024 -0.439999,0.052 -0.624,0.084 C 67.131999,16.424 67,16.448 66.92,16.464 V 27 h -2.232 z m 18,10.512 c 0.528003,0 0.995998,-0.012 1.404,-0.036 0.408002,-0.024 0.747999,-0.068 1.02,-0.132 v -3.72 c -0.160001,-0.08 -0.419998,-0.148 -0.78,-0.204 -0.360002,-0.056 -0.795997,-0.084 -1.308,-0.084 -0.336002,0 -0.691998,0.024 -1.068,0.072 -0.376002,0.048 -0.719998,0.147999 -1.032,0.3 -0.312002,0.152001 -0.571999,0.359999 -0.78,0.624 -0.208001,0.264001 -0.312,0.611998 -0.312,1.044 0,0.800004 0.255997,1.355998 0.768,1.668 0.512003,0.312002 1.207996,0.468 2.088,0.468 z M 82.496,14.208 c 0.896004,0 1.651997,0.115999 2.268,0.348 0.616003,0.232001 1.111998,0.559998 1.488,0.984 0.376002,0.424002 0.643999,0.927997 0.804,1.512 0.160001,0.584003 0.24,1.227996 0.24,1.932 v 7.8 c -0.192001,0.032 -0.459998,0.076 -0.804,0.132 -0.344002,0.056 -0.731998,0.108 -1.164,0.156 -0.432002,0.048 -0.899997,0.092 -1.404,0.132 -0.504003,0.04 -1.003998,0.06 -1.5,0.06 -0.704004,0 -1.351997,-0.072 -1.944,-0.216 -0.592003,-0.144001 -1.103998,-0.371998 -1.536,-0.684 -0.432002,-0.312002 -0.767999,-0.723997 -1.008,-1.236 -0.240001,-0.512003 -0.36,-1.127996 -0.36,-1.848 0,-0.688003 0.139999,-1.279998 0.42,-1.776 0.280001,-0.496003 0.659998,-0.895999 1.14,-1.2 0.480002,-0.304002 1.039997,-0.527999 1.68,-0.672 0.640003,-0.144001 1.311996,-0.216 2.016,-0.216 0.224001,0 0.455999,0.012 0.696,0.036 0.240001,0.024 0.467999,0.056 0.684,0.096 0.216001,0.04 0.403999,0.076 0.564,0.108 0.160001,0.032 0.272,0.056 0.336,0.072 v -0.624 c 0,-0.368002 -0.04,-0.731998 -0.12,-1.092 -0.08,-0.360002 -0.223999,-0.679999 -0.432,-0.96 -0.208001,-0.280001 -0.491998,-0.503999 -0.852,-0.672 -0.360002,-0.168001 -0.827997,-0.252 -1.404,-0.252 -0.736004,0 -1.379997,0.052 -1.932,0.156 -0.552003,0.104 -0.963999,0.211999 -1.236,0.324 L 78.872,14.76 c 0.288001,-0.128001 0.767997,-0.251999 1.44,-0.372 0.672003,-0.120001 1.399996,-0.18 2.184,-0.18 z m 17.16,6.576 c 0,-1.456007 -0.359996,-2.575996 -1.08,-3.36 -0.720004,-0.784004 -1.679994,-1.176 -2.88,-1.176 -0.672003,0 -1.195998,0.024 -1.572,0.072 -0.376002,0.048 -0.675999,0.104 -0.9,0.168 v 7.872 c 0.272001,0.224001 0.663997,0.439999 1.176,0.648 0.512003,0.208001 1.071997,0.312 1.68,0.312 0.640003,0 1.187998,-0.115999 1.644,-0.348 0.456002,-0.232001 0.827999,-0.551998 1.116,-0.96 0.288001,-0.408002 0.495999,-0.887997 0.624,-1.44 0.128001,-0.552003 0.192,-1.147997 0.192,-1.788 z m 2.328,0 c 0,0.944005 -0.124,1.815996 -0.372,2.616 -0.248,0.800004 -0.612,1.487997 -1.092,2.064 -0.48,0.576003 -1.067996,1.023998 -1.764,1.344 -0.696004,0.320002 -1.491996,0.48 -2.388,0.48 -0.720004,0 -1.355997,-0.096 -1.908,-0.288 -0.552003,-0.192001 -0.963999,-0.375999 -1.236,-0.552 V 31.44 H 90.992 V 14.904 c 0.528003,-0.128001 1.187996,-0.267999 1.98,-0.42 0.792004,-0.152001 1.707995,-0.228 2.748,-0.228 0.960005,0 1.823996,0.151999 2.592,0.456 0.768004,0.304002 1.423997,0.735997 1.968,1.296 0.544,0.560003 0.964,1.243996 1.26,2.052 0.296,0.808004 0.444,1.715995 0.444,2.724 z m 12.696,4.56 c 2.43201,0 3.648,-0.831992 3.648,-2.496 0,-0.512003 -0.108,-0.947998 -0.324,-1.308 -0.216,-0.360002 -0.508,-0.671999 -0.876,-0.936 -0.368,-0.264001 -0.788,-0.491999 -1.26,-0.684 -0.472,-0.192001 -0.972,-0.383999 -1.5,-0.576 -0.608,-0.208001 -1.184,-0.443999 -1.728,-0.708 -0.544,-0.264001 -1.016,-0.575998 -1.416,-0.936 -0.4,-0.360002 -0.716,-0.787998 -0.948,-1.284 -0.232,-0.496003 -0.348,-1.095996 -0.348,-1.8 0,-1.456007 0.496,-2.591996 1.488,-3.408 0.99201,-0.816004 2.35999,-1.224 4.104,-1.224 1.008,0 1.924,0.107999 2.748,0.324 0.824,0.216001 1.428,0.451999 1.812,0.708 l -0.744,1.896 C 119,12.703999 118.5,12.500001 117.836,12.3 117.172,12.099999 116.4,12 115.52,12 c -0.448,0 -0.864,0.048 -1.248,0.144 -0.384,0.096 -0.72,0.239999 -1.008,0.432 -0.288,0.192001 -0.516,0.435999 -0.684,0.732 -0.168,0.296002 -0.252,0.643998 -0.252,1.044 0,0.448002 0.088,0.823999 0.264,1.128 0.176,0.304002 0.424,0.571999 0.744,0.804 0.32,0.232001 0.692,0.443999 1.116,0.636 0.424,0.192001 0.892,0.383999 1.404,0.576 0.72,0.288001 1.38,0.575999 1.98,0.864 0.6,0.288001 1.12,0.631998 1.56,1.032 0.44,0.400002 0.78,0.875997 1.02,1.428 0.24,0.552003 0.36,1.219996 0.36,2.004 0,1.456007 -0.53199,2.575996 -1.596,3.36 -1.06401,0.784004 -2.56399,1.176 -4.5,1.176 -0.656,0 -1.26,-0.044 -1.812,-0.132 -0.552,-0.088 -1.044,-0.191999 -1.476,-0.312 -0.432,-0.120001 -0.804,-0.247999 -1.116,-0.384 -0.312,-0.136001 -0.556,-0.252 -0.732,-0.348 l 0.696,-1.92 c 0.368,0.208001 0.928,0.439999 1.68,0.696 0.752,0.256001 1.67199,0.384 2.76,0.384 z M 125.528,14.52 h 4.728 v 1.872 h -4.728 v 5.76 c 0,0.624003 0.048,1.139998 0.144,1.548 0.096,0.408002 0.24,0.727999 0.432,0.96 0.192,0.232001 0.432,0.395999 0.72,0.492 0.288,0.096 0.624,0.144 1.008,0.144 0.672,0 1.212,-0.076 1.62,-0.228 0.408,-0.152001 0.692,-0.26 0.852,-0.324 l 0.432,1.848 c -0.224,0.112001 -0.616,0.251999 -1.176,0.42 -0.56,0.168001 -1.2,0.252 -1.92,0.252 -0.848,0 -1.548,-0.107999 -2.1,-0.324 -0.552,-0.216001 -0.996,-0.539998 -1.332,-0.972 -0.336,-0.432002 -0.572,-0.963997 -0.708,-1.596 -0.136,-0.632003 -0.204,-1.363996 -0.204,-2.196 V 11.04 l 2.232,-0.384 z m 18.24,6.24 c 0,0.992005 -0.144,1.887996 -0.432,2.688 -0.288,0.800004 -0.692,1.487997 -1.212,2.064 -0.52,0.576003 -1.14,1.019998 -1.86,1.332 -0.72,0.312002 -1.504,0.468 -2.352,0.468 -0.848,0 -1.632,-0.155998 -2.352,-0.468 -0.72,-0.312002 -1.34,-0.755997 -1.86,-1.332 -0.52,-0.576003 -0.924,-1.263996 -1.212,-2.064 -0.288,-0.800004 -0.432,-1.695995 -0.432,-2.688 0,-0.976005 0.144,-1.867996 0.432,-2.676 0.288,-0.808004 0.692,-1.499997 1.212,-2.076 0.52,-0.576003 1.14,-1.019998 1.86,-1.332 0.72,-0.312002 1.504,-0.468 2.352,-0.468 0.848,0 1.632,0.155998 2.352,0.468 0.72,0.312002 1.34,0.755997 1.86,1.332 0.52,0.576003 0.924,1.267996 1.212,2.076 0.288,0.808004 0.432,1.699995 0.432,2.676 z m -2.328,0 c 0,-1.408007 -0.316,-2.523996 -0.948,-3.348 -0.632,-0.824004 -1.492,-1.236 -2.58,-1.236 -1.08801,0 -1.948,0.411996 -2.58,1.236 -0.632,0.824004 -0.948,1.939993 -0.948,3.348 0,1.408007 0.316,2.523996 0.948,3.348 0.632,0.824004 1.49199,1.236 2.58,1.236 1.088,0 1.948,-0.411996 2.58,-1.236 0.632,-0.824004 0.948,-1.939993 0.948,-3.348 z m 10.08,-6.504 c 0.192,0 0.412,0.012 0.66,0.036 0.248,0.024 0.492,0.056 0.732,0.096 0.24,0.04 0.46,0.08 0.66,0.12 0.2,0.04 0.348,0.076 0.444,0.108 l -0.384,1.944 c -0.176,-0.064 -0.468,-0.14 -0.876,-0.228 -0.408,-0.088 -0.932,-0.132 -1.572,-0.132 -0.416,0 -0.828,0.044 -1.236,0.132 -0.408,0.088 -0.676,0.148 -0.804,0.18 V 27 h -2.232 V 15.048 c 0.528,-0.192001 1.184,-0.371999 1.968,-0.54 0.784,-0.168001 1.66399,-0.252 2.64,-0.252 z m 3.96,6.528 c 0,-1.104006 0.16,-2.067996 0.48,-2.892 0.32,-0.824004 0.744,-1.507997 1.272,-2.052 0.528,-0.544003 1.136,-0.951999 1.824,-1.224 0.688,-0.272001 1.392,-0.408 2.112,-0.408 1.68001,0 2.968,0.523995 3.864,1.572 0.896,1.048005 1.344,2.643989 1.344,4.788 v 0.372 c 0,0.152001 -0.008,0.291999 -0.024,0.42 h -8.544 c 0.096,1.296006 0.472,2.279997 1.128,2.952 0.656,0.672003 1.67999,1.008 3.072,1.008 0.784,0 1.444,-0.068 1.98,-0.204 0.536,-0.136001 0.94,-0.267999 1.212,-0.396 l 0.312,1.872 c -0.272,0.144001 -0.748,0.295999 -1.428,0.456 -0.68,0.160001 -1.452,0.24 -2.316,0.24 -1.08801,0 -2.028,-0.163998 -2.82,-0.492 -0.792,-0.328002 -1.444,-0.779997 -1.956,-1.356 -0.512,-0.576003 -0.892,-1.259996 -1.14,-2.052 -0.248,-0.792004 -0.372,-1.659995 -0.372,-2.604 z m 8.568,-1.224 c 0.016,-1.008005 -0.236,-1.835997 -0.756,-2.484 -0.52,-0.648003 -1.236,-0.972 -2.148,-0.972 -0.512,0 -0.964,0.1 -1.356,0.3 -0.392,0.200001 -0.724,0.459998 -0.996,0.78 -0.272,0.320002 -0.484,0.687998 -0.636,1.104 -0.152,0.416002 -0.252,0.839998 -0.3,1.272 z" />
  <g
     aria-label="থেকে ইনস্টল করুন"
     id="text899"
     style="font-size:12px;font-family:PingFangSC-Regular-GBpc-EUC-H;fill:#ffffff"
     class="st3 st4 st5">
    <path
       d="m 53.420135,36.572891 h -0.07617 -0.94336 l -0.392578,0.363281 q -0.673828,0.439454 -1.148437,1.013672 -0.931641,1.417969 -0.861329,3 0.04687,1.248047 0.75586,2.197266 0.755859,1.019531 1.880859,1.019531 0.240235,0 0.492188,-0.04687 0.08789,-0.01172 0.375,-0.134765 0.105468,-0.09375 0.105468,-0.251954 0,-0.333984 -0.36914,-0.333984 -0.08789,0 -0.410156,0.05859 -0.240235,0.03516 -0.421875,-0.01172 -0.861329,-0.216797 -1.31836,-1.007812 -0.392578,-0.708985 -0.392578,-1.69336 0,-1.535156 0.779297,-2.443359 0.515625,-0.603516 1.160156,-0.820313 0.480469,-0.152343 0.814453,-0.257812 z"
       style="font-style:normal;font-variant:normal;font-weight:normal;font-stretch:normal;font-family:Ubuntu;-inkscape-font-specification:Ubuntu;fill:#ffffff"
       id="path913" />
    <path
       d="m 58.758026,43.252579 -2.818359,-2.097657 q 0.890625,-0.638671 1.189453,-1.224609 0.345703,-0.685547 0.345703,-1.318359 0,-0.791016 -0.521484,-1.289063 -0.521485,-0.498047 -1.382813,-0.498047 -0.134766,0 -0.275391,0.01172 -1.623046,0.152344 -1.529296,2.039063 0.06445,0.169921 0.292968,0.169921 0.333985,0 0.38086,-0.251953 0.05859,-1.277343 1.130859,-1.277343 0.1875,0 0.427734,0.04102 0.796875,0.28711 0.796875,1.054688 0,0.621093 -0.498046,1.283203 -0.498047,0.662109 -1.136719,0.914062 -0.158203,0.05859 -0.158203,0.263672 0,0.128906 0.07617,0.298828 l 3.679687,2.736328 q 0.09961,0.07031 0.28125,0.07031 0.462891,0 0.462891,-0.240234 v -6.597657 h 0.914062 V 36.58461 h -0.914062 q -0.28711,0 -0.492188,0.175781 -0.251953,0.205078 -0.251953,0.580078 z"
       style="font-style:normal;font-variant:normal;font-weight:normal;font-stretch:normal;font-family:Ubuntu;-inkscape-font-specification:Ubuntu;fill:#ffffff"
       id="path915" />
    <path
       d="m 63.896698,36.643204 h -0.07617 -3.398437 v 0.679687 l 1.353515,-0.02344 0.509766,-0.0293 q -0.820313,0.175781 -1.294922,0.75 -0.931641,1.417969 -0.861328,3 0.04687,1.248047 0.755859,2.197265 0.75586,1.019532 1.88086,1.019532 0.240234,0 0.492187,-0.04687 0.08789,-0.01172 0.375,-0.134766 0.105469,-0.09375 0.105469,-0.251953 0,-0.333984 -0.369141,-0.333984 -0.08789,0 -0.410156,0.05859 -0.240234,0.03516 -0.421875,-0.01172 -0.861328,-0.216797 -1.318359,-1.007813 -0.392579,-0.708984 -0.392579,-1.693359 0,-1.535157 0.779297,-2.44336 0.515625,-0.603515 1.160157,-0.820312 0.480468,-0.152344 1.160156,-0.257813 z"
       style="font-style:normal;font-variant:normal;font-weight:normal;font-stretch:normal;font-family:Ubuntu;-inkscape-font-specification:Ubuntu;fill:#ffffff"
       id="path917" />
    <path
       d="m 68.121307,38.74086 v 4.464844 l -2.941406,-2.648438 z m -4.365234,-2.15625 v 0.755859 h 4.365234 v 0.597657 l -3.708984,2.24414 q -0.205078,0.123047 -0.205078,0.298828 0,0.146485 0.158203,0.240235 l 3.755859,3.328125 q 0.216797,0.1875 0.492188,0.1875 0.251953,0 0.251953,-0.240235 v -5.472656 q 0.996094,-0.04687 1.570312,0.650391 0.304688,0.363281 0.304688,0.878906 0,0.492187 -0.251953,0.849609 -0.251953,0.357422 -0.603516,0.310547 -0.240234,0.08789 -0.240234,0.351563 0,0.357422 0.398437,0.322265 0.621094,0.02344 0.996094,-0.550781 0.345703,-0.515625 0.345703,-1.259766 0,-0.755859 -0.345703,-1.248046 -0.603516,-0.855469 -2.173828,-1.03125 v -0.457032 h 3.503906 V 36.58461 Z"
       style="font-style:normal;font-variant:normal;font-weight:normal;font-stretch:normal;font-family:Ubuntu;-inkscape-font-specification:Ubuntu;fill:#ffffff"
       id="path919" />
    <path
       d="m 81.023651,36.58461 h -5.472656 v 0.755859 h 1.365234 l 0.527344,0.427735 q -0.503906,0.205078 -0.814453,0.732422 -0.310547,0.527343 -0.310547,1.083984 0.08203,0.251953 0.333984,0.251953 0.228516,0 0.333985,-0.169922 0.07617,-1.441406 1.464843,-1.441406 0.169922,0 0.351563,0.02344 0.480469,0.07617 0.767578,0.480469 0.287109,0.398438 0.287109,0.914063 0,0.193359 -0.03516,0.36914 -0.591797,1.382813 -2.595703,1.382813 -0.439453,0 -0.931641,-0.07031 -0.07617,-0.02344 -0.134765,-0.02344 -0.298828,0 -0.298828,0.333984 0,0.158203 0.105468,0.298828 l 5.308594,3.251953 q 0.38086,0.03516 0.38086,-0.310546 0,-0.07031 -0.02344,-0.146485 l -4.212891,-2.601562 q 2.654297,-0.322266 3.09961,-2.050782 0.02344,-0.205078 0.02344,-0.410156 0,-1.125 -0.74414,-1.705078 -0.56836,-0.433594 -1.3125,-0.433594 -0.140625,0 -0.263672,0.0293 -0.05859,-0.07617 -0.275391,-0.158203 -0.152344,-0.05859 -0.117187,-0.05859 h 3.193359 z m -2.748047,-2.068359 q -0.287109,-0.0293 -0.662109,-0.0293 h -0.966797 q -1.019531,-0.01172 -1.453125,-0.234375 -0.603516,-0.328125 -0.615234,-1.201172 0,-0.158203 -0.298829,-0.158203 -0.421875,0 -0.392578,0.240234 0.105469,1.271484 0.84961,1.669922 0.445312,0.240234 2.132812,0.445312 0.457031,0 0.925781,0 0.791016,0.02344 1.236329,0.251954 0.626953,0.322265 0.626953,1.066406 h 0.767578 q 0,-0.914063 -0.650391,-1.476563 -0.585937,-0.515625 -1.5,-0.574218 z"
       style="font-style:normal;font-variant:normal;font-weight:normal;font-stretch:normal;font-family:Ubuntu;-inkscape-font-specification:Ubuntu;fill:#ffffff"
       id="path921" />
    <path
       d="m 87.164276,36.58461 h -6.380859 v 0.755859 h 4.728515 v 2.636719 q -0.767578,-0.755859 -1.828125,-0.755859 -0.228515,0 -0.480468,0.03516 -0.84961,0.111328 -1.359375,0.703125 -0.509766,0.585937 -0.509766,1.376953 0,0.503906 0.216797,0.984375 0.298828,0.667969 1.042969,0.955078 0.146484,0.0293 0.269531,-0.08789 0.128906,-0.123047 0.128906,-0.28125 0,-0.105469 -0.08789,-0.19336 -0.416015,-0.228515 -0.591796,-0.427734 -0.175782,-0.205078 -0.246094,-0.615235 -0.02344,-0.169921 -0.02344,-0.322265 0,-0.650391 0.457032,-1.054688 0.439453,-0.375 1.113281,-0.375 0.216797,0 0.421875,0.03516 0.644531,0.123046 0.978515,0.492187 0.339844,0.363281 0.498047,1.054688 v 2.548828 q 0,0.210937 0.369141,0.210937 0.375,0 0.375,-0.210937 v -6.708985 h 0.908203 z"
       style="font-style:normal;font-variant:normal;font-weight:normal;font-stretch:normal;font-family:Ubuntu;-inkscape-font-specification:Ubuntu;fill:#ffffff"
       id="path923" />
    <path
       d="m 91.218964,37.340469 v 1.400391 q -0.433594,-0.439453 -0.796875,-0.439453 -0.228516,0 -0.480469,0.140625 -0.140625,-0.333985 -0.732422,-0.492188 -0.527344,-0.140625 -0.527344,-0.263672 0.01172,-0.128906 0.152344,-0.234375 0.140625,-0.111328 0.246094,-0.111328 z m 1.652343,-0.755859 h -5.853515 v 0.755859 h 1.248047 q -0.111329,0.05859 -0.228516,0.263672 -0.03516,0.07031 -0.03516,0.140625 0,0.363281 0.287109,0.410156 0.205078,0.105469 0.949219,0.369141 0.333984,0.123047 0.36914,0.398438 -0.322265,0.755859 -0.457031,0.972656 -0.263672,0.457031 -0.515625,0.457031 -0.310547,0 -0.644531,-0.638672 -0.04102,-0.05859 -0.123047,-0.05859 -0.128906,0 -0.275391,0.117188 -0.146484,0.111328 -0.146484,0.216797 0,0.05273 0.0293,0.08789 0.275391,0.439454 0.492187,0.621094 0.310547,0.263672 0.75586,0.263672 0.644531,-0.117187 1.007812,-0.837891 0.28711,-0.615234 0.574219,-1.224609 0.205078,0.05859 0.263672,0.09375 0.05859,0.03516 0.228516,0.216797 0.287109,0.298828 0.36914,0.832031 0.05273,0.298828 0.05273,0.996094 h 0.738281 v -3.697266 h 0.914062 z m -3.140625,-3.158203 q -0.123047,-0.158203 -0.351562,-0.158203 -0.28711,0 -0.310547,0.228515 0.07617,1.300782 0.820312,1.69336 0.439454,0.251953 2.132813,0.433593 0.03516,0 0.392578,-0.01758 0.363281,-0.01758 0.638672,-0.01758 1.798828,0 1.798828,0.767578 0,0.105469 -0.03516,0.228516 h -2.806641 q -0.74414,0 -0.74414,0.767578 v 5.384766 q 0,0.568359 0.416015,1.037109 0.421875,0.462891 0.867188,0.462891 0.984375,0 1.875,-1.195313 0.849609,-1.142578 0.849609,-2.232422 0,-0.902343 -1.054687,-1.634765 -0.19336,0 -0.316407,0.123047 -0.117187,0.117187 -0.117187,0.263671 0,0.08203 0.04687,0.152344 0.46875,0.351563 0.480469,0.363281 0.228515,0.216797 0.263671,0.5625 0.01172,0.117188 0.01172,0.240235 0,0.925781 -0.93164,1.933594 -0.445313,0.46289 -0.902344,0.46289 -0.322266,0 -0.533203,-0.210937 -0.210938,-0.216797 -0.210938,-0.515625 v -5.208985 h 4.177735 V 36.58461 H 95.56076 q 0,-1.083984 -0.984375,-1.453125 -0.585937,-0.216797 -1.892578,-0.228516 h -0.708984 q -1.130859,0 -1.582031,-0.228515 -0.650391,-0.322266 -0.66211,-1.248047 z"
       style="font-style:normal;font-variant:normal;font-weight:normal;font-stretch:normal;font-family:Ubuntu;-inkscape-font-specification:Ubuntu;fill:#ffffff"
       id="path925" />
    <path
       d="m 104.49631,36.58461 h -8.408206 v 0.755859 h 6.755856 v 1.892578 q -0.79101,-0.826171 -1.47656,-0.826171 -0.62695,0 -1.23633,0.720703 -0.603513,-0.802735 -1.57031,-0.802735 -1.11914,0 -1.728515,0.984375 -0.328125,0.527344 -0.328125,1.089844 0,0.826172 0.615234,1.435547 0.621094,0.603516 1.535156,0.603516 0.134766,0 0.251954,-0.01172 0.228515,-0.128906 0.228515,-0.38086 0,-0.205078 -0.228515,-0.292968 -0.105469,0.01172 -0.216797,0.01172 -0.609375,0 -1.042969,-0.380859 -0.433594,-0.386719 -0.433594,-0.984375 0,-0.263672 0.09961,-0.550781 0.380859,-0.820313 1.248046,-0.820313 0.919922,0 1.248047,0.925782 0.105469,0.123046 0.333983,0.123046 0.22852,0 0.32227,-0.09961 0.38672,-0.873047 0.94922,-0.873047 0.7207,0 1.42968,1.341797 v 3.492188 q 0,0.351562 0.35743,0.351562 0.38671,0 0.38671,-0.375 v -6.574219 h 0.90821 z"
       style="font-style:normal;font-variant:normal;font-weight:normal;font-stretch:normal;font-family:Ubuntu;-inkscape-font-specification:Ubuntu;fill:#ffffff"
       id="path927" />
    <path
       d="m 112.04318,38.74086 v 4.464844 l -2.9414,-2.648438 z m -4.36523,-2.15625 v 0.755859 h 4.36523 v 0.597657 l -3.70898,2.24414 q -0.20508,0.123047 -0.20508,0.298828 0,0.146485 0.1582,0.240235 l 3.75586,3.328125 q 0.2168,0.1875 0.49219,0.1875 0.25195,0 0.25195,-0.240235 v -5.472656 q 0.9961,-0.04687 1.57032,0.650391 0.30468,0.363281 0.30468,0.878906 0,0.492187 -0.25195,0.849609 -0.25195,0.357422 -0.60352,0.310547 -0.24023,0.08789 -0.24023,0.351563 0,0.357422 0.39844,0.322265 0.62109,0.02344 0.99609,-0.550781 0.3457,-0.515625 0.3457,-1.259766 0,-0.755859 -0.3457,-1.248046 -0.60351,-0.855469 -2.17383,-1.03125 v -0.457032 h 3.50391 V 36.58461 Z"
       style="font-style:normal;font-variant:normal;font-weight:normal;font-stretch:normal;font-family:Ubuntu;-inkscape-font-specification:Ubuntu;fill:#ffffff"
       id="path929" />
    <path
       d="m 120.37521,43.123672 -2.9414,-2.630859 2.9414,-1.833984 z m -4.25976,-6.539062 v 0.755859 h 4.25976 v 0.550782 l -3.70898,2.267578 q -0.12305,0.07031 -0.12305,0.27539 0,0.158203 0.0996,0.240235 l 3.73242,3.398437 q 0.12891,0.117188 0.32227,0.117188 0.3457,0 0.42187,-0.275391 v -6.574219 h 0.90821 V 36.58461 Z m 1.33008,6.380859 q 0,-0.228515 -0.16407,-0.398437 -0.1582,-0.175781 -0.375,-0.175781 -0.22851,0 -0.38086,0.169921 -0.14648,0.164063 -0.14648,0.404297 0,0.216797 0.15234,0.363282 0.15821,0.140625 0.38672,0.140625 0.2168,0 0.36914,-0.140625 0.15821,-0.146485 0.15821,-0.363282 z m 6.42773,-2.589843 q 0.17578,-0.351563 0.17578,-0.708985 0,-0.585937 -0.43945,-0.990234 -0.4336,-0.404297 -1.08399,-0.404297 -0.10546,0 -0.21679,0.01758 -0.29883,0.03516 -0.29883,0.322266 0,0.228515 0.2168,0.357422 0.10546,-0.03516 0.21679,-0.03516 0.34571,0 0.60352,0.257813 0.25781,0.257812 0.25781,0.65625 0,0.205078 -0.082,0.427734 -0.33398,0.445313 -0.74414,0.445313 -0.53906,0 -1.01953,-0.679688 -0.46875,-0.65039 -0.52735,-1.382812 v 1.142578 q 0.19336,0.714844 0.49805,1.037109 0.30469,0.316406 0.86719,0.328125 1.1543,0.02344 1.57617,-0.791015 z m -1.95703,-3.791016 v 0.755859 h 3.03516 V 36.58461 Z"
       style="font-style:normal;font-variant:normal;font-weight:normal;font-stretch:normal;font-family:Ubuntu;-inkscape-font-specification:Ubuntu;fill:#ffffff"
       id="path931" />
    <path
       d="m 131.32053,36.58461 h -6.38086 v 0.755859 h 4.72851 v 2.636719 q -0.76758,-0.755859 -1.82812,-0.755859 -0.22852,0 -0.48047,0.03516 -0.84961,0.111328 -1.35938,0.703125 -0.50976,0.585937 -0.50976,1.376953 0,0.503906 0.21679,0.984375 0.29883,0.667969 1.04297,0.955078 0.14649,0.0293 0.26953,-0.08789 0.12891,-0.123047 0.12891,-0.28125 0,-0.105469 -0.0879,-0.19336 -0.41602,-0.228515 -0.5918,-0.427734 -0.17578,-0.205078 -0.24609,-0.615235 -0.0234,-0.169921 -0.0234,-0.322265 0,-0.650391 0.45703,-1.054688 0.43946,-0.375 1.11328,-0.375 0.2168,0 0.42188,0.03516 0.64453,0.123046 0.97852,0.492187 0.33984,0.363281 0.49804,1.054688 v 2.548828 q 0,0.210937 0.36914,0.210937 0.375,0 0.375,-0.210937 v -6.708985 h 0.90821 z"
       style="font-style:normal;font-variant:normal;font-weight:normal;font-stretch:normal;font-family:Ubuntu;-inkscape-font-specification:Ubuntu;fill:#ffffff"
       id="path933" />
  </g>
</svg>
