<?xml version="1.0" encoding="UTF-8" standalone="no"?>
<svg
   xmlns:dc="http://purl.org/dc/elements/1.1/"
   xmlns:cc="http://creativecommons.org/ns#"
   xmlns:rdf="http://www.w3.org/1999/02/22-rdf-syntax-ns#"
   xmlns:svg="http://www.w3.org/2000/svg"
   xmlns="http://www.w3.org/2000/svg"
   xmlns:sodipodi="http://sodipodi.sourceforge.net/DTD/sodipodi-0.dtd"
   xmlns:inkscape="http://www.inkscape.org/namespaces/inkscape"
   inkscape:version="1.0 (6e3e5246a0, 2020-05-07)"
   sodipodi:docname="[JP]-snap-store-black.svg"
   xml:space="preserve"
   style="enable-background:new 0 0 182 56;"
   viewBox="0 0 182 56"
   y="0px"
   x="0px"
   id="Layer_1"
   version="1.1"><metadata
   id="metadata23"><rdf:RDF><cc:Work
       rdf:about=""><dc:format>image/svg+xml</dc:format><dc:type
         rdf:resource="http://purl.org/dc/dcmitype/StillImage" /></cc:Work></rdf:RDF></metadata><defs
   id="defs21" /><sodipodi:namedview
   inkscape:current-layer="Layer_1"
   inkscape:window-maximized="1"
   inkscape:window-y="27"
   inkscape:window-x="0"
   inkscape:cy="11.100827"
   inkscape:cx="87.764833"
   inkscape:zoom="2.8284271"
   showgrid="false"
   id="namedview19"
   inkscape:window-height="741"
   inkscape:window-width="1366"
   inkscape:pageshadow="2"
   inkscape:pageopacity="0"
   guidetolerance="10"
   gridtolerance="10"
   objecttolerance="10"
   borderopacity="1"
   bordercolor="#666666"
   pagecolor="#ffffff" />
<style
   id="style2"
   type="text/css">
	.st0{fill-rule:evenodd;clip-rule:evenodd;fill:#252525;stroke:#CDCDCD;}
	.st1{fill:#82BEA0;}
	.st2{fill:#FA6441;}
	.st3{fill:#FFFFFF;}
	.st4{font-family:'PingFangSC-Regular-GBpc-EUC-H';}
	.st5{font-size:12px;}
	.st6{font-family:'Ubuntu';}
	.st7{font-size:24px;}
</style>
<title
   id="title4">[JP]-snap-store-black</title>
<desc
   id="desc6">Created with Sketch.</desc>
<g
   id="g16">
	<path
   d="M2,0h178c1.1,0,2,0.9,2,2v52c0,1.1-0.9,2-2,2H2c-1.1,0-2-0.9-2-2V2C0,0.9,0.9,0,2,0z"
   class="st0"
   id="Rectangle-path" />
	<g
   transform="translate(8.000000, 11.000000)"
   id="logo">
		<path
   d="M19,17.8V7.3l7.2,3.2L19,17.8z M5.2,31.6L14.1,15l3.9,3.9L5.2,31.6z M0.2,0.2l18.2,6.6v11.6    L0.2,0.2z"
   class="st1"
   id="body" />
		<polygon
   points="29.9,6.8 19.4,6.8 32.9,12.9   "
   class="st2"
   id="head" />
	</g>
	<text
   id="text12"
   class="st3 st4 st5"
   transform="translate(50,44)">থেকে ইনস্টল করুন</text>
	<text
   id="text14"
   class="st3 st6 st7"
   transform="matrix(1 0 0 1 50 27)">Snap Store</text>
</g>
</svg>
