<?xml version="1.0" encoding="UTF-8"?>
<svg width="182px" height="56px" viewBox="0 0 182 56" version="1.1" xmlns="http://www.w3.org/2000/svg" xmlns:xlink="http://www.w3.org/1999/xlink">
    <!-- Generator: Sketch 52.3 (67297) - http://www.bohemiancoding.com/sketch -->
    <title>[FR]-snap-store-white-uneditable</title>
    <desc>Created with Sketch.</desc>
    <defs>
        <polygon id="path-1" points="10.5520345 0.559428571 0.0608793103 0.559428571 13.5487759 6.58"></polygon>
    </defs>
    <g id="Other-languages" stroke="none" stroke-width="1" fill="none" fill-rule="evenodd">
        <g id="FR" transform="translate(-199.000000, -113.000000)">
            <g id="[FR]-snap-store-white-uneditable" transform="translate(200.000000, 114.000000)">
                <rect id="Rectangle-path" stroke="#CDCDCD" fill="#FFFFFF" x="0" y="0" width="180" height="54" rx="2"></rect>
                <g id="logo" transform="translate(8.000000, 11.000000)">
                    <g>
                        <polygon id="Fill-2265" fill="#82BEA0" fill-rule="nonzero" points="18.9875172 17.8017143 26.2054138 10.5525714 18.9875172 7.33085714"></polygon>
                        <polygon id="Fill-2266" fill="#82BEA0" fill-rule="nonzero" points="5.20774138 31.6411429 17.9423276 18.852 14.058569 14.9742857"></polygon>
                        <polygon id="Fill-2267" fill="#82BEA0" fill-rule="nonzero" points="0.160180862 0.233262857 18.3753103 18.4171429 18.3753103 6.84571429"></polygon>
                        <g id="Fill-2268" transform="translate(19.344828, 6.285714)" fill="#FA6441" fill-rule="nonzero">
                            <polygon id="path-2" points="10.5520345 0.559428571 0.0608793103 0.559428571 13.5487759 6.58"></polygon>
                        </g>
                        <g id="colour/snappy-accent-Clipped" transform="translate(19.344828, 6.285714)">
                            <mask id="mask-2" fill="white">
                                <use xlink:href="#path-1"></use>
                            </mask>
                            <g id="path-2"></g>
                            <g id="colour/snappy-accent" mask="url(#mask-2)">
                                <g transform="translate(-19.913793, -9.142857)" id="Rectangle-2">
                                    <g transform="translate(0.343092, 0.497771)">
                                        <rect id="Rectangle-path" fill="#FA6441" fill-rule="nonzero" x="0" y="0" width="101.275862" height="34.8571429"></rect>
                                    </g>
                                </g>
                            </g>
                        </g>
                    </g>
                </g>
                <path d="M52.032,9.684 L53.196,9.684 L53.196,18 L52.032,18 L52.032,9.684 Z M55.188,11.94 C55.4440013,11.8759997 55.7839979,11.8080004 56.208,11.736 C56.6320021,11.6639996 57.1199972,11.628 57.672,11.628 C58.1680025,11.628 58.5799984,11.6979993 58.908,11.838 C59.2360016,11.9780007 59.497999,12.1739987 59.694,12.426 C59.890001,12.6780013 60.0279996,12.9799982 60.108,13.332 C60.1880004,13.6840018 60.228,14.0719979 60.228,14.496 L60.228,18 L59.112,18 L59.112,14.736 C59.112,14.3519981 59.0860003,14.0240014 59.034,13.752 C58.9819997,13.4799986 58.8960006,13.2600008 58.776,13.092 C58.6559994,12.9239992 58.496001,12.8020004 58.296,12.726 C58.095999,12.6499996 57.8480015,12.612 57.552,12.612 C57.4319994,12.612 57.3080006,12.616 57.18,12.624 C57.0519994,12.632 56.9300006,12.6419999 56.814,12.654 C56.6979994,12.6660001 56.5940005,12.6799999 56.502,12.696 C56.4099995,12.7120001 56.3440002,12.724 56.304,12.732 L56.304,18 L55.188,18 L55.188,11.94 Z M63.528,17.196 C63.9840023,17.196 64.3219989,17.1360006 64.542,17.016 C64.7620011,16.8959994 64.872,16.7040013 64.872,16.44 C64.872,16.1679986 64.7640011,15.9520008 64.548,15.792 C64.3319989,15.6319992 63.9760025,15.452001 63.48,15.252 C63.2399988,15.1559995 63.0100011,15.0580005 62.79,14.958 C62.5699989,14.8579995 62.3800008,14.7400007 62.22,14.604 C62.0599992,14.4679993 61.9320005,14.304001 61.836,14.112 C61.7399995,13.919999 61.692,13.6840014 61.692,13.404 C61.692,12.8519972 61.895998,12.4140016 62.304,12.09 C62.712002,11.7659984 63.2679965,11.604 63.972,11.604 C64.1480009,11.604 64.3239991,11.6139999 64.5,11.634 C64.6760009,11.6540001 64.8399992,11.6779999 64.992,11.706 C65.1440008,11.7340001 65.2779994,11.7639998 65.394,11.796 C65.5100006,11.8280002 65.5999997,11.8559999 65.664,11.88 L65.46,12.84 C65.3399994,12.7759997 65.1520013,12.7100003 64.896,12.642 C64.6399987,12.5739997 64.3320018,12.54 63.972,12.54 C63.6599984,12.54 63.3880012,12.6019994 63.156,12.726 C62.9239988,12.8500006 62.808,13.0439987 62.808,13.308 C62.808,13.4440007 62.8339997,13.5639995 62.886,13.668 C62.9380003,13.7720005 63.0179995,13.8659996 63.126,13.95 C63.2340005,14.0340004 63.3679992,14.1119996 63.528,14.184 C63.6880008,14.2560004 63.8799989,14.3319996 64.104,14.412 C64.4000015,14.5240006 64.6639988,14.6339995 64.896,14.742 C65.1280012,14.8500005 65.3259992,14.9759993 65.49,15.12 C65.6540008,15.2640007 65.7799996,15.437999 65.868,15.642 C65.9560004,15.846001 66,16.0959985 66,16.392 C66,16.9680029 65.7860021,17.4039985 65.358,17.7 C64.9299979,17.9960015 64.320004,18.144 63.528,18.144 C62.9759972,18.144 62.5440016,18.0980005 62.232,18.006 C61.9199984,17.9139995 61.7080006,17.8440002 61.596,17.796 L61.8,16.836 C61.9280006,16.8840002 62.1319986,16.9559995 62.412,17.052 C62.6920014,17.1480005 63.0639977,17.196 63.528,17.196 Z M68.472,11.76 L70.836,11.76 L70.836,12.696 L68.472,12.696 L68.472,15.576 C68.472,15.8880016 68.4959998,16.145999 68.544,16.35 C68.5920002,16.554001 68.6639995,16.7139994 68.76,16.83 C68.8560005,16.9460006 68.9759993,17.0279998 69.12,17.076 C69.2640007,17.1240002 69.431999,17.148 69.624,17.148 C69.9600017,17.148 70.229999,17.1100004 70.434,17.034 C70.638001,16.9579996 70.7799996,16.9040002 70.86,16.872 L71.076,17.796 C70.9639994,17.8520003 70.7680014,17.9219996 70.488,18.006 C70.2079986,18.0900004 69.8880018,18.132 69.528,18.132 C69.1039979,18.132 68.7540014,18.0780005 68.478,17.97 C68.2019986,17.8619995 67.9800008,17.7000011 67.812,17.484 C67.6439992,17.2679989 67.5260003,17.0020016 67.458,16.686 C67.3899997,16.3699984 67.356,16.0040021 67.356,15.588 L67.356,10.02 L68.472,9.828 L68.472,11.76 Z M74.364,17.196 C74.6280013,17.196 74.861999,17.1900001 75.066,17.178 C75.270001,17.1659999 75.4399993,17.1440002 75.576,17.112 L75.576,15.252 C75.4959996,15.2119998 75.3660009,15.1780001 75.186,15.15 C75.0059991,15.1219999 74.7880013,15.108 74.532,15.108 C74.3639992,15.108 74.1860009,15.1199999 73.998,15.144 C73.8099991,15.1680001 73.6380008,15.2179996 73.482,15.294 C73.3259992,15.3700004 73.1960005,15.4739993 73.092,15.606 C72.9879995,15.7380007 72.936,15.9119989 72.936,16.128 C72.936,16.528002 73.0639987,16.8059992 73.32,16.962 C73.5760013,17.1180008 73.9239978,17.196 74.364,17.196 Z M74.268,11.604 C74.7160022,11.604 75.0939985,11.6619994 75.402,11.778 C75.7100015,11.8940006 75.9579991,12.0579989 76.146,12.27 C76.3340009,12.4820011 76.4679996,12.7339985 76.548,13.026 C76.6280004,13.3180015 76.668,13.6399982 76.668,13.992 L76.668,17.892 C76.5719995,17.9080001 76.4380009,17.9299999 76.266,17.958 C76.0939991,17.9860001 75.9000011,18.0119999 75.684,18.036 C75.4679989,18.0600001 75.2340013,18.0819999 74.982,18.102 C74.7299987,18.1220001 74.4800012,18.132 74.232,18.132 C73.8799982,18.132 73.5560015,18.0960004 73.26,18.024 C72.9639985,17.9519996 72.7080011,17.8380008 72.492,17.682 C72.2759989,17.5259992 72.1080006,17.3200013 71.988,17.064 C71.8679994,16.8079987 71.808,16.5000018 71.808,16.14 C71.808,15.7959983 71.8779993,15.5000012 72.018,15.252 C72.1580007,15.0039988 72.3479988,14.8040008 72.588,14.652 C72.8280012,14.4999992 73.1079984,14.3880004 73.428,14.316 C73.7480016,14.2439996 74.0839982,14.208 74.436,14.208 C74.5480006,14.208 74.6639994,14.2139999 74.784,14.226 C74.9040006,14.2380001 75.0179995,14.2539999 75.126,14.274 C75.2340005,14.2940001 75.3279996,14.3119999 75.408,14.328 C75.4880004,14.3440001 75.5439998,14.356 75.576,14.364 L75.576,14.052 C75.576,13.8679991 75.5560002,13.6860009 75.516,13.506 C75.4759998,13.3259991 75.4040005,13.1660007 75.3,13.026 C75.1959995,12.8859993 75.0540009,12.7740004 74.874,12.69 C74.6939991,12.6059996 74.4600014,12.564 74.172,12.564 C73.8039982,12.564 73.4820014,12.5899997 73.206,12.642 C72.9299986,12.6940003 72.7240007,12.7479997 72.588,12.804 L72.456,11.88 C72.6000007,11.8159997 72.8399983,11.7540003 73.176,11.694 C73.5120017,11.6339997 73.875998,11.604 74.268,11.604 Z M80.388,18.12 C79.6999966,18.1039999 79.2120014,17.9560014 78.924,17.676 C78.6359986,17.3959986 78.492,16.960003 78.492,16.368 L78.492,8.88 L79.608,8.688 L79.608,16.188 C79.608,16.3720009 79.6239998,16.5239994 79.656,16.644 C79.6880002,16.7640006 79.7399996,16.8599996 79.812,16.932 C79.8840004,17.0040004 79.9799994,17.0579998 80.1,17.094 C80.2200006,17.1300002 80.3679991,17.1599999 80.544,17.184 L80.388,18.12 Z M83.664,18.12 C82.9759966,18.1039999 82.4880014,17.9560014 82.2,17.676 C81.9119986,17.3959986 81.768,16.960003 81.768,16.368 L81.768,8.88 L82.884,8.688 L82.884,16.188 C82.884,16.3720009 82.8999998,16.5239994 82.932,16.644 C82.9640002,16.7640006 83.0159996,16.8599996 83.088,16.932 C83.1600004,17.0040004 83.2559994,17.0579998 83.376,17.094 C83.4960006,17.1300002 83.6439991,17.1599999 83.82,17.184 L83.664,18.12 Z M84.72,14.892 C84.72,14.3399972 84.7999992,13.8580021 84.96,13.446 C85.1200008,13.0339979 85.3319987,12.6920014 85.596,12.42 C85.8600013,12.1479986 86.1639983,11.9440007 86.508,11.808 C86.8520017,11.6719993 87.2039982,11.604 87.564,11.604 C88.4040042,11.604 89.0479978,11.8659974 89.496,12.39 C89.9440022,12.9140026 90.168,13.7119946 90.168,14.784 L90.168,14.97 C90.168,15.0460004 90.164,15.1159997 90.156,15.18 L85.884,15.18 C85.9320002,15.8280032 86.1199984,16.3199983 86.448,16.656 C86.7760016,16.9920017 87.2879965,17.16 87.984,17.16 C88.376002,17.16 88.7059987,17.1260003 88.974,17.058 C89.2420013,16.9899997 89.4439993,16.9240003 89.58,16.86 L89.736,17.796 C89.5999993,17.8680004 89.3620017,17.9439996 89.022,18.024 C88.6819983,18.1040004 88.2960022,18.144 87.864,18.144 C87.3199973,18.144 86.850002,18.0620008 86.454,17.898 C86.057998,17.7339992 85.7320013,17.5080014 85.476,17.22 C85.2199987,16.9319986 85.0300006,16.590002 84.906,16.194 C84.7819994,15.797998 84.72,15.3640024 84.72,14.892 Z M89.004,14.28 C89.012,13.7759975 88.8860013,13.3620016 88.626,13.038 C88.3659987,12.7139984 88.0080023,12.552 87.552,12.552 C87.2959987,12.552 87.070001,12.6019995 86.874,12.702 C86.677999,12.8020005 86.5120007,12.9319992 86.376,13.092 C86.2399993,13.2520008 86.1340004,13.435999 86.058,13.644 C85.9819996,13.852001 85.9320001,14.0639989 85.908,14.28 L89.004,14.28 Z M94.08,11.628 C94.1760005,11.628 94.2859994,11.6339999 94.41,11.646 C94.5340006,11.6580001 94.6559994,11.6739999 94.776,11.694 C94.8960006,11.7140001 95.0059995,11.7339999 95.106,11.754 C95.2060005,11.7740001 95.2799998,11.7919999 95.328,11.808 L95.136,12.78 C95.0479996,12.7479998 94.902001,12.7100002 94.698,12.666 C94.493999,12.6219998 94.2320016,12.6 93.912,12.6 C93.703999,12.6 93.498001,12.6219998 93.294,12.666 C93.089999,12.7100002 92.9560003,12.7399999 92.892,12.756 L92.892,18 L91.776,18 L91.776,12.024 C92.0400013,11.9279995 92.367998,11.8380004 92.76,11.754 C93.152002,11.6699996 93.5919976,11.628 94.08,11.628 Z M101.292,17.196 C101.556001,17.196 101.789999,17.1900001 101.994,17.178 C102.198001,17.1659999 102.367999,17.1440002 102.504,17.112 L102.504,15.252 C102.424,15.2119998 102.294001,15.1780001 102.114,15.15 C101.933999,15.1219999 101.716001,15.108 101.46,15.108 C101.291999,15.108 101.114001,15.1199999 100.926,15.144 C100.737999,15.1680001 100.566001,15.2179996 100.41,15.294 C100.253999,15.3700004 100.124001,15.4739993 100.02,15.606 C99.9159995,15.7380007 99.864,15.9119989 99.864,16.128 C99.864,16.528002 99.9919987,16.8059992 100.248,16.962 C100.504001,17.1180008 100.851998,17.196 101.292,17.196 Z M101.196,11.604 C101.644002,11.604 102.021998,11.6619994 102.33,11.778 C102.638002,11.8940006 102.885999,12.0579989 103.074,12.27 C103.262001,12.4820011 103.396,12.7339985 103.476,13.026 C103.556,13.3180015 103.596,13.6399982 103.596,13.992 L103.596,17.892 C103.5,17.9080001 103.366001,17.9299999 103.194,17.958 C103.021999,17.9860001 102.828001,18.0119999 102.612,18.036 C102.395999,18.0600001 102.162001,18.0819999 101.91,18.102 C101.657999,18.1220001 101.408001,18.132 101.16,18.132 C100.807998,18.132 100.484001,18.0960004 100.188,18.024 C99.8919985,17.9519996 99.6360011,17.8380008 99.42,17.682 C99.2039989,17.5259992 99.0360006,17.3200013 98.916,17.064 C98.7959994,16.8079987 98.736,16.5000018 98.736,16.14 C98.736,15.7959983 98.8059993,15.5000012 98.946,15.252 C99.0860007,15.0039988 99.2759988,14.8040008 99.516,14.652 C99.7560012,14.4999992 100.035998,14.3880004 100.356,14.316 C100.676002,14.2439996 101.011998,14.208 101.364,14.208 C101.476001,14.208 101.591999,14.2139999 101.712,14.226 C101.832001,14.2380001 101.945999,14.2539999 102.054,14.274 C102.162001,14.2940001 102.256,14.3119999 102.336,14.328 C102.416,14.3440001 102.472,14.356 102.504,14.364 L102.504,14.052 C102.504,13.8679991 102.484,13.6860009 102.444,13.506 C102.404,13.3259991 102.332001,13.1660007 102.228,13.026 C102.123999,12.8859993 101.982001,12.7740004 101.802,12.69 C101.621999,12.6059996 101.388001,12.564 101.1,12.564 C100.731998,12.564 100.410001,12.5899997 100.134,12.642 C99.8579986,12.6940003 99.6520007,12.7479997 99.516,12.804 L99.384,11.88 C99.5280007,11.8159997 99.7679983,11.7540003 100.104,11.694 C100.440002,11.6339997 100.803998,11.604 101.196,11.604 Z M100.656,8.688 L102.192,10.536 L101.628,11.04 L99.936,9.396 L100.656,8.688 Z M112.548,14.892 C112.548,14.1639964 112.368002,13.604002 112.008,13.212 C111.647998,12.819998 111.168003,12.624 110.568,12.624 C110.231998,12.624 109.970001,12.6359999 109.782,12.66 C109.593999,12.6840001 109.444001,12.7119998 109.332,12.744 L109.332,16.68 C109.468001,16.7920006 109.663999,16.8999995 109.92,17.004 C110.176001,17.1080005 110.455998,17.16 110.76,17.16 C111.080002,17.16 111.353999,17.1020006 111.582,16.986 C111.810001,16.8699994 111.995999,16.710001 112.14,16.506 C112.284001,16.301999 112.388,16.0620014 112.452,15.786 C112.516,15.5099986 112.548,15.2120016 112.548,14.892 Z M113.712,14.892 C113.712,15.3640024 113.650001,15.799998 113.526,16.2 C113.401999,16.600002 113.220001,16.9439986 112.98,17.232 C112.739999,17.5200014 112.446002,17.7439992 112.098,17.904 C111.749998,18.0640008 111.352002,18.144 110.904,18.144 C110.543998,18.144 110.226001,18.0960005 109.95,18 C109.673999,17.9039995 109.468001,17.8120004 109.332,17.724 L109.332,20.22 L108.216,20.22 L108.216,11.952 C108.480001,11.8879997 108.809998,11.8180004 109.206,11.742 C109.602002,11.6659996 110.059997,11.628 110.58,11.628 C111.060002,11.628 111.491998,11.7039992 111.876,11.856 C112.260002,12.0080008 112.587999,12.2239986 112.86,12.504 C113.132001,12.7840014 113.341999,13.125998 113.49,13.53 C113.638001,13.934002 113.712,14.3879975 113.712,14.892 Z M117.396,17.196 C117.660001,17.196 117.893999,17.1900001 118.098,17.178 C118.302001,17.1659999 118.471999,17.1440002 118.608,17.112 L118.608,15.252 C118.528,15.2119998 118.398001,15.1780001 118.218,15.15 C118.037999,15.1219999 117.820001,15.108 117.564,15.108 C117.395999,15.108 117.218001,15.1199999 117.03,15.144 C116.841999,15.1680001 116.670001,15.2179996 116.514,15.294 C116.357999,15.3700004 116.228001,15.4739993 116.124,15.606 C116.019999,15.7380007 115.968,15.9119989 115.968,16.128 C115.968,16.528002 116.095999,16.8059992 116.352,16.962 C116.608001,17.1180008 116.955998,17.196 117.396,17.196 Z M117.3,11.604 C117.748002,11.604 118.125998,11.6619994 118.434,11.778 C118.742002,11.8940006 118.989999,12.0579989 119.178,12.27 C119.366001,12.4820011 119.5,12.7339985 119.58,13.026 C119.66,13.3180015 119.7,13.6399982 119.7,13.992 L119.7,17.892 C119.604,17.9080001 119.470001,17.9299999 119.298,17.958 C119.125999,17.9860001 118.932001,18.0119999 118.716,18.036 C118.499999,18.0600001 118.266001,18.0819999 118.014,18.102 C117.761999,18.1220001 117.512001,18.132 117.264,18.132 C116.911998,18.132 116.588001,18.0960004 116.292,18.024 C115.995999,17.9519996 115.740001,17.8380008 115.524,17.682 C115.307999,17.5259992 115.140001,17.3200013 115.02,17.064 C114.899999,16.8079987 114.84,16.5000018 114.84,16.14 C114.84,15.7959983 114.909999,15.5000012 115.05,15.252 C115.190001,15.0039988 115.379999,14.8040008 115.62,14.652 C115.860001,14.4999992 116.139998,14.3880004 116.46,14.316 C116.780002,14.2439996 117.115998,14.208 117.468,14.208 C117.580001,14.208 117.695999,14.2139999 117.816,14.226 C117.936001,14.2380001 118.049999,14.2539999 118.158,14.274 C118.266001,14.2940001 118.36,14.3119999 118.44,14.328 C118.52,14.3440001 118.576,14.356 118.608,14.364 L118.608,14.052 C118.608,13.8679991 118.588,13.6860009 118.548,13.506 C118.508,13.3259991 118.436001,13.1660007 118.332,13.026 C118.227999,12.8859993 118.086001,12.7740004 117.906,12.69 C117.725999,12.6059996 117.492001,12.564 117.204,12.564 C116.835998,12.564 116.514001,12.5899997 116.238,12.642 C115.961999,12.6940003 115.756001,12.7479997 115.62,12.804 L115.488,11.88 C115.632001,11.8159997 115.871998,11.7540003 116.208,11.694 C116.544002,11.6339997 116.907998,11.604 117.3,11.604 Z M123.852,11.628 C123.948,11.628 124.057999,11.6339999 124.182,11.646 C124.306001,11.6580001 124.427999,11.6739999 124.548,11.694 C124.668001,11.7140001 124.778,11.7339999 124.878,11.754 C124.978001,11.7740001 125.052,11.7919999 125.1,11.808 L124.908,12.78 C124.82,12.7479998 124.674001,12.7100002 124.47,12.666 C124.265999,12.6219998 124.004002,12.6 123.684,12.6 C123.475999,12.6 123.270001,12.6219998 123.066,12.666 C122.861999,12.7100002 122.728,12.7399999 122.664,12.756 L122.664,18 L121.548,18 L121.548,12.024 C121.812001,11.9279995 122.139998,11.8380004 122.532,11.754 C122.924002,11.6699996 123.363998,11.628 123.852,11.628 Z M127.224,11.76 L129.588,11.76 L129.588,12.696 L127.224,12.696 L127.224,15.576 C127.224,15.8880016 127.248,16.145999 127.296,16.35 C127.344,16.554001 127.416,16.7139994 127.512,16.83 C127.608,16.9460006 127.727999,17.0279998 127.872,17.076 C128.016001,17.1240002 128.183999,17.148 128.376,17.148 C128.712002,17.148 128.981999,17.1100004 129.186,17.034 C129.390001,16.9579996 129.532,16.9040002 129.612,16.872 L129.828,17.796 C129.715999,17.8520003 129.520001,17.9219996 129.24,18.006 C128.959999,18.0900004 128.640002,18.132 128.28,18.132 C127.855998,18.132 127.506001,18.0780005 127.23,17.97 C126.953999,17.8619995 126.732001,17.7000011 126.564,17.484 C126.395999,17.2679989 126.278,17.0020016 126.21,16.686 C126.142,16.3699984 126.108,16.0040021 126.108,15.588 L126.108,10.02 L127.224,9.828 L127.224,11.76 Z M132.12,18 L131.004,18 L131.004,11.76 L132.12,11.76 L132.12,18 Z M131.556,10.632 C131.355999,10.632 131.186001,10.5660007 131.046,10.434 C130.905999,10.3019993 130.836,10.1240011 130.836,9.9 C130.836,9.67599888 130.905999,9.49800066 131.046,9.366 C131.186001,9.23399934 131.355999,9.168 131.556,9.168 C131.756001,9.168 131.925999,9.23399934 132.066,9.366 C132.206001,9.49800066 132.276,9.67599888 132.276,9.9 C132.276,10.1240011 132.206001,10.3019993 132.066,10.434 C131.925999,10.5660007 131.756001,10.632 131.556,10.632 Z M136.344,11.628 C136.44,11.628 136.549999,11.6339999 136.674,11.646 C136.798001,11.6580001 136.919999,11.6739999 137.04,11.694 C137.160001,11.7140001 137.27,11.7339999 137.37,11.754 C137.470001,11.7740001 137.544,11.7919999 137.592,11.808 L137.4,12.78 C137.312,12.7479998 137.166001,12.7100002 136.962,12.666 C136.757999,12.6219998 136.496002,12.6 136.176,12.6 C135.967999,12.6 135.762001,12.6219998 135.558,12.666 C135.353999,12.7100002 135.22,12.7399999 135.156,12.756 L135.156,18 L134.04,18 L134.04,12.024 C134.304001,11.9279995 134.631998,11.8380004 135.024,11.754 C135.416002,11.6699996 135.855998,11.628 136.344,11.628 Z M145.476,13.08 C145.339999,12.9679994 145.144001,12.8600005 144.888,12.756 C144.631999,12.6519995 144.352002,12.6 144.048,12.6 C143.727998,12.6 143.454001,12.6579994 143.226,12.774 C142.997999,12.8900006 142.812001,13.049999 142.668,13.254 C142.523999,13.458001 142.42,13.6999986 142.356,13.98 C142.292,14.2600014 142.26,14.5599984 142.26,14.88 C142.26,15.6080036 142.439998,16.169998 142.8,16.566 C143.160002,16.962002 143.639997,17.16 144.24,17.16 C144.544002,17.16 144.797999,17.1460001 145.002,17.118 C145.206001,17.0899999 145.363999,17.0600002 145.476,17.028 L145.476,13.08 Z M145.476,8.88 L146.592,8.688 L146.592,17.82 C146.335999,17.8920004 146.008002,17.9639996 145.608,18.036 C145.207998,18.1080004 144.748003,18.144 144.228,18.144 C143.747998,18.144 143.316002,18.0680008 142.932,17.916 C142.547998,17.7639992 142.220001,17.5480014 141.948,17.268 C141.675999,16.9879986 141.466001,16.646002 141.318,16.242 C141.169999,15.837998 141.096,15.3840025 141.096,14.88 C141.096,14.3999976 141.157999,13.960002 141.282,13.56 C141.406001,13.159998 141.587999,12.8160014 141.828,12.528 C142.068001,12.2399986 142.361998,12.0160008 142.71,11.856 C143.058002,11.6959992 143.455998,11.616 143.904,11.616 C144.264002,11.616 144.581999,11.6639995 144.858,11.76 C145.134001,11.8560005 145.339999,11.9479996 145.476,12.036 L145.476,8.88 Z M153.48,17.82 C153.223999,17.8840003 152.886002,17.9519996 152.466,18.024 C152.045998,18.0960004 151.560003,18.132 151.008,18.132 C150.527998,18.132 150.124002,18.0620007 149.796,17.922 C149.467998,17.7819993 149.204001,17.5840013 149.004,17.328 C148.803999,17.0719987 148.66,16.7700017 148.572,16.422 C148.484,16.0739983 148.44,15.6880021 148.44,15.264 L148.44,11.76 L149.556,11.76 L149.556,15.024 C149.556,15.7840038 149.675999,16.3279984 149.916,16.656 C150.156001,16.9840016 150.559997,17.148 151.128,17.148 C151.248001,17.148 151.371999,17.144 151.5,17.136 C151.628001,17.128 151.747999,17.1180001 151.86,17.106 C151.972001,17.0939999 152.074,17.0820001 152.166,17.07 C152.258,17.0579999 152.324,17.0440001 152.364,17.028 L152.364,11.76 L153.48,11.76 L153.48,17.82 Z" id="Installer-à-partir-d" fill="#111111"></path>
                <path d="M56.928,39.344 C59.3600122,39.344 60.576,38.5120083 60.576,36.848 C60.576,36.3359974 60.4680011,35.9000018 60.252,35.54 C60.0359989,35.1799982 59.7440018,34.8680013 59.376,34.604 C59.0079982,34.3399987 58.5880024,34.112001 58.116,33.92 C57.6439976,33.727999 57.1440026,33.536001 56.616,33.344 C56.007997,33.135999 55.4320027,32.9000013 54.888,32.636 C54.3439973,32.3719987 53.872002,32.0600018 53.472,31.7 C53.071998,31.3399982 52.7560012,30.9120025 52.524,30.416 C52.2919988,29.9199975 52.176,29.3200035 52.176,28.616 C52.176,27.1599927 52.671995,26.0240041 53.664,25.208 C54.656005,24.3919959 56.0239913,23.984 57.768,23.984 C58.776005,23.984 59.6919959,24.0919989 60.516,24.308 C61.3400041,24.5240011 61.9439981,24.7599987 62.328,25.016 L61.584,26.912 C61.2479983,26.703999 60.7480033,26.500001 60.084,26.3 C59.4199967,26.099999 58.6480044,26 57.768,26 C57.3199978,26 56.9040019,26.0479995 56.52,26.144 C56.1359981,26.2400005 55.8000014,26.383999 55.512,26.576 C55.2239986,26.768001 54.9960008,27.0119985 54.828,27.308 C54.6599992,27.6040015 54.576,27.951998 54.576,28.352 C54.576,28.8000022 54.6639991,29.1759985 54.84,29.48 C55.0160009,29.7840015 55.2639984,30.0519988 55.584,30.284 C55.9040016,30.5160012 56.2759979,30.727999 56.7,30.92 C57.1240021,31.112001 57.5919974,31.303999 58.104,31.496 C58.8240036,31.7840014 59.483997,32.0719986 60.084,32.36 C60.684003,32.6480014 61.2039978,32.991998 61.644,33.392 C62.0840022,33.792002 62.4239988,34.2679972 62.664,34.82 C62.9040012,35.3720028 63.024,36.0399961 63.024,36.824 C63.024,38.2800073 62.4920053,39.3999961 61.428,40.184 C60.3639947,40.9680039 58.8640097,41.36 56.928,41.36 C56.2719967,41.36 55.6680028,41.3160004 55.116,41.228 C54.5639972,41.1399996 54.0720022,41.0360006 53.64,40.916 C53.2079978,40.7959994 52.8360016,40.6680007 52.524,40.532 C52.2119984,40.3959993 51.9680009,40.2800005 51.792,40.184 L52.488,38.264 C52.8560018,38.472001 53.4159962,38.7039987 54.168,38.96 C54.9200038,39.2160013 55.8399946,39.344 56.928,39.344 Z M65.688,28.88 C66.2000026,28.7519994 66.8799958,28.6160007 67.728,28.472 C68.5760042,28.3279993 69.5519945,28.256 70.656,28.256 C71.648005,28.256 72.4719967,28.3959986 73.128,28.676 C73.7840033,28.9560014 74.307998,29.3479975 74.7,29.852 C75.092002,30.3560025 75.3679992,30.9599965 75.528,31.664 C75.6880008,32.3680035 75.768,33.1439958 75.768,33.992 L75.768,41 L73.536,41 L73.536,34.472 C73.536,33.7039962 73.4840005,33.0480027 73.38,32.504 C73.2759995,31.9599973 73.1040012,31.5200017 72.864,31.184 C72.6239988,30.8479983 72.304002,30.6040008 71.904,30.452 C71.503998,30.2999992 71.008003,30.224 70.416,30.224 C70.1759988,30.224 69.9280013,30.2319999 69.672,30.248 C69.4159987,30.2640001 69.1720012,30.2839999 68.94,30.308 C68.7079988,30.3320001 68.5000009,30.3599998 68.316,30.392 C68.1319991,30.4240002 68.0000004,30.4479999 67.92,30.464 L67.92,41 L65.688,41 L65.688,28.88 Z M83.688,39.392 C84.2160026,39.392 84.683998,39.3800001 85.092,39.356 C85.500002,39.3319999 85.8399986,39.2880003 86.112,39.224 L86.112,35.504 C85.9519992,35.4239996 85.6920018,35.3560003 85.332,35.3 C84.9719982,35.2439997 84.5360026,35.216 84.024,35.216 C83.6879983,35.216 83.3320019,35.2399998 82.956,35.288 C82.5799981,35.3360002 82.2360016,35.4359992 81.924,35.588 C81.6119984,35.7400008 81.352001,35.9479987 81.144,36.212 C80.935999,36.4760013 80.832,36.8239978 80.832,37.256 C80.832,38.056004 81.0879974,38.6119984 81.6,38.924 C82.1120026,39.2360016 82.8079956,39.392 83.688,39.392 Z M83.496,28.208 C84.3920045,28.208 85.1479969,28.3239988 85.764,28.556 C86.3800031,28.7880012 86.8759981,29.1159979 87.252,29.54 C87.6280019,29.9640021 87.8959992,30.4679971 88.056,31.052 C88.2160008,31.6360029 88.296,32.2799965 88.296,32.984 L88.296,40.784 C88.103999,40.8160002 87.8360017,40.8599997 87.492,40.916 C87.1479983,40.9720003 86.7600022,41.0239998 86.328,41.072 C85.8959978,41.1200002 85.4280025,41.1639998 84.924,41.204 C84.4199975,41.2440002 83.9200025,41.264 83.424,41.264 C82.7199965,41.264 82.072003,41.1920007 81.48,41.048 C80.887997,40.9039993 80.3760022,40.6760016 79.944,40.364 C79.5119978,40.0519984 79.1760012,39.6400026 78.936,39.128 C78.6959988,38.6159974 78.576,38.0000036 78.576,37.28 C78.576,36.5919966 78.7159986,36.0000025 78.996,35.504 C79.2760014,35.0079975 79.6559976,34.6080015 80.136,34.304 C80.6160024,33.9999985 81.1759968,33.7760007 81.816,33.632 C82.4560032,33.4879993 83.1279965,33.416 83.832,33.416 C84.0560011,33.416 84.2879988,33.4279999 84.528,33.452 C84.7680012,33.4760001 84.9959989,33.5079998 85.212,33.548 C85.4280011,33.5880002 85.6159992,33.6239998 85.776,33.656 C85.9360008,33.6880002 86.0479997,33.7119999 86.112,33.728 L86.112,33.104 C86.112,32.7359982 86.0720004,32.3720018 85.992,32.012 C85.9119996,31.6519982 85.768001,31.3320014 85.56,31.052 C85.351999,30.7719986 85.0680018,30.5480008 84.708,30.38 C84.3479982,30.2119992 83.8800029,30.128 83.304,30.128 C82.5679963,30.128 81.9240028,30.1799995 81.372,30.284 C80.8199972,30.3880005 80.4080014,30.4959994 80.136,30.608 L79.872,28.76 C80.1600014,28.6319994 80.6399966,28.5080006 81.312,28.388 C81.9840034,28.2679994 82.7119961,28.208 83.496,28.208 Z M100.656,34.784 C100.656,33.3279927 100.296004,32.2080039 99.576,31.424 C98.8559964,30.6399961 97.896006,30.248 96.696,30.248 C96.0239966,30.248 95.5000019,30.2719998 95.124,30.32 C94.7479981,30.3680002 94.4480011,30.4239997 94.224,30.488 L94.224,38.36 C94.4960014,38.5840011 94.8879974,38.799999 95.4,39.008 C95.9120026,39.216001 96.471997,39.32 97.08,39.32 C97.7200032,39.32 98.2679977,39.2040012 98.724,38.972 C99.1800023,38.7399988 99.5519986,38.420002 99.84,38.012 C100.128001,37.603998 100.335999,37.1240028 100.464,36.572 C100.592001,36.0199972 100.656,35.4240032 100.656,34.784 Z M102.984,34.784 C102.984,35.7280047 102.860001,36.599996 102.612,37.4 C102.363999,38.200004 102.000002,38.8879971 101.52,39.464 C101.039998,40.0400029 100.452003,40.4879984 99.756,40.808 C99.0599965,41.1280016 98.2640045,41.288 97.368,41.288 C96.6479964,41.288 96.0120028,41.192001 95.46,41 C94.9079972,40.807999 94.4960014,40.6240009 94.224,40.448 L94.224,45.44 L91.992,45.44 L91.992,28.904 C92.5200026,28.7759994 93.179996,28.6360008 93.972,28.484 C94.764004,28.3319992 95.6799948,28.256 96.72,28.256 C97.6800048,28.256 98.5439962,28.4079985 99.312,28.712 C100.080004,29.0160015 100.735997,29.4479972 101.28,30.008 C101.824003,30.5680028 102.243999,31.251996 102.54,32.06 C102.836001,32.868004 102.984,33.775995 102.984,34.784 Z M115.68,39.344 C118.112012,39.344 119.328,38.5120083 119.328,36.848 C119.328,36.3359974 119.220001,35.9000018 119.004,35.54 C118.787999,35.1799982 118.496002,34.8680013 118.128,34.604 C117.759998,34.3399987 117.340002,34.112001 116.868,33.92 C116.395998,33.727999 115.896003,33.536001 115.368,33.344 C114.759997,33.135999 114.184003,32.9000013 113.64,32.636 C113.095997,32.3719987 112.624002,32.0600018 112.224,31.7 C111.823998,31.3399982 111.508001,30.9120025 111.276,30.416 C111.043999,29.9199975 110.928,29.3200035 110.928,28.616 C110.928,27.1599927 111.423995,26.0240041 112.416,25.208 C113.408005,24.3919959 114.775991,23.984 116.52,23.984 C117.528005,23.984 118.443996,24.0919989 119.268,24.308 C120.092004,24.5240011 120.695998,24.7599987 121.08,25.016 L120.336,26.912 C119.999998,26.703999 119.500003,26.500001 118.836,26.3 C118.171997,26.099999 117.400004,26 116.52,26 C116.071998,26 115.656002,26.0479995 115.272,26.144 C114.887998,26.2400005 114.552001,26.383999 114.264,26.576 C113.975999,26.768001 113.748001,27.0119985 113.58,27.308 C113.411999,27.6040015 113.328,27.951998 113.328,28.352 C113.328,28.8000022 113.415999,29.1759985 113.592,29.48 C113.768001,29.7840015 114.015998,30.0519988 114.336,30.284 C114.656002,30.5160012 115.027998,30.727999 115.452,30.92 C115.876002,31.112001 116.343997,31.303999 116.856,31.496 C117.576004,31.7840014 118.235997,32.0719986 118.836,32.36 C119.436003,32.6480014 119.955998,32.991998 120.396,33.392 C120.836002,33.792002 121.175999,34.2679972 121.416,34.82 C121.656001,35.3720028 121.776,36.0399961 121.776,36.824 C121.776,38.2800073 121.244005,39.3999961 120.18,40.184 C119.115995,40.9680039 117.61601,41.36 115.68,41.36 C115.023997,41.36 114.420003,41.3160004 113.868,41.228 C113.315997,41.1399996 112.824002,41.0360006 112.392,40.916 C111.959998,40.7959994 111.588002,40.6680007 111.276,40.532 C110.963998,40.3959993 110.720001,40.2800005 110.544,40.184 L111.24,38.264 C111.608002,38.472001 112.167996,38.7039987 112.92,38.96 C113.672004,39.2160013 114.591995,39.344 115.68,39.344 Z M126.528,28.52 L131.256,28.52 L131.256,30.392 L126.528,30.392 L126.528,36.152 C126.528,36.7760031 126.576,37.291998 126.672,37.7 C126.768,38.108002 126.911999,38.4279988 127.104,38.66 C127.296001,38.8920012 127.535999,39.0559995 127.824,39.152 C128.112001,39.2480005 128.447998,39.296 128.832,39.296 C129.504003,39.296 130.043998,39.2200008 130.452,39.068 C130.860002,38.9159992 131.143999,38.8080003 131.304,38.744 L131.736,40.592 C131.511999,40.7040006 131.120003,40.8439992 130.56,41.012 C129.999997,41.1800008 129.360004,41.264 128.64,41.264 C127.791996,41.264 127.092003,41.1560011 126.54,40.94 C125.987997,40.7239989 125.544002,40.4000022 125.208,39.968 C124.871998,39.5359978 124.636001,39.0040032 124.5,38.372 C124.363999,37.7399968 124.296,37.0080042 124.296,36.176 L124.296,25.04 L126.528,24.656 L126.528,28.52 Z M144.768,34.76 C144.768,35.752005 144.624001,36.647996 144.336,37.448 C144.047999,38.248004 143.644003,38.9359971 143.124,39.512 C142.603997,40.0880029 141.984004,40.5319984 141.264,40.844 C140.543996,41.1560016 139.760004,41.312 138.912,41.312 C138.063996,41.312 137.280004,41.1560016 136.56,40.844 C135.839996,40.5319984 135.220003,40.0880029 134.7,39.512 C134.179997,38.9359971 133.776001,38.248004 133.488,37.448 C133.199999,36.647996 133.056,35.752005 133.056,34.76 C133.056,33.7839951 133.199999,32.892004 133.488,32.084 C133.776001,31.275996 134.179997,30.5840029 134.7,30.008 C135.220003,29.4319971 135.839996,28.9880016 136.56,28.676 C137.280004,28.3639984 138.063996,28.208 138.912,28.208 C139.760004,28.208 140.543996,28.3639984 141.264,28.676 C141.984004,28.9880016 142.603997,29.4319971 143.124,30.008 C143.644003,30.5840029 144.047999,31.275996 144.336,32.084 C144.624001,32.892004 144.768,33.7839951 144.768,34.76 Z M142.44,34.76 C142.44,33.351993 142.124003,32.2360041 141.492,31.412 C140.859997,30.5879959 140.000005,30.176 138.912,30.176 C137.823995,30.176 136.964003,30.5879959 136.332,31.412 C135.699997,32.2360041 135.384,33.351993 135.384,34.76 C135.384,36.168007 135.699997,37.2839959 136.332,38.108 C136.964003,38.9320041 137.823995,39.344 138.912,39.344 C140.000005,39.344 140.859997,38.9320041 141.492,38.108 C142.124003,37.2839959 142.44,36.168007 142.44,34.76 Z M152.52,28.256 C152.712001,28.256 152.931999,28.2679999 153.18,28.292 C153.428001,28.3160001 153.671999,28.3479998 153.912,28.388 C154.152001,28.4280002 154.371999,28.4679998 154.572,28.508 C154.772001,28.5480002 154.92,28.5839998 155.016,28.616 L154.632,30.56 C154.455999,30.4959997 154.164002,30.4200004 153.756,30.332 C153.347998,30.2439996 152.824003,30.2 152.184,30.2 C151.767998,30.2 151.356002,30.2439996 150.948,30.332 C150.539998,30.4200004 150.272001,30.4799998 150.144,30.512 L150.144,41 L147.912,41 L147.912,29.048 C148.440003,28.855999 149.095996,28.6760008 149.88,28.508 C150.664004,28.3399992 151.543995,28.256 152.52,28.256 Z M156.48,34.784 C156.48,33.6799945 156.639998,32.7160041 156.96,31.892 C157.280002,31.0679959 157.703997,30.3840027 158.232,29.84 C158.760003,29.2959973 159.367997,28.8880014 160.056,28.616 C160.744003,28.3439986 161.447996,28.208 162.168,28.208 C163.848008,28.208 165.135996,28.7319948 166.032,29.78 C166.928004,30.8280052 167.376,32.4239893 167.376,34.568 L167.376,34.94 C167.376,35.0920008 167.368,35.2319994 167.352,35.36 L158.808,35.36 C158.904,36.6560065 159.279997,37.6399966 159.936,38.312 C160.592003,38.9840034 161.615993,39.32 163.008,39.32 C163.792004,39.32 164.451997,39.2520007 164.988,39.116 C165.524003,38.9799993 165.927999,38.8480006 166.2,38.72 L166.512,40.592 C166.239999,40.7360007 165.764003,40.8879992 165.084,41.048 C164.403997,41.2080008 163.632004,41.288 162.768,41.288 C161.679995,41.288 160.740004,41.1240016 159.948,40.796 C159.155996,40.4679984 158.504003,40.0160029 157.992,39.44 C157.479997,38.8639971 157.100001,38.180004 156.852,37.388 C156.603999,36.595996 156.48,35.7280047 156.48,34.784 Z M165.048,33.56 C165.064,32.551995 164.812003,31.7240032 164.292,31.076 C163.771997,30.4279968 163.056005,30.104 162.144,30.104 C161.631997,30.104 161.180002,30.203999 160.788,30.404 C160.395998,30.604001 160.064001,30.8639984 159.792,31.184 C159.519999,31.5040016 159.308001,31.8719979 159.156,32.288 C159.003999,32.7040021 158.904,33.1279978 158.856,33.56 L165.048,33.56 Z" id="Snap-Store" fill="#111111"></path>
            </g>
        </g>
    </g>
</svg>