<?xml version="1.0" encoding="UTF-8" standalone="no"?>
<svg
   width="182px"
   height="56px"
   viewBox="0 0 182 56"
   version="1.1"
   id="svg1240"
   sodipodi:docname="[zh-CN]-snap-store-black-uneditable.svg"
   inkscape:version="1.2.2 (b0a84865, 2022-12-01)"
   xmlns:inkscape="http://www.inkscape.org/namespaces/inkscape"
   xmlns:sodipodi="http://sodipodi.sourceforge.net/DTD/sodipodi-0.dtd"
   xmlns="http://www.w3.org/2000/svg"
   xmlns:svg="http://www.w3.org/2000/svg">
  <defs
     id="defs1244" />
  <sodipodi:namedview
     id="namedview1242"
     pagecolor="#ffffff"
     bordercolor="#000000"
     borderopacity="0.25"
     inkscape:showpageshadow="2"
     inkscape:pageopacity="0.0"
     inkscape:pagecheckerboard="0"
     inkscape:deskcolor="#d1d1d1"
     showgrid="false"
     inkscape:zoom="6.8681319"
     inkscape:cx="60.7152"
     inkscape:cy="28.028"
     inkscape:window-width="1394"
     inkscape:window-height="933"
     inkscape:window-x="580"
     inkscape:window-y="56"
     inkscape:window-maximized="0"
     inkscape:current-layer="[TW]-snap-store-black-uneditable" />
  <!-- Generator: Sketch 52.3 (67297) - http://www.bohemiancoding.com/sketch -->
  <title
     id="title1229">[TW]-snap-store-black-uneditable</title>
  <desc
     id="desc1231">Created with Sketch.</desc>
  <g
     id="[TW]-snap-store-black-uneditable"
     stroke="none"
     stroke-width="1"
     fill="none"
     fill-rule="evenodd">
    <rect
       id="Rectangle-path"
       stroke="#CDCDCD"
       fill="#252525"
       x="0"
       y="0"
       width="182"
       height="56"
       rx="2" />
    <g
       id="logo"
       transform="translate(8.000000, 11.000000)"
       fill-rule="nonzero">
      <path
         d="M18.9875172,17.8017143 L18.9875172,7.33085714 L26.2054138,10.5525714 L18.9875172,17.8017143 Z M5.20774138,31.6411429 L14.058569,14.9742857 L17.9423276,18.852 L5.20774138,31.6411429 Z M0.160180862,0.233262857 L18.3753103,6.84571429 L18.3753103,18.4171429 L0.160180862,0.233262857 Z"
         id="body"
         fill="#82BEA0" />
      <polygon
         id="head"
         fill="#FA6441"
         points="29.8968621 6.84514286 19.4057069 6.84514286 32.8936034 12.8657143" />
    </g>
    <path
       d="M55.928,39.344 C58.3600122,39.344 59.576,38.5120083 59.576,36.848 C59.576,36.3359974 59.4680011,35.9000018 59.252,35.54 C59.0359989,35.1799982 58.7440018,34.8680013 58.376,34.604 C58.0079982,34.3399987 57.5880024,34.112001 57.116,33.92 C56.6439976,33.727999 56.1440026,33.536001 55.616,33.344 C55.007997,33.135999 54.4320027,32.9000013 53.888,32.636 C53.3439973,32.3719987 52.872002,32.0600018 52.472,31.7 C52.071998,31.3399982 51.7560012,30.9120025 51.524,30.416 C51.2919988,29.9199975 51.176,29.3200035 51.176,28.616 C51.176,27.1599927 51.671995,26.0240041 52.664,25.208 C53.656005,24.3919959 55.0239913,23.984 56.768,23.984 C57.776005,23.984 58.6919959,24.0919989 59.516,24.308 C60.3400041,24.5240011 60.9439981,24.7599987 61.328,25.016 L60.584,26.912 C60.2479983,26.703999 59.7480033,26.500001 59.084,26.3 C58.4199967,26.099999 57.6480044,26 56.768,26 C56.3199978,26 55.9040019,26.0479995 55.52,26.144 C55.1359981,26.2400005 54.8000014,26.383999 54.512,26.576 C54.2239986,26.768001 53.9960008,27.0119985 53.828,27.308 C53.6599992,27.6040015 53.576,27.951998 53.576,28.352 C53.576,28.8000022 53.6639991,29.1759985 53.84,29.48 C54.0160009,29.7840015 54.2639984,30.0519988 54.584,30.284 C54.9040016,30.5160012 55.2759979,30.727999 55.7,30.92 C56.1240021,31.112001 56.5919974,31.303999 57.104,31.496 C57.8240036,31.7840014 58.483997,32.0719986 59.084,32.36 C59.684003,32.6480014 60.2039978,32.991998 60.644,33.392 C61.0840022,33.792002 61.4239988,34.2679972 61.664,34.82 C61.9040012,35.3720028 62.024,36.0399961 62.024,36.824 C62.024,38.2800073 61.4920053,39.3999961 60.428,40.184 C59.3639947,40.9680039 57.8640097,41.36 55.928,41.36 C55.2719967,41.36 54.6680028,41.3160004 54.116,41.228 C53.5639972,41.1399996 53.0720022,41.0360006 52.64,40.916 C52.2079978,40.7959994 51.8360016,40.6680007 51.524,40.532 C51.2119984,40.3959993 50.9680009,40.2800005 50.792,40.184 L51.488,38.264 C51.8560018,38.472001 52.4159962,38.7039987 53.168,38.96 C53.9200038,39.2160013 54.8399946,39.344 55.928,39.344 Z M64.688,28.88 C65.2000026,28.7519994 65.8799958,28.6160007 66.728,28.472 C67.5760042,28.3279993 68.5519945,28.256 69.656,28.256 C70.648005,28.256 71.4719967,28.3959986 72.128,28.676 C72.7840033,28.9560014 73.307998,29.3479975 73.7,29.852 C74.092002,30.3560025 74.3679992,30.9599965 74.528,31.664 C74.6880008,32.3680035 74.768,33.1439958 74.768,33.992 L74.768,41 L72.536,41 L72.536,34.472 C72.536,33.7039962 72.4840005,33.0480027 72.38,32.504 C72.2759995,31.9599973 72.1040012,31.5200017 71.864,31.184 C71.6239988,30.8479983 71.304002,30.6040008 70.904,30.452 C70.503998,30.2999992 70.008003,30.224 69.416,30.224 C69.1759988,30.224 68.9280013,30.2319999 68.672,30.248 C68.4159987,30.2640001 68.1720012,30.2839999 67.94,30.308 C67.7079988,30.3320001 67.5000009,30.3599998 67.316,30.392 C67.1319991,30.4240002 67.0000004,30.4479999 66.92,30.464 L66.92,41 L64.688,41 L64.688,28.88 Z M82.688,39.392 C83.2160026,39.392 83.683998,39.3800001 84.092,39.356 C84.500002,39.3319999 84.8399986,39.2880003 85.112,39.224 L85.112,35.504 C84.9519992,35.4239996 84.6920018,35.3560003 84.332,35.3 C83.9719982,35.2439997 83.5360026,35.216 83.024,35.216 C82.6879983,35.216 82.3320019,35.2399998 81.956,35.288 C81.5799981,35.3360002 81.2360016,35.4359992 80.924,35.588 C80.6119984,35.7400008 80.352001,35.9479987 80.144,36.212 C79.935999,36.4760013 79.832,36.8239978 79.832,37.256 C79.832,38.056004 80.0879974,38.6119984 80.6,38.924 C81.1120026,39.2360016 81.8079956,39.392 82.688,39.392 Z M82.496,28.208 C83.3920045,28.208 84.1479969,28.3239988 84.764,28.556 C85.3800031,28.7880012 85.8759981,29.1159979 86.252,29.54 C86.6280019,29.9640021 86.8959992,30.4679971 87.056,31.052 C87.2160008,31.6360029 87.296,32.2799965 87.296,32.984 L87.296,40.784 C87.103999,40.8160002 86.8360017,40.8599997 86.492,40.916 C86.1479983,40.9720003 85.7600022,41.0239998 85.328,41.072 C84.8959978,41.1200002 84.4280025,41.1639998 83.924,41.204 C83.4199975,41.2440002 82.9200025,41.264 82.424,41.264 C81.7199965,41.264 81.072003,41.1920007 80.48,41.048 C79.887997,40.9039993 79.3760022,40.6760016 78.944,40.364 C78.5119978,40.0519984 78.1760012,39.6400026 77.936,39.128 C77.6959988,38.6159974 77.576,38.0000036 77.576,37.28 C77.576,36.5919966 77.7159986,36.0000025 77.996,35.504 C78.2760014,35.0079975 78.6559976,34.6080015 79.136,34.304 C79.6160024,33.9999985 80.1759968,33.7760007 80.816,33.632 C81.4560032,33.4879993 82.1279965,33.416 82.832,33.416 C83.0560011,33.416 83.2879988,33.4279999 83.528,33.452 C83.7680012,33.4760001 83.9959989,33.5079998 84.212,33.548 C84.4280011,33.5880002 84.6159992,33.6239998 84.776,33.656 C84.9360008,33.6880002 85.0479997,33.7119999 85.112,33.728 L85.112,33.104 C85.112,32.7359982 85.0720004,32.3720018 84.992,32.012 C84.9119996,31.6519982 84.768001,31.3320014 84.56,31.052 C84.351999,30.7719986 84.0680018,30.5480008 83.708,30.38 C83.3479982,30.2119992 82.8800029,30.128 82.304,30.128 C81.5679963,30.128 80.9240028,30.1799995 80.372,30.284 C79.8199972,30.3880005 79.4080014,30.4959994 79.136,30.608 L78.872,28.76 C79.1600014,28.6319994 79.6399966,28.5080006 80.312,28.388 C80.9840034,28.2679994 81.7119961,28.208 82.496,28.208 Z M99.656,34.784 C99.656,33.3279927 99.2960036,32.2080039 98.576,31.424 C97.8559964,30.6399961 96.896006,30.248 95.696,30.248 C95.0239966,30.248 94.5000019,30.2719998 94.124,30.32 C93.7479981,30.3680002 93.4480011,30.4239997 93.224,30.488 L93.224,38.36 C93.4960014,38.5840011 93.8879974,38.799999 94.4,39.008 C94.9120026,39.216001 95.471997,39.32 96.08,39.32 C96.7200032,39.32 97.2679977,39.2040012 97.724,38.972 C98.1800023,38.7399988 98.5519986,38.420002 98.84,38.012 C99.1280014,37.603998 99.3359994,37.1240028 99.464,36.572 C99.5920006,36.0199972 99.656,35.4240032 99.656,34.784 Z M101.984,34.784 C101.984,35.7280047 101.860001,36.599996 101.612,37.4 C101.363999,38.200004 101.000002,38.8879971 100.52,39.464 C100.039998,40.0400029 99.4520035,40.4879984 98.756,40.808 C98.0599965,41.1280016 97.2640045,41.288 96.368,41.288 C95.6479964,41.288 95.0120028,41.192001 94.46,41 C93.9079972,40.807999 93.4960014,40.6240009 93.224,40.448 L93.224,45.44 L90.992,45.44 L90.992,28.904 C91.5200026,28.7759994 92.179996,28.6360008 92.972,28.484 C93.764004,28.3319992 94.6799948,28.256 95.72,28.256 C96.6800048,28.256 97.5439962,28.4079985 98.312,28.712 C99.0800038,29.0160015 99.7359973,29.4479972 100.28,30.008 C100.824003,30.5680028 101.243999,31.251996 101.54,32.06 C101.836001,32.868004 101.984,33.775995 101.984,34.784 Z M114.68,39.344 C117.112012,39.344 118.328,38.5120083 118.328,36.848 C118.328,36.3359974 118.220001,35.9000018 118.004,35.54 C117.787999,35.1799982 117.496002,34.8680013 117.128,34.604 C116.759998,34.3399987 116.340002,34.112001 115.868,33.92 C115.395998,33.727999 114.896003,33.536001 114.368,33.344 C113.759997,33.135999 113.184003,32.9000013 112.64,32.636 C112.095997,32.3719987 111.624002,32.0600018 111.224,31.7 C110.823998,31.3399982 110.508001,30.9120025 110.276,30.416 C110.043999,29.9199975 109.928,29.3200035 109.928,28.616 C109.928,27.1599927 110.423995,26.0240041 111.416,25.208 C112.408005,24.3919959 113.775991,23.984 115.52,23.984 C116.528005,23.984 117.443996,24.0919989 118.268,24.308 C119.092004,24.5240011 119.695998,24.7599987 120.08,25.016 L119.336,26.912 C118.999998,26.703999 118.500003,26.500001 117.836,26.3 C117.171997,26.099999 116.400004,26 115.52,26 C115.071998,26 114.656002,26.0479995 114.272,26.144 C113.887998,26.2400005 113.552001,26.383999 113.264,26.576 C112.975999,26.768001 112.748001,27.0119985 112.58,27.308 C112.411999,27.6040015 112.328,27.951998 112.328,28.352 C112.328,28.8000022 112.415999,29.1759985 112.592,29.48 C112.768001,29.7840015 113.015998,30.0519988 113.336,30.284 C113.656002,30.5160012 114.027998,30.727999 114.452,30.92 C114.876002,31.112001 115.343997,31.303999 115.856,31.496 C116.576004,31.7840014 117.235997,32.0719986 117.836,32.36 C118.436003,32.6480014 118.955998,32.991998 119.396,33.392 C119.836002,33.792002 120.175999,34.2679972 120.416,34.82 C120.656001,35.3720028 120.776,36.0399961 120.776,36.824 C120.776,38.2800073 120.244005,39.3999961 119.18,40.184 C118.115995,40.9680039 116.61601,41.36 114.68,41.36 C114.023997,41.36 113.420003,41.3160004 112.868,41.228 C112.315997,41.1399996 111.824002,41.0360006 111.392,40.916 C110.959998,40.7959994 110.588002,40.6680007 110.276,40.532 C109.963998,40.3959993 109.720001,40.2800005 109.544,40.184 L110.24,38.264 C110.608002,38.472001 111.167996,38.7039987 111.92,38.96 C112.672004,39.2160013 113.591995,39.344 114.68,39.344 Z M125.528,28.52 L130.256,28.52 L130.256,30.392 L125.528,30.392 L125.528,36.152 C125.528,36.7760031 125.576,37.291998 125.672,37.7 C125.768,38.108002 125.911999,38.4279988 126.104,38.66 C126.296001,38.8920012 126.535999,39.0559995 126.824,39.152 C127.112001,39.2480005 127.447998,39.296 127.832,39.296 C128.504003,39.296 129.043998,39.2200008 129.452,39.068 C129.860002,38.9159992 130.143999,38.8080003 130.304,38.744 L130.736,40.592 C130.511999,40.7040006 130.120003,40.8439992 129.56,41.012 C128.999997,41.1800008 128.360004,41.264 127.64,41.264 C126.791996,41.264 126.092003,41.1560011 125.54,40.94 C124.987997,40.7239989 124.544002,40.4000022 124.208,39.968 C123.871998,39.5359978 123.636001,39.0040032 123.5,38.372 C123.363999,37.7399968 123.296,37.0080042 123.296,36.176 L123.296,25.04 L125.528,24.656 L125.528,28.52 Z M143.768,34.76 C143.768,35.752005 143.624001,36.647996 143.336,37.448 C143.047999,38.248004 142.644003,38.9359971 142.124,39.512 C141.603997,40.0880029 140.984004,40.5319984 140.264,40.844 C139.543996,41.1560016 138.760004,41.312 137.912,41.312 C137.063996,41.312 136.280004,41.1560016 135.56,40.844 C134.839996,40.5319984 134.220003,40.0880029 133.7,39.512 C133.179997,38.9359971 132.776001,38.248004 132.488,37.448 C132.199999,36.647996 132.056,35.752005 132.056,34.76 C132.056,33.7839951 132.199999,32.892004 132.488,32.084 C132.776001,31.275996 133.179997,30.5840029 133.7,30.008 C134.220003,29.4319971 134.839996,28.9880016 135.56,28.676 C136.280004,28.3639984 137.063996,28.208 137.912,28.208 C138.760004,28.208 139.543996,28.3639984 140.264,28.676 C140.984004,28.9880016 141.603997,29.4319971 142.124,30.008 C142.644003,30.5840029 143.047999,31.275996 143.336,32.084 C143.624001,32.892004 143.768,33.7839951 143.768,34.76 Z M141.44,34.76 C141.44,33.351993 141.124003,32.2360041 140.492,31.412 C139.859997,30.5879959 139.000005,30.176 137.912,30.176 C136.823995,30.176 135.964003,30.5879959 135.332,31.412 C134.699997,32.2360041 134.384,33.351993 134.384,34.76 C134.384,36.168007 134.699997,37.2839959 135.332,38.108 C135.964003,38.9320041 136.823995,39.344 137.912,39.344 C139.000005,39.344 139.859997,38.9320041 140.492,38.108 C141.124003,37.2839959 141.44,36.168007 141.44,34.76 Z M151.52,28.256 C151.712001,28.256 151.931999,28.2679999 152.18,28.292 C152.428001,28.3160001 152.671999,28.3479998 152.912,28.388 C153.152001,28.4280002 153.371999,28.4679998 153.572,28.508 C153.772001,28.5480002 153.92,28.5839998 154.016,28.616 L153.632,30.56 C153.455999,30.4959997 153.164002,30.4200004 152.756,30.332 C152.347998,30.2439996 151.824003,30.2 151.184,30.2 C150.767998,30.2 150.356002,30.2439996 149.948,30.332 C149.539998,30.4200004 149.272001,30.4799998 149.144,30.512 L149.144,41 L146.912,41 L146.912,29.048 C147.440003,28.855999 148.095996,28.6760008 148.88,28.508 C149.664004,28.3399992 150.543995,28.256 151.52,28.256 Z M155.48,34.784 C155.48,33.6799945 155.639998,32.7160041 155.96,31.892 C156.280002,31.0679959 156.703997,30.3840027 157.232,29.84 C157.760003,29.2959973 158.367997,28.8880014 159.056,28.616 C159.744003,28.3439986 160.447996,28.208 161.168,28.208 C162.848008,28.208 164.135996,28.7319948 165.032,29.78 C165.928004,30.8280052 166.376,32.4239893 166.376,34.568 L166.376,34.94 C166.376,35.0920008 166.368,35.2319994 166.352,35.36 L157.808,35.36 C157.904,36.6560065 158.279997,37.6399966 158.936,38.312 C159.592003,38.9840034 160.615993,39.32 162.008,39.32 C162.792004,39.32 163.451997,39.2520007 163.988,39.116 C164.524003,38.9799993 164.927999,38.8480006 165.2,38.72 L165.512,40.592 C165.239999,40.7360007 164.764003,40.8879992 164.084,41.048 C163.403997,41.2080008 162.632004,41.288 161.768,41.288 C160.679995,41.288 159.740004,41.1240016 158.948,40.796 C158.155996,40.4679984 157.504003,40.0160029 156.992,39.44 C156.479997,38.8639971 156.100001,38.180004 155.852,37.388 C155.603999,36.595996 155.48,35.7280047 155.48,34.784 Z M164.048,33.56 C164.064,32.551995 163.812003,31.7240032 163.292,31.076 C162.771997,30.4279968 162.056005,30.104 161.144,30.104 C160.631997,30.104 160.180002,30.203999 159.788,30.404 C159.395998,30.604001 159.064001,30.8639984 158.792,31.184 C158.519999,31.5040016 158.308001,31.8719979 158.156,32.288 C158.003999,32.7040021 157.904,33.1279978 157.856,33.56 L164.048,33.56 Z"
       id="Snap-Store"
       fill="#FFFFFF" />
  </g>
  <path
     id="path1135"
     d="m 123.09585,13.904971 h 2.28362 v -0.757383 h -2.28362 V 11.91971 h -0.81476 v 1.227878 h -2.23773 v 0.757383 h 2.23773 v 1.927884 c -0.99837,0.172133 -1.92789,0.344265 -2.62789,0.45902 l 0.18361,0.79181 c 1.50329,-0.286888 3.67216,-0.700006 5.70332,-1.090173 l -0.0574,-0.745907 c -0.79181,0.149181 -1.60657,0.298363 -2.3869,0.447544 z M 119.745,8.695094 h 1.81313 c -0.36722,0.814761 -0.82624,1.526242 -0.99837,1.755752 -0.19508,0.275412 -0.36721,0.470495 -0.55082,0.504922 0.10328,0.218034 0.24098,0.619677 0.28689,0.803285 0.27541,-0.126231 0.68853,-0.172133 4.25741,-0.516398 0.17213,0.263937 0.30983,0.516398 0.40164,0.711481 l 0.6541,-0.424593 c -0.33279,-0.654104 -1.09017,-1.686899 -1.7328,-2.455757 l -0.6082,0.367216 c 0.27541,0.344265 0.57377,0.734432 0.84919,1.136074 l -2.92626,0.252461 c 0.45902,-0.608201 0.92952,-1.37706 1.31969,-2.134443 h 3.09838 V 7.937711 H 119.745 Z m 7.29842,-0.516397 h -0.80329 v 6.896775 h 0.80329 z m 1.44591,-0.803285 v 8.962365 c 0,0.195084 -0.0459,0.240986 -0.24098,0.252461 -0.19509,0.01148 -0.82624,0.01148 -1.49182,-0.01148 0.12623,0.22951 0.27541,0.619677 0.30984,0.837711 0.82624,0 1.43444,-0.02295 1.79018,-0.160657 0.34426,-0.12623 0.47049,-0.390167 0.47049,-0.929515 V 7.375412 Z m -17.52306,1.755751 c -0.35574,-0.45902 -1.13608,-1.170501 -1.7328,-1.675423 l -0.55083,0.504922 c 0.59673,0.539349 1.35411,1.285256 1.69838,1.767227 z m -0.49345,6.52956 V 10.77216 h -2.53608 v 0.81476 h 1.70985 v 4.165607 c 0,0.504922 -0.32132,0.849187 -0.53935,0.975417 0.14918,0.172133 0.36721,0.527873 0.44754,0.722957 0.17213,-0.218035 0.4705,-0.470496 2.38691,-1.950835 -0.0918,-0.160657 -0.24099,-0.481971 -0.29837,-0.711481 z m 2.61642,-0.390167 V 14.34104 h 3.58035 v 0.929516 z m 3.58035,-2.409855 v 0.883613 h -3.58035 v -0.883613 z m 0.81476,-0.665579 h -5.1984 v 5.462338 h 0.80329 v -1.767227 h 3.58035 v 0.803285 c 0,0.149181 -0.0459,0.195083 -0.21803,0.195083 -0.13771,0.01148 -0.68853,0.01148 -1.27378,-0.01148 0.10328,0.218034 0.21803,0.527873 0.25246,0.734432 0.81476,0.01148 1.31968,0 1.65247,-0.126231 0.30984,-0.12623 0.40164,-0.344265 0.40164,-0.780334 z m -2.19182,-1.308207 V 10.08363 h 2.40986 V 9.463953 h -2.40986 V 8.740996 h 2.75412 V 8.086893 h -2.75412 V 7.191804 h -0.83771 v 0.895089 h -2.63936 v 0.654103 h 2.63936 v 0.722957 h -2.36395 v 0.619677 h 2.36395 v 0.803285 h -2.98363 v 0.654103 h 6.90825 V 10.886915 Z M 97.746509,18.0132 c 1.20493,-0.424593 1.98526,-1.365584 1.98526,-2.604938 0,-0.803285 -0.34426,-1.319683 -0.97541,-1.319683 -0.4705,0 -0.87214,0.286888 -0.87214,0.826236 0,0.539349 0.39016,0.814761 0.86066,0.814761 0.0688,0 0.12623,0 0.19508,-0.01148 -0.0574,0.780334 -0.5623,1.319683 -1.44591,1.686899 z m -7.05741,-4.659053 v -1.904933 h 3.08691 v 1.904933 z m -3.63773,0 c 0.0344,-0.424593 0.0459,-0.849187 0.0459,-1.227878 v -0.677055 h 2.74264 v 1.904933 z m 2.78854,-4.544298 v 1.83608 h -2.74264 v -1.83608 z m 3.9361,1.83608 h -3.08691 v -1.83608 h 3.08691 z m 0.83771,-2.65084 h -8.35416 v 4.13118 c 0,1.595094 -0.11476,3.614782 -1.37706,5.037744 0.18361,0.10328 0.52787,0.390167 0.6541,0.5623 0.87214,-0.975418 1.26231,-2.283625 1.43444,-3.557405 h 2.86887 v 3.385272 h 0.84919 v -3.385272 h 3.08691 v 2.329526 c 0,0.218035 -0.0803,0.286888 -0.30984,0.298363 -0.20656,0 -0.98689,0.01148 -1.79018,-0.02295 0.11476,0.22951 0.25247,0.596726 0.28689,0.826236 1.0787,0.01148 1.74428,0 2.13444,-0.137706 0.36722,-0.149181 0.5164,-0.401642 0.5164,-0.952466 z M 83.769399,9.463953 V 8.649192 h -3.83282 C 79.787399,8.24755 79.477559,7.593446 79.190669,7.1 l -0.82623,0.206559 c 0.21803,0.413118 0.45902,0.940991 0.6082,1.342633 h -4.55578 v 3.121336 c 0,1.618046 -0.0803,3.878719 -0.95246,5.50824 0.18361,0.08033 0.58525,0.321314 0.72295,0.470496 0.92952,-1.70985 1.0787,-4.257411 1.0787,-5.978736 V 9.463953 Z m -3.50003,4.750857 c -0.17213,-1.067222 -0.59673,-2.662316 -0.98689,-3.890195 l -0.76886,0.206559 c 0.37869,1.239354 0.79181,2.8574 0.95246,3.913146 z m -2.2033,0.550824 c -0.24098,-1.055746 -0.79181,-2.650841 -1.29673,-3.890195 l -0.73443,0.298363 c 0.4705,1.227879 1.02132,2.8574 1.23935,3.913146 z m 2.75412,1.549192 c 1.04427,-1.767227 1.89346,-3.844292 2.44428,-5.73775 l -0.89508,-0.321314 c -0.44755,1.962311 -1.31969,4.291837 -2.42133,6.059064 h -4.53283 v 0.814761 h 8.50335 v -0.814761 z m -8.85906,-7.436124 c -0.26394,-0.424593 -0.89509,-1.04427 -1.41149,-1.445913 l -0.6082,0.390167 c 0.5164,0.447545 1.1246,1.078697 1.38854,1.503291 z m -3.74101,6.311525 c -0.67706,0.06885 -1.38854,0.137706 -2.06559,0.195084 v -1.067222 h 1.81312 v -0.734432 h -1.81312 v -0.929515 h -0.80329 v 0.929515 h -1.58362 c 0.24099,-0.378691 0.49345,-0.826236 0.73443,-1.285256 h 3.70659 v -0.700005 h -3.3738 c 0.13771,-0.286888 0.26394,-0.585251 0.37869,-0.895089 l -0.83771,-0.218035 c -0.11475,0.378692 -0.26393,0.757383 -0.42459,1.113124 h -1.60657 v 0.700005 h 1.29673 c -0.19508,0.378692 -0.34426,0.68853 -0.43607,0.826236 -0.1836,0.309839 -0.35574,0.539349 -0.52787,0.573775 0.10328,0.206559 0.21803,0.608202 0.26394,0.780334 0.10328,-0.0918 0.44754,-0.160657 0.91804,-0.160657 h 1.49181 v 1.136075 c -1.18197,0.103279 -2.2492,0.195083 -3.06396,0.252461 l 0.0918,0.791809 c 0.82624,-0.0918 1.85903,-0.195083 2.97216,-0.309838 v 1.422962 h 0.80328 v -1.491815 c 0.68853,-0.06885 1.37706,-0.137706 2.06559,-0.218035 z m 2.89182,-4.142655 c -0.28688,1.078697 -0.72295,2.145918 -1.25083,3.098385 -0.20656,-1.009844 -0.36721,-2.260674 -0.44754,-3.683636 h 2.97215 v -0.68853 h -3.01805 c -0.0344,-0.803285 -0.0459,-1.663947 -0.0344,-2.559036 h -0.83772 c 0,0.872138 0.0229,1.744276 0.0688,2.559036 h -2.81149 V 8.798374 h 2.01969 v -0.68853 h -2.01969 v -0.91804 h -0.81476 v 0.91804 h -2.18034 v 0.68853 h 2.18034 v 0.975417 h -2.76559 v 0.68853 h 6.4148 c 0.11476,1.813129 0.33279,3.419699 0.67706,4.647578 -0.55083,0.791809 -1.20493,1.480339 -1.92789,1.996737 0.19509,0.149181 0.45902,0.401642 0.58525,0.58525 0.6082,-0.481971 1.15903,-1.04427 1.66395,-1.675423 0.42459,0.975418 0.98689,1.549193 1.7328,1.549193 0.79181,0 1.06722,-0.516398 1.20493,-2.226247 -0.20656,-0.08033 -0.49345,-0.240986 -0.66558,-0.436069 -0.0688,1.342633 -0.18361,1.83608 -0.4705,1.83608 -0.49344,0 -0.91804,-0.550824 -1.23935,-1.537717 0.74591,-1.170501 1.33116,-2.52461 1.7328,-3.936097 z M 60.852869,8.878702 V 8.029515 H 50.72 v 0.849187 h 4.383641 v 8.767282 h 0.906568 v -6.036113 c 1.3082,0.700006 2.84592,1.640997 3.62625,2.283625 l 0.59673,-0.768859 c -0.90656,-0.68853 -2.70822,-1.721325 -4.0738,-2.375428 l -0.14918,0.172132 V 8.878702 Z"
     style="font-size:11.4755px;font-family:'Noto Sans SC';-inkscape-font-specification:'Noto Sans SC, Normal';fill:#ffffff;stroke-width:0.938915;fill-opacity:1"
     inkscape:highlight-color="#ffffff" />
</svg>
