<?xml version="1.0" encoding="UTF-8"?>
<svg width="182px" height="56px" viewBox="0 0 182 56" version="1.1" xmlns="http://www.w3.org/2000/svg" xmlns:xlink="http://www.w3.org/1999/xlink">
    <!-- Generator: Sketch 52.3 (67297) - http://www.bohemiancoding.com/sketch -->
    <title>[JP]-snap-store-white-uneditable</title>
    <desc>Created with Sketch.</desc>
    <defs>
        <polygon id="path-1" points="10.5520345 0.559428571 0.0608793103 0.559428571 13.5487759 6.58"></polygon>
    </defs>
    <g id="Other-languages" stroke="none" stroke-width="1" fill="none" fill-rule="evenodd">
        <g id="JP" transform="translate(-199.000000, -113.000000)">
            <g id="[JP]-snap-store-white-uneditable" transform="translate(200.000000, 114.000000)">
                <rect id="Rectangle-path" stroke="#CDCDCD" fill="#FFFFFF" x="0" y="0" width="180" height="54" rx="2"></rect>
                <g id="logo" transform="translate(8.000000, 11.000000)">
                    <g>
                        <polygon id="Fill-2265" fill="#82BEA0" fill-rule="nonzero" points="18.9875172 17.8017143 26.2054138 10.5525714 18.9875172 7.33085714"></polygon>
                        <polygon id="Fill-2266" fill="#82BEA0" fill-rule="nonzero" points="5.20774138 31.6411429 17.9423276 18.852 14.058569 14.9742857"></polygon>
                        <polygon id="Fill-2267" fill="#82BEA0" fill-rule="nonzero" points="0.160180862 0.233262857 18.3753103 18.4171429 18.3753103 6.84571429"></polygon>
                        <g id="Fill-2268" transform="translate(19.344828, 6.285714)" fill="#FA6441" fill-rule="nonzero">
                            <polygon id="path-2" points="10.5520345 0.559428571 0.0608793103 0.559428571 13.5487759 6.58"></polygon>
                        </g>
                        <g id="colour/snappy-accent-Clipped" transform="translate(19.344828, 6.285714)">
                            <mask id="mask-2" fill="white">
                                <use xlink:href="#path-1"></use>
                            </mask>
                            <g id="path-2"></g>
                            <g id="colour/snappy-accent" mask="url(#mask-2)">
                                <g transform="translate(-19.913793, -9.142857)" id="Rectangle-2">
                                    <g transform="translate(0.343092, 0.497771)">
                                        <rect id="Rectangle-path" fill="#FA6441" fill-rule="nonzero" x="0" y="0" width="101.275862" height="34.8571429"></rect>
                                    </g>
                                </g>
                            </g>
                        </g>
                    </g>
                </g>
                <path d="M55.62,35.532 L56.532,35.712 C56.364,36.516 56.184,37.296 55.992,38.064 C56.208,38.052 56.412,38.052 56.616,38.052 C57.456,38.052 58.092,38.304 58.536,38.82 C58.968,39.324 59.184,40.044 59.184,40.968 C59.184,42.168 59.052,43.128 58.8,43.872 C58.416,45 57.744,45.576 56.796,45.576 C56.22,45.576 55.584,45.444 54.912,45.204 L55.044,44.352 C55.692,44.592 56.28,44.712 56.784,44.712 C57.396,44.712 57.816,44.196 58.056,43.188 C58.188,42.588 58.26,41.844 58.26,40.968 C58.26,39.576 57.696,38.88 56.592,38.88 C56.328,38.88 56.052,38.88 55.764,38.904 C55.044,41.472 54.144,43.716 53.088,45.636 L52.248,45.24 C53.256,43.392 54.108,41.304 54.78,38.976 C54.06,39.048 53.244,39.156 52.344,39.3 L52.212,38.46 C53.22,38.292 54.156,38.172 55.02,38.112 C55.236,37.272 55.44,36.42 55.62,35.532 Z M60.168,37.14 C61.368,38.388 62.208,40.092 62.664,42.252 L61.812,42.552 C61.584,41.52 61.308,40.644 60.984,39.924 C60.588,39.06 60.084,38.316 59.472,37.68 L60.168,37.14 Z M66.252,35.532 C66.9,35.604 67.764,35.76 68.856,36.012 C70.068,36.288 70.968,36.54 71.544,36.768 L71.208,37.536 C70.656,37.32 69.804,37.092 68.652,36.828 C67.596,36.588 66.732,36.432 66.06,36.36 L66.252,35.532 Z M65.784,37.536 L66.684,37.608 C66.54,39.504 66.336,40.8 66.06,41.496 C66.588,41.064 67.188,40.728 67.884,40.5 C68.58,40.248 69.3,40.128 70.044,40.128 C70.908,40.128 71.628,40.344 72.204,40.776 C72.804,41.232 73.104,41.844 73.104,42.6 C73.104,43.608 72.672,44.364 71.832,44.892 C71.04,45.372 69.996,45.624 68.676,45.624 C67.956,45.624 67.188,45.588 66.396,45.54 L66.444,44.664 C67.236,44.724 67.98,44.76 68.676,44.76 C69.816,44.76 70.692,44.568 71.292,44.184 C71.892,43.8 72.192,43.272 72.192,42.6 C72.192,42.144 72,41.76 71.628,41.448 C71.22,41.112 70.692,40.956 70.044,40.956 C69.228,40.956 68.484,41.088 67.8,41.352 C67.116,41.616 66.42,42.036 65.712,42.636 L64.968,42.3 C65.376,41.196 65.652,39.6 65.784,37.536 Z M80.472,37.98 C79.92,36.972 79.26,36.204 78.492,35.652 L79.212,35.196 C80.28,35.94 81.18,37.296 81.924,39.24 C83.052,42.108 84.552,44.136 86.448,45.324 L85.908,46.02 C83.964,44.844 82.38,42.66 81.144,39.492 C81.072,39.3 81.012,39.132 80.952,38.988 C80.16,42.048 78.504,44.4 75.984,46.032 L75.468,45.3 C78.036,43.62 79.704,41.172 80.472,37.98 Z M97.032,35.304 L97.452,36.036 C96.36,36.324 95.1,36.552 93.66,36.696 L93.66,38.724 L97.488,38.724 L97.488,39.564 L93.66,39.564 L93.66,41.532 L98.388,41.532 L98.388,42.36 L93.66,42.36 L93.66,45.012 C93.66,45.732 93.276,46.104 92.532,46.104 L90.672,46.104 L90.48,45.264 C91.092,45.288 91.68,45.312 92.232,45.312 C92.592,45.312 92.784,45.132 92.784,44.796 L92.784,42.36 L87.624,42.36 L87.624,41.532 L92.784,41.532 L92.784,39.564 L88.62,39.564 L88.62,38.724 L92.784,38.724 L92.784,36.768 C91.512,36.864 90.132,36.924 88.644,36.924 L88.38,36.144 C91.86,36.144 94.74,35.856 97.032,35.304 Z M107.472,35.484 L108.192,36.12 C107.424,36.888 106.56,37.656 105.624,38.424 C104.628,39.228 103.716,39.9 102.876,40.44 C102.696,40.548 102.612,40.644 102.612,40.728 C102.612,40.8 102.708,40.908 102.912,41.04 C103.776,41.544 104.76,42.204 105.852,43.008 C106.908,43.788 107.832,44.532 108.648,45.252 L107.976,45.984 C107.136,45.24 106.176,44.46 105.084,43.656 C103.992,42.828 102.984,42.132 102.072,41.58 C101.652,41.316 101.448,41.028 101.448,40.728 C101.448,40.44 101.616,40.188 101.964,39.984 C102.708,39.504 103.62,38.832 104.724,37.944 C105.852,37.02 106.776,36.204 107.472,35.484 Z M120.744,34.848 C121.272,35.364 121.704,35.904 122.04,36.456 L121.524,36.84 C121.164,36.228 120.744,35.688 120.276,35.22 L120.744,34.848 Z M119.568,35.748 C120.072,36.24 120.504,36.78 120.852,37.368 L120.336,37.728 C119.976,37.128 119.556,36.6 119.076,36.12 L119.568,35.748 Z M121.656,39.024 L121.656,39.876 C119.964,39.876 118.248,39.948 116.496,40.104 L116.448,39.24 C118.2,39.096 119.928,39.024 121.656,39.024 Z M118.14,37.068 L118.284,37.896 C117.42,38.004 116.412,38.088 115.26,38.16 C115.092,39.024 114.9,39.876 114.708,40.692 C114.252,42.576 113.748,44.196 113.196,45.552 L112.32,45.252 C112.872,43.92 113.376,42.336 113.832,40.488 C114,39.744 114.168,38.976 114.324,38.208 C113.592,38.232 112.812,38.256 111.984,38.268 L111.948,37.416 C112.836,37.416 113.676,37.392 114.48,37.368 C114.6,36.696 114.708,36.024 114.804,35.34 L115.728,35.46 C115.632,36.084 115.524,36.708 115.416,37.32 C116.4,37.26 117.3,37.176 118.14,37.068 Z M116.64,41.88 L117.42,42.3 C117.036,42.828 116.844,43.272 116.844,43.656 C116.844,43.968 117.072,44.22 117.54,44.388 C117.972,44.544 118.572,44.628 119.364,44.628 C120.252,44.628 121.068,44.556 121.788,44.412 L121.812,45.264 C121.116,45.384 120.3,45.456 119.364,45.456 C117.072,45.456 115.932,44.88 115.932,43.74 C115.932,43.14 116.16,42.528 116.64,41.88 Z M133.92,37.296 L133.992,38.148 C132.828,38.316 131.664,38.448 130.488,38.544 C130.512,38.568 130.524,38.604 130.548,38.652 C131.196,39.804 131.892,40.788 132.636,41.592 L132.156,42.216 C130.812,41.664 129.528,41.388 128.316,41.388 C127.476,41.388 126.852,41.544 126.432,41.868 C126.048,42.144 125.856,42.504 125.856,42.96 C125.856,43.5 126.108,43.92 126.612,44.232 C127.116,44.544 127.872,44.712 128.868,44.712 C129.96,44.712 130.932,44.64 131.784,44.508 L131.892,45.36 C131.1,45.492 130.092,45.564 128.868,45.564 C127.62,45.564 126.648,45.324 125.964,44.868 C125.28,44.412 124.944,43.776 124.944,42.96 C124.944,42.216 125.232,41.64 125.832,41.22 C126.432,40.788 127.236,40.572 128.268,40.572 C129.276,40.572 130.248,40.752 131.184,41.136 C130.644,40.512 130.104,39.696 129.552,38.664 C129.54,38.64 129.528,38.616 129.516,38.604 C128.364,38.676 127.2,38.712 126.048,38.712 C125.4,38.712 124.8,38.7 124.272,38.676 L124.26,37.812 C125.136,37.848 125.724,37.872 126.036,37.872 C127.032,37.872 128.052,37.836 129.108,37.776 C128.796,37.116 128.496,36.42 128.22,35.7 L129.048,35.388 C129.336,36.18 129.672,36.96 130.056,37.716 C131.304,37.62 132.6,37.476 133.92,37.296 Z M144.144,36.84 C145.464,38.436 146.208,40.656 146.352,43.5 L145.416,43.548 C145.272,40.884 144.6,38.844 143.388,37.404 L144.144,36.84 Z M136.464,36.792 L137.4,36.9 C137.244,37.932 137.172,39 137.172,40.08 C137.172,41.388 137.352,42.444 137.724,43.26 C138.06,43.98 138.456,44.352 138.936,44.352 C139.248,44.352 139.536,44.028 139.8,43.38 C139.968,42.972 140.1,42.504 140.196,42 L141.12,42.216 C140.916,43.128 140.652,43.836 140.328,44.352 C139.944,44.964 139.488,45.276 138.96,45.276 C138.096,45.276 137.424,44.784 136.932,43.8 C136.452,42.852 136.224,41.616 136.224,40.08 C136.224,39 136.296,37.908 136.464,36.792 Z" id="から入手ください" fill="#111111"></path>
                <path d="M56.928,24.344 C59.3600122,24.344 60.576,23.5120083 60.576,21.848 C60.576,21.3359974 60.4680011,20.9000018 60.252,20.54 C60.0359989,20.1799982 59.7440018,19.8680013 59.376,19.604 C59.0079982,19.3399987 58.5880024,19.112001 58.116,18.92 C57.6439976,18.727999 57.1440026,18.536001 56.616,18.344 C56.007997,18.135999 55.4320027,17.9000013 54.888,17.636 C54.3439973,17.3719987 53.872002,17.0600018 53.472,16.7 C53.071998,16.3399982 52.7560012,15.9120025 52.524,15.416 C52.2919988,14.9199975 52.176,14.3200035 52.176,13.616 C52.176,12.1599927 52.671995,11.0240041 53.664,10.208 C54.656005,9.39199592 56.0239913,8.984 57.768,8.984 C58.776005,8.984 59.6919959,9.09199892 60.516,9.308 C61.3400041,9.52400108 61.9439981,9.75999872 62.328,10.016 L61.584,11.912 C61.2479983,11.703999 60.7480033,11.500001 60.084,11.3 C59.4199967,11.099999 58.6480044,11 57.768,11 C57.3199978,11 56.9040019,11.0479995 56.52,11.144 C56.1359981,11.2400005 55.8000014,11.383999 55.512,11.576 C55.2239986,11.768001 54.9960008,12.0119985 54.828,12.308 C54.6599992,12.6040015 54.576,12.951998 54.576,13.352 C54.576,13.8000022 54.6639991,14.1759985 54.84,14.48 C55.0160009,14.7840015 55.2639984,15.0519988 55.584,15.284 C55.9040016,15.5160012 56.2759979,15.727999 56.7,15.92 C57.1240021,16.112001 57.5919974,16.303999 58.104,16.496 C58.8240036,16.7840014 59.483997,17.0719986 60.084,17.36 C60.684003,17.6480014 61.2039978,17.991998 61.644,18.392 C62.0840022,18.792002 62.4239988,19.2679972 62.664,19.82 C62.9040012,20.3720028 63.024,21.0399961 63.024,21.824 C63.024,23.2800073 62.4920053,24.3999961 61.428,25.184 C60.3639947,25.9680039 58.8640097,26.36 56.928,26.36 C56.2719967,26.36 55.6680028,26.3160004 55.116,26.228 C54.5639972,26.1399996 54.0720022,26.0360006 53.64,25.916 C53.2079978,25.7959994 52.8360016,25.6680007 52.524,25.532 C52.2119984,25.3959993 51.9680009,25.2800005 51.792,25.184 L52.488,23.264 C52.8560018,23.472001 53.4159962,23.7039987 54.168,23.96 C54.9200038,24.2160013 55.8399946,24.344 56.928,24.344 Z M65.688,13.88 C66.2000026,13.7519994 66.8799958,13.6160007 67.728,13.472 C68.5760042,13.3279993 69.5519945,13.256 70.656,13.256 C71.648005,13.256 72.4719967,13.3959986 73.128,13.676 C73.7840033,13.9560014 74.307998,14.3479975 74.7,14.852 C75.092002,15.3560025 75.3679992,15.9599965 75.528,16.664 C75.6880008,17.3680035 75.768,18.1439958 75.768,18.992 L75.768,26 L73.536,26 L73.536,19.472 C73.536,18.7039962 73.4840005,18.0480027 73.38,17.504 C73.2759995,16.9599973 73.1040012,16.5200017 72.864,16.184 C72.6239988,15.8479983 72.304002,15.6040008 71.904,15.452 C71.503998,15.2999992 71.008003,15.224 70.416,15.224 C70.1759988,15.224 69.9280013,15.2319999 69.672,15.248 C69.4159987,15.2640001 69.1720012,15.2839999 68.94,15.308 C68.7079988,15.3320001 68.5000009,15.3599998 68.316,15.392 C68.1319991,15.4240002 68.0000004,15.4479999 67.92,15.464 L67.92,26 L65.688,26 L65.688,13.88 Z M83.688,24.392 C84.2160026,24.392 84.683998,24.3800001 85.092,24.356 C85.500002,24.3319999 85.8399986,24.2880003 86.112,24.224 L86.112,20.504 C85.9519992,20.4239996 85.6920018,20.3560003 85.332,20.3 C84.9719982,20.2439997 84.5360026,20.216 84.024,20.216 C83.6879983,20.216 83.3320019,20.2399998 82.956,20.288 C82.5799981,20.3360002 82.2360016,20.4359992 81.924,20.588 C81.6119984,20.7400008 81.352001,20.9479987 81.144,21.212 C80.935999,21.4760013 80.832,21.8239978 80.832,22.256 C80.832,23.056004 81.0879974,23.6119984 81.6,23.924 C82.1120026,24.2360016 82.8079956,24.392 83.688,24.392 Z M83.496,13.208 C84.3920045,13.208 85.1479969,13.3239988 85.764,13.556 C86.3800031,13.7880012 86.8759981,14.1159979 87.252,14.54 C87.6280019,14.9640021 87.8959992,15.4679971 88.056,16.052 C88.2160008,16.6360029 88.296,17.2799965 88.296,17.984 L88.296,25.784 C88.103999,25.8160002 87.8360017,25.8599997 87.492,25.916 C87.1479983,25.9720003 86.7600022,26.0239998 86.328,26.072 C85.8959978,26.1200002 85.4280025,26.1639998 84.924,26.204 C84.4199975,26.2440002 83.9200025,26.264 83.424,26.264 C82.7199965,26.264 82.072003,26.1920007 81.48,26.048 C80.887997,25.9039993 80.3760022,25.6760016 79.944,25.364 C79.5119978,25.0519984 79.1760012,24.6400026 78.936,24.128 C78.6959988,23.6159974 78.576,23.0000036 78.576,22.28 C78.576,21.5919966 78.7159986,21.0000025 78.996,20.504 C79.2760014,20.0079975 79.6559976,19.6080015 80.136,19.304 C80.6160024,18.9999985 81.1759968,18.7760007 81.816,18.632 C82.4560032,18.4879993 83.1279965,18.416 83.832,18.416 C84.0560011,18.416 84.2879988,18.4279999 84.528,18.452 C84.7680012,18.4760001 84.9959989,18.5079998 85.212,18.548 C85.4280011,18.5880002 85.6159992,18.6239998 85.776,18.656 C85.9360008,18.6880002 86.0479997,18.7119999 86.112,18.728 L86.112,18.104 C86.112,17.7359982 86.0720004,17.3720018 85.992,17.012 C85.9119996,16.6519982 85.768001,16.3320014 85.56,16.052 C85.351999,15.7719986 85.0680018,15.5480008 84.708,15.38 C84.3479982,15.2119992 83.8800029,15.128 83.304,15.128 C82.5679963,15.128 81.9240028,15.1799995 81.372,15.284 C80.8199972,15.3880005 80.4080014,15.4959994 80.136,15.608 L79.872,13.76 C80.1600014,13.6319994 80.6399966,13.5080006 81.312,13.388 C81.9840034,13.2679994 82.7119961,13.208 83.496,13.208 Z M100.656,19.784 C100.656,18.3279927 100.296004,17.2080039 99.576,16.424 C98.8559964,15.6399961 97.896006,15.248 96.696,15.248 C96.0239966,15.248 95.5000019,15.2719998 95.124,15.32 C94.7479981,15.3680002 94.4480011,15.4239997 94.224,15.488 L94.224,23.36 C94.4960014,23.5840011 94.8879974,23.799999 95.4,24.008 C95.9120026,24.216001 96.471997,24.32 97.08,24.32 C97.7200032,24.32 98.2679977,24.2040012 98.724,23.972 C99.1800023,23.7399988 99.5519986,23.420002 99.84,23.012 C100.128001,22.603998 100.335999,22.1240028 100.464,21.572 C100.592001,21.0199972 100.656,20.4240032 100.656,19.784 Z M102.984,19.784 C102.984,20.7280047 102.860001,21.599996 102.612,22.4 C102.363999,23.200004 102.000002,23.8879971 101.52,24.464 C101.039998,25.0400029 100.452003,25.4879984 99.756,25.808 C99.0599965,26.1280016 98.2640045,26.288 97.368,26.288 C96.6479964,26.288 96.0120028,26.192001 95.46,26 C94.9079972,25.807999 94.4960014,25.6240009 94.224,25.448 L94.224,30.44 L91.992,30.44 L91.992,13.904 C92.5200026,13.7759994 93.179996,13.6360008 93.972,13.484 C94.764004,13.3319992 95.6799948,13.256 96.72,13.256 C97.6800048,13.256 98.5439962,13.4079985 99.312,13.712 C100.080004,14.0160015 100.735997,14.4479972 101.28,15.008 C101.824003,15.5680028 102.243999,16.251996 102.54,17.06 C102.836001,17.868004 102.984,18.775995 102.984,19.784 Z M115.68,24.344 C118.112012,24.344 119.328,23.5120083 119.328,21.848 C119.328,21.3359974 119.220001,20.9000018 119.004,20.54 C118.787999,20.1799982 118.496002,19.8680013 118.128,19.604 C117.759998,19.3399987 117.340002,19.112001 116.868,18.92 C116.395998,18.727999 115.896003,18.536001 115.368,18.344 C114.759997,18.135999 114.184003,17.9000013 113.64,17.636 C113.095997,17.3719987 112.624002,17.0600018 112.224,16.7 C111.823998,16.3399982 111.508001,15.9120025 111.276,15.416 C111.043999,14.9199975 110.928,14.3200035 110.928,13.616 C110.928,12.1599927 111.423995,11.0240041 112.416,10.208 C113.408005,9.39199592 114.775991,8.984 116.52,8.984 C117.528005,8.984 118.443996,9.09199892 119.268,9.308 C120.092004,9.52400108 120.695998,9.75999872 121.08,10.016 L120.336,11.912 C119.999998,11.703999 119.500003,11.500001 118.836,11.3 C118.171997,11.099999 117.400004,11 116.52,11 C116.071998,11 115.656002,11.0479995 115.272,11.144 C114.887998,11.2400005 114.552001,11.383999 114.264,11.576 C113.975999,11.768001 113.748001,12.0119985 113.58,12.308 C113.411999,12.6040015 113.328,12.951998 113.328,13.352 C113.328,13.8000022 113.415999,14.1759985 113.592,14.48 C113.768001,14.7840015 114.015998,15.0519988 114.336,15.284 C114.656002,15.5160012 115.027998,15.727999 115.452,15.92 C115.876002,16.112001 116.343997,16.303999 116.856,16.496 C117.576004,16.7840014 118.235997,17.0719986 118.836,17.36 C119.436003,17.6480014 119.955998,17.991998 120.396,18.392 C120.836002,18.792002 121.175999,19.2679972 121.416,19.82 C121.656001,20.3720028 121.776,21.0399961 121.776,21.824 C121.776,23.2800073 121.244005,24.3999961 120.18,25.184 C119.115995,25.9680039 117.61601,26.36 115.68,26.36 C115.023997,26.36 114.420003,26.3160004 113.868,26.228 C113.315997,26.1399996 112.824002,26.0360006 112.392,25.916 C111.959998,25.7959994 111.588002,25.6680007 111.276,25.532 C110.963998,25.3959993 110.720001,25.2800005 110.544,25.184 L111.24,23.264 C111.608002,23.472001 112.167996,23.7039987 112.92,23.96 C113.672004,24.2160013 114.591995,24.344 115.68,24.344 Z M126.528,13.52 L131.256,13.52 L131.256,15.392 L126.528,15.392 L126.528,21.152 C126.528,21.7760031 126.576,22.291998 126.672,22.7 C126.768,23.108002 126.911999,23.4279988 127.104,23.66 C127.296001,23.8920012 127.535999,24.0559995 127.824,24.152 C128.112001,24.2480005 128.447998,24.296 128.832,24.296 C129.504003,24.296 130.043998,24.2200008 130.452,24.068 C130.860002,23.9159992 131.143999,23.8080003 131.304,23.744 L131.736,25.592 C131.511999,25.7040006 131.120003,25.8439992 130.56,26.012 C129.999997,26.1800008 129.360004,26.264 128.64,26.264 C127.791996,26.264 127.092003,26.1560011 126.54,25.94 C125.987997,25.7239989 125.544002,25.4000022 125.208,24.968 C124.871998,24.5359978 124.636001,24.0040032 124.5,23.372 C124.363999,22.7399968 124.296,22.0080042 124.296,21.176 L124.296,10.04 L126.528,9.656 L126.528,13.52 Z M144.768,19.76 C144.768,20.752005 144.624001,21.647996 144.336,22.448 C144.047999,23.248004 143.644003,23.9359971 143.124,24.512 C142.603997,25.0880029 141.984004,25.5319984 141.264,25.844 C140.543996,26.1560016 139.760004,26.312 138.912,26.312 C138.063996,26.312 137.280004,26.1560016 136.56,25.844 C135.839996,25.5319984 135.220003,25.0880029 134.7,24.512 C134.179997,23.9359971 133.776001,23.248004 133.488,22.448 C133.199999,21.647996 133.056,20.752005 133.056,19.76 C133.056,18.7839951 133.199999,17.892004 133.488,17.084 C133.776001,16.275996 134.179997,15.5840029 134.7,15.008 C135.220003,14.4319971 135.839996,13.9880016 136.56,13.676 C137.280004,13.3639984 138.063996,13.208 138.912,13.208 C139.760004,13.208 140.543996,13.3639984 141.264,13.676 C141.984004,13.9880016 142.603997,14.4319971 143.124,15.008 C143.644003,15.5840029 144.047999,16.275996 144.336,17.084 C144.624001,17.892004 144.768,18.7839951 144.768,19.76 Z M142.44,19.76 C142.44,18.351993 142.124003,17.2360041 141.492,16.412 C140.859997,15.5879959 140.000005,15.176 138.912,15.176 C137.823995,15.176 136.964003,15.5879959 136.332,16.412 C135.699997,17.2360041 135.384,18.351993 135.384,19.76 C135.384,21.168007 135.699997,22.2839959 136.332,23.108 C136.964003,23.9320041 137.823995,24.344 138.912,24.344 C140.000005,24.344 140.859997,23.9320041 141.492,23.108 C142.124003,22.2839959 142.44,21.168007 142.44,19.76 Z M152.52,13.256 C152.712001,13.256 152.931999,13.2679999 153.18,13.292 C153.428001,13.3160001 153.671999,13.3479998 153.912,13.388 C154.152001,13.4280002 154.371999,13.4679998 154.572,13.508 C154.772001,13.5480002 154.92,13.5839998 155.016,13.616 L154.632,15.56 C154.455999,15.4959997 154.164002,15.4200004 153.756,15.332 C153.347998,15.2439996 152.824003,15.2 152.184,15.2 C151.767998,15.2 151.356002,15.2439996 150.948,15.332 C150.539998,15.4200004 150.272001,15.4799998 150.144,15.512 L150.144,26 L147.912,26 L147.912,14.048 C148.440003,13.855999 149.095996,13.6760008 149.88,13.508 C150.664004,13.3399992 151.543995,13.256 152.52,13.256 Z M156.48,19.784 C156.48,18.6799945 156.639998,17.7160041 156.96,16.892 C157.280002,16.0679959 157.703997,15.3840027 158.232,14.84 C158.760003,14.2959973 159.367997,13.8880014 160.056,13.616 C160.744003,13.3439986 161.447996,13.208 162.168,13.208 C163.848008,13.208 165.135996,13.7319948 166.032,14.78 C166.928004,15.8280052 167.376,17.4239893 167.376,19.568 L167.376,19.94 C167.376,20.0920008 167.368,20.2319994 167.352,20.36 L158.808,20.36 C158.904,21.6560065 159.279997,22.6399966 159.936,23.312 C160.592003,23.9840034 161.615993,24.32 163.008,24.32 C163.792004,24.32 164.451997,24.2520007 164.988,24.116 C165.524003,23.9799993 165.927999,23.8480006 166.2,23.72 L166.512,25.592 C166.239999,25.7360007 165.764003,25.8879992 165.084,26.048 C164.403997,26.2080008 163.632004,26.288 162.768,26.288 C161.679995,26.288 160.740004,26.1240016 159.948,25.796 C159.155996,25.4679984 158.504003,25.0160029 157.992,24.44 C157.479997,23.8639971 157.100001,23.180004 156.852,22.388 C156.603999,21.595996 156.48,20.7280047 156.48,19.784 Z M165.048,18.56 C165.064,17.551995 164.812003,16.7240032 164.292,16.076 C163.771997,15.4279968 163.056005,15.104 162.144,15.104 C161.631997,15.104 161.180002,15.203999 160.788,15.404 C160.395998,15.604001 160.064001,15.8639984 159.792,16.184 C159.519999,16.5040016 159.308001,16.8719979 159.156,17.288 C159.003999,17.7040021 158.904,18.1279978 158.856,18.56 L165.048,18.56 Z" id="Snap-Store" fill="#111111"></path>
            </g>
        </g>
    </g>
</svg>