<?xml version="1.0" encoding="UTF-8" standalone="no"?>
<!-- Generator: Adobe Illustrator 23.0.1, SVG Export Plug-In . SVG Version: 6.00 Build 0)  -->

<svg
   xmlns:dc="http://purl.org/dc/elements/1.1/"
   xmlns:cc="http://creativecommons.org/ns#"
   xmlns:rdf="http://www.w3.org/1999/02/22-rdf-syntax-ns#"
   xmlns:svg="http://www.w3.org/2000/svg"
   xmlns="http://www.w3.org/2000/svg"
   xmlns:sodipodi="http://sodipodi.sourceforge.net/DTD/sodipodi-0.dtd"
   xmlns:inkscape="http://www.inkscape.org/namespaces/inkscape"
   version="1.1"
   id="Layer_1"
   x="0px"
   y="0px"
   viewBox="0 0 182 56"
   style="enable-background:new 0 0 182 56;"
   xml:space="preserve"
   sodipodi:docname="[PT]-snap-store-white-uneditable.svg"
   inkscape:export-filename="/home/jbolzan/Projetos/snap-store-badges/PT/[PT]-snap-store-white@2x.png"
   inkscape:export-xdpi="192"
   inkscape:export-ydpi="192"
   inkscape:version="0.92.3 (2405546, 2018-03-11)"><metadata
   id="metadata24"><rdf:RDF><cc:Work
       rdf:about=""><dc:format>image/svg+xml</dc:format><dc:type
         rdf:resource="http://purl.org/dc/dcmitype/StillImage" /><dc:title>[EN]-snap-store-white</dc:title></cc:Work></rdf:RDF></metadata><defs
   id="defs22" /><sodipodi:namedview
   pagecolor="#ffffff"
   bordercolor="#666666"
   borderopacity="1"
   objecttolerance="10"
   gridtolerance="10"
   guidetolerance="10"
   inkscape:pageopacity="0"
   inkscape:pageshadow="2"
   inkscape:window-width="1229"
   inkscape:window-height="960"
   id="namedview20"
   showgrid="false"
   inkscape:zoom="2.3846154"
   inkscape:cx="91"
   inkscape:cy="28"
   inkscape:window-x="51"
   inkscape:window-y="27"
   inkscape:window-maximized="1"
   inkscape:current-layer="White-badge" />
<style
   type="text/css"
   id="style2">
	.st0{fill-rule:evenodd;clip-rule:evenodd;fill:#FFFFFF;stroke:#CDCDCD;}
	.st1{fill:#82BEA0;}
	.st2{fill:#FA6441;}
	.st3{fill:#111111;}
	.st4{font-family:'Ubuntu';}
	.st5{font-size:12px;}
	.st6{font-size:24px;}
</style>
<title
   id="title4">[EN]-snap-store-white</title>
<desc
   id="desc6">Created with Sketch.</desc>
<g
   id="g17">
	<g
   id="White-badge">
		<path
   id="Rectangle-path"
   class="st0"
   d="M2.5,0.5h177c1.1,0,2,0.9,2,2v51c0,1.1-0.9,2-2,2H2.5c-1.1,0-2-0.9-2-2v-51    C0.5,1.4,1.4,0.5,2.5,0.5z" />
		<g
   id="logo"
   transform="translate(8.000000, 11.000000)">
			<path
   id="body"
   class="st1"
   d="M19,17.8V7.3l7.2,3.2L19,17.8z M5.2,31.6L14.1,15l3.9,3.9L5.2,31.6z M0.2,0.2l18.2,6.6v11.6     L0.2,0.2z" />
			<path
   style="fill:#fa6441"
   d="M 29.9,6.8 H 19.4 l 13.5,6.1 z"
   id="head" />
		</g>
		<g
   aria-label="Disponível na"
   transform="translate(50,17)"
   style="font-size:12px;font-family:Ubuntu;fill:#111111"
   id="text12"><path
     d="m 7.86,-4.164 q 0,1.08 -0.336,1.884 Q 7.188,-1.488 6.576,-0.96 5.964,-0.444 5.112,-0.18 4.26,0.072 3.24,0.072 2.736,0.072 2.124,0.024 1.524,-0.012 1.032,-0.132 V -8.196 Q 1.524,-8.316 2.124,-8.352 2.736,-8.4 3.24,-8.4 q 1.02,0 1.872,0.264 0.852,0.252 1.464,0.78 0.612,0.516 0.948,1.32 0.336,0.792 0.336,1.872 z m -4.524,3.216 q 1.656,0 2.472,-0.84 0.816,-0.852 0.816,-2.376 0,-1.524 -0.816,-2.364 -0.816,-0.852 -2.472,-0.852 -0.492,0 -0.768,0.012 -0.264,0.012 -0.372,0.024 v 6.36 q 0.108,0.012 0.372,0.024 0.276,0.012 0.768,0.012 z"
     style="font-size:12px;font-family:Ubuntu;fill:#111111"
     id="path835" /><path
     d="M 10.630688,0 H 9.5146875 v -6.24 h 1.1160005 z m -0.564,-7.368 q -0.3000005,0 -0.5160005,-0.192 -0.204,-0.204 -0.204,-0.54 0,-0.336 0.204,-0.528 0.216,-0.204 0.5160005,-0.204 0.299999,0 0.504,0.204 0.215999,0.192 0.215999,0.528 0,0.336 -0.215999,0.54 -0.204001,0.192 -0.504,0.192 z"
     style="font-size:12px;font-family:Ubuntu;fill:#111111"
     id="path837" /><path
     d="m 14.013562,-0.804 q 0.684001,0 1.008001,-0.18 0.336,-0.18 0.336,-0.576 0,-0.408 -0.324,-0.648 -0.324,-0.24 -1.068,-0.54 -0.36,-0.144 -0.696001,-0.288 -0.324,-0.156 -0.564,-0.36 -0.239999,-0.204 -0.383999,-0.492 -0.144,-0.288 -0.144,-0.708 0,-0.828 0.612,-1.308 0.612,-0.492 1.668,-0.492 0.264,0 0.528,0.036 0.264,0.024 0.492,0.072 0.227999,0.036 0.396,0.084 0.179999,0.048 0.276,0.084 l -0.204001,0.96 q -0.179999,-0.096 -0.563999,-0.192 -0.384,-0.108 -0.924,-0.108 -0.468,0 -0.816001,0.192 -0.347999,0.18 -0.347999,0.576 0,0.204 0.072,0.36 0.084,0.156 0.240001,0.288 0.168,0.12 0.407999,0.228 0.240001,0.108 0.576001,0.228 0.444,0.168 0.792,0.336 0.348,0.156 0.588,0.372 0.251999,0.216 0.384,0.528 0.131999,0.3 0.131999,0.744 0,0.864 -0.647999,1.308 -0.636,0.444 -1.824001,0.444 -0.827999,0 -1.295999,-0.144 -0.468,-0.132 -0.636,-0.204 l 0.203999,-0.96 q 0.192,0.072 0.612,0.216 0.420001,0.144 1.116,0.144 z"
     style="font-size:12px;font-family:Ubuntu;fill:#111111"
     id="path839" /><path
     d="m 22.237313,-3.108 q 0,-1.092 -0.54,-1.68 -0.540001,-0.588 -1.440001,-0.588 -0.504,0 -0.792,0.036 -0.276,0.036 -0.444,0.084 v 3.936 q 0.204,0.168 0.588001,0.324 0.384,0.156 0.839999,0.156 0.480001,0 0.816,-0.168 0.348,-0.18 0.564,-0.48 0.216001,-0.312 0.312,-0.72 0.096,-0.42 0.096,-0.9 z m 1.163999,0 q 0,0.708 -0.192,1.308 -0.18,0.6 -0.54,1.032 -0.36,0.432 -0.888,0.672 -0.516,0.24 -1.188,0.24 -0.54,0 -0.96,-0.144 -0.408,-0.144 -0.612,-0.276 V 2.22 h -1.116 v -8.268 q 0.396001,-0.096 0.984,-0.204 0.6,-0.12 1.380001,-0.12 0.719999,0 1.295999,0.228 0.576,0.228 0.984,0.648 0.408,0.42 0.624001,1.032 0.227999,0.6 0.227999,1.356 z"
     style="font-size:12px;font-family:Ubuntu;fill:#111111"
     id="path841" /><path
     d="m 30.491437,-3.12 q 0,0.744 -0.215999,1.344 -0.216,0.6 -0.612001,1.032 -0.384,0.432 -0.924,0.672 -0.539999,0.228 -1.176,0.228 -0.636,0 -1.176,-0.228 -0.54,-0.24 -0.936,-0.672 -0.384,-0.432 -0.6,-1.032 -0.215999,-0.6 -0.215999,-1.344 0,-0.732 0.215999,-1.332 0.216,-0.612 0.6,-1.044 0.396,-0.432 0.936,-0.66 0.54,-0.24 1.176,-0.24 0.636001,0 1.176,0.24 0.54,0.228 0.924,0.66 0.396001,0.432 0.612001,1.044 0.215999,0.6 0.215999,1.332 z m -1.163999,0 q 0,-1.056 -0.480001,-1.668 -0.467999,-0.624 -1.284,-0.624 -0.816,0 -1.296,0.624 -0.468,0.612 -0.468,1.668 0,1.056 0.468,1.68 0.48,0.612 1.296,0.612 0.816001,0 1.284,-0.612 0.480001,-0.624 0.480001,-1.68 z"
     style="font-size:12px;font-family:Ubuntu;fill:#111111"
     id="path843" /><path
     d="m 32.061562,-6.06 q 0.384,-0.096 1.02,-0.204 0.636,-0.108 1.464001,-0.108 0.744,0 1.235999,0.216 0.492,0.204 0.78,0.588 0.3,0.372 0.420001,0.9 0.119999,0.528 0.119999,1.164 V 0 h -1.116 v -3.264 q 0,-0.576 -0.084,-0.984 -0.072,-0.408 -0.251999,-0.66 -0.18,-0.252 -0.480001,-0.36 -0.3,-0.12 -0.744,-0.12 -0.18,0 -0.372,0.012 -0.192,0.012 -0.372,0.036 -0.168,0.012 -0.312,0.036 -0.131999,0.024 -0.192,0.036 V 0 h -1.116 z"
     style="font-size:12px;font-family:Ubuntu;fill:#111111"
     id="path845" /><path
     d="m 40.068187,0 h -1.116 v -6.24 h 1.116 z m 0.9,-8.604 -1.692,1.644 -0.564,-0.504 1.536,-1.848 z"
     style="font-size:12px;font-family:Ubuntu;fill:#111111"
     id="path847" /><path
     d="m 46.871062,-6.24 q -0.468,1.752 -1.103999,3.36 -0.624001,1.608 -1.212001,2.88 h -1.007999 q -0.588,-1.272 -1.224001,-2.88 -0.624,-1.608 -1.092,-3.36 h 1.200001 q 0.144,0.588 0.336,1.26 0.204,0.66 0.419999,1.32 0.228,0.648 0.456,1.26 0.228,0.612 0.432001,1.092 0.204,-0.48 0.432,-1.092 0.227999,-0.612 0.443999,-1.26 0.228,-0.66 0.42,-1.32 0.204001,-0.672 0.348,-1.26 z"
     style="font-size:12px;font-family:Ubuntu;fill:#111111"
     id="path849" /><path
     d="m 47.510438,-3.108 q 0,-0.828 0.239999,-1.44 0.24,-0.624 0.636,-1.032 0.396,-0.408 0.912,-0.612 0.516,-0.204 1.056001,-0.204 1.259999,0 1.931999,0.792 0.672001,0.78 0.672001,2.388 0,0.072 0,0.192 0,0.108 -0.012,0.204 h -4.272001 q 0.072,0.972 0.564001,1.476 0.491999,0.504 1.535999,0.504 0.588,0 0.984,-0.096 0.408,-0.108 0.612001,-0.204 l 0.155999,0.936 q -0.204,0.108 -0.72,0.228 -0.504,0.12 -1.152,0.12 -0.816,0 -1.415999,-0.24 -0.588,-0.252 -0.972,-0.684 -0.384,-0.432 -0.576,-1.02 -0.18,-0.6 -0.18,-1.308 z m 4.283999,-0.612 q 0.012,-0.756 -0.384,-1.236 -0.384,-0.492 -1.067999,-0.492 -0.384,0 -0.684001,0.156 -0.287999,0.144 -0.492,0.384 -0.204,0.24 -0.323999,0.552 -0.108001,0.312 -0.144001,0.636 z"
     style="font-size:12px;font-family:Ubuntu;fill:#111111"
     id="path851" /><path
     d="m 56.433562,0.12 q -1.032,-0.024 -1.463999,-0.444 -0.432001,-0.42 -0.432001,-1.308 V -9.12 l 1.116,-0.192 v 7.5 q 0,0.276 0.048,0.456 0.048,0.18 0.155999,0.288 0.108,0.108 0.288,0.168 0.180001,0.048 0.444,0.084 z"
     style="font-size:12px;font-family:Ubuntu;fill:#111111"
     id="path853" /><path
     d="m 60.608437,-6.06 q 0.384,-0.096 1.02,-0.204 0.636,-0.108 1.464001,-0.108 0.744,0 1.236,0.216 0.491999,0.204 0.779999,0.588 0.300001,0.372 0.42,0.9 0.12,0.528 0.12,1.164 V 0 h -1.116 v -3.264 q 0,-0.576 -0.084,-0.984 -0.072,-0.408 -0.251999,-0.66 -0.180001,-0.252 -0.480001,-0.36 -0.3,-0.12 -0.744,-0.12 -0.18,0 -0.372,0.012 -0.192,0.012 -0.372,0.036 -0.168,0.012 -0.312,0.036 -0.131999,0.024 -0.192,0.036 V 0 h -1.116 z"
     style="font-size:12px;font-family:Ubuntu;fill:#111111"
     id="path855" /><path
     d="m 69.611063,-0.804 q 0.396,0 0.695999,-0.012 0.312,-0.024 0.516001,-0.072 v -1.86 q -0.12,-0.06 -0.396,-0.096 -0.264001,-0.048 -0.648001,-0.048 -0.252,0 -0.539999,0.036 -0.276,0.036 -0.516001,0.156 -0.227999,0.108 -0.384,0.312 -0.155999,0.192 -0.155999,0.516 0,0.6 0.384,0.84 0.384,0.228 1.044,0.228 z m -0.096,-5.592 q 0.672,0 1.128,0.18 0.468001,0.168 0.744,0.492 0.288,0.312 0.408,0.756 0.120001,0.432 0.120001,0.96 v 3.9 q -0.144001,0.024 -0.408,0.072 -0.252001,0.036 -0.576001,0.072 -0.324,0.036 -0.708,0.06 -0.372,0.036 -0.744,0.036 -0.527999,0 -0.971999,-0.108 -0.444001,-0.108 -0.768,-0.336 -0.324,-0.24 -0.504001,-0.624 -0.179999,-0.384 -0.179999,-0.924 0,-0.516 0.203999,-0.888 0.216001,-0.372 0.576001,-0.6 0.36,-0.228 0.839999,-0.336 0.48,-0.108 1.008001,-0.108 0.167999,0 0.348,0.024 0.179999,0.012 0.336,0.048 0.167999,0.024 0.287999,0.048 0.120001,0.024 0.168001,0.036 v -0.312 q 0,-0.276 -0.06,-0.54 -0.06,-0.276 -0.216001,-0.48 -0.155999,-0.216 -0.432,-0.336 -0.264,-0.132 -0.696,-0.132 -0.551999,0 -0.972,0.084 -0.408,0.072 -0.611999,0.156 l -0.132,-0.924 q 0.215999,-0.096 0.719999,-0.18 0.504001,-0.096 1.092,-0.096 z"
     style="font-size:12px;font-family:Ubuntu;fill:#111111"
     id="path857" /></g>
		<g
   aria-label="Snap Store"
   transform="matrix(1 0 0 1 50 41)"
   style="font-size:24px;font-family:Ubuntu;fill:#111111"
   id="text14"><path
     d="m 5.928,-1.656 q 3.648,0 3.648,-2.496 0,-0.768 -0.336,-1.296 Q 8.928,-6 8.376,-6.384 7.824,-6.792 7.104,-7.08 6.408,-7.368 5.616,-7.656 4.704,-7.968 3.888,-8.352 3.072,-8.76 2.472,-9.288 q -0.6,-0.552 -0.96,-1.296 -0.336,-0.744 -0.336,-1.8 0,-2.184 1.488,-3.408 1.488,-1.224 4.104,-1.224 1.512,0 2.736,0.336 1.248,0.312 1.824,0.696 l -0.744,1.896 Q 10.08,-14.4 9.072,-14.688 8.088,-15 6.768,-15 q -0.672,0 -1.248,0.144 -0.576,0.144 -1.008,0.432 -0.432,0.288 -0.696,0.744 -0.24,0.432 -0.24,1.032 0,0.672 0.264,1.128 0.264,0.456 0.744,0.816 0.48,0.336 1.104,0.624 0.648,0.288 1.416,0.576 1.08,0.432 1.968,0.864 0.912,0.432 1.56,1.032 0.672,0.6 1.032,1.44 0.36,0.816 0.36,1.992 0,2.184 -1.608,3.36 Q 8.832,0.36 5.928,0.36 4.944,0.36 4.104,0.216 3.288,0.096 2.64,-0.072 1.992,-0.264 1.512,-0.456 1.056,-0.672 0.792,-0.816 l 0.696,-1.92 q 0.552,0.312 1.68,0.696 1.128,0.384 2.76,0.384 z"
     style="font-size:24px;font-family:Ubuntu;fill:#111111"
     id="path860" /><path
     d="m 14.67,-12.12 q 0.768,-0.192 2.04,-0.408 1.272,-0.216 2.928,-0.216 1.488,0 2.472,0.432 0.984,0.408 1.56,1.176 0.6,0.744 0.84,1.8 0.24,1.056 0.24,2.328 V 0 h -2.232 v -6.528 q 0,-1.152 -0.168,-1.968 -0.144,-0.816 -0.504,-1.32 -0.36,-0.504 -0.96,-0.72 -0.6,-0.24 -1.488,-0.24 -0.36,0 -0.744,0.024 -0.384,0.024 -0.744,0.072 -0.336,0.024 -0.624,0.072 -0.264,0.048 -0.384,0.072 V 0 H 14.67 Z"
     style="font-size:24px;font-family:Ubuntu;fill:#111111"
     id="path862" /><path
     d="m 32.67525,-1.608 q 0.792,0 1.392,-0.024 0.624,-0.048 1.032,-0.144 v -3.72 q -0.24,-0.12 -0.792,-0.192 -0.528,-0.096 -1.296,-0.096 -0.504,0 -1.08,0.072 -0.552,0.072 -1.032,0.312 -0.456,0.216 -0.768,0.624 -0.312,0.384 -0.312,1.032 0,1.2 0.768,1.68 0.768,0.456 2.088,0.456 z m -0.192,-11.184 q 1.344,0 2.256,0.36 0.936,0.336 1.488,0.984 0.576,0.624 0.816,1.512 0.24,0.864 0.24,1.92 v 7.8 q -0.288,0.048 -0.816,0.144 -0.504,0.072 -1.152,0.144 -0.648,0.072 -1.416,0.12 -0.744,0.072 -1.488,0.072 -1.056,0 -1.944,-0.216 -0.888,-0.216 -1.536,-0.672 -0.648,-0.48 -1.008,-1.248 -0.36,-0.768 -0.36,-1.848 0,-1.032 0.408,-1.776 0.432,-0.744 1.152,-1.2 0.72,-0.456 1.68,-0.672 0.96,-0.216 2.016,-0.216 0.336,0 0.696,0.048 0.36,0.024 0.672,0.096 0.336,0.048 0.576,0.096 0.24,0.048 0.336,0.072 v -0.624 q 0,-0.552 -0.12,-1.08 -0.12,-0.552 -0.432,-0.96 -0.312,-0.432 -0.864,-0.672 -0.528,-0.264 -1.392,-0.264 -1.104,0 -1.944,0.168 -0.816,0.144 -1.224,0.312 l -0.264,-1.848 q 0.432,-0.192 1.44,-0.36 1.008,-0.192 2.184,-0.192 z"
     style="font-size:24px;font-family:Ubuntu;fill:#111111"
     id="path864" /><path
     d="m 49.630875,-6.216 q 0,-2.184 -1.08,-3.36 -1.08,-1.176 -2.88,-1.176 -1.008,0 -1.584,0.072 -0.552,0.072 -0.888,0.168 v 7.872 q 0.408,0.336 1.176,0.648 0.768,0.312 1.68,0.312 0.96,0 1.632,-0.336 0.696,-0.36 1.128,-0.96 0.432,-0.624 0.624,-1.44 0.192,-0.84 0.192,-1.8 z m 2.328,0 q 0,1.416 -0.384,2.616 -0.36,1.2 -1.08,2.064 -0.72,0.864 -1.776,1.344 -1.032,0.48 -2.376,0.48 -1.08,0 -1.92,-0.288 -0.816,-0.288 -1.224,-0.552 V 4.44 h -2.232 v -16.536 q 0.792,-0.192 1.968,-0.408 1.2,-0.24 2.76,-0.24 1.44,0 2.592,0.456 1.152,0.456 1.968,1.296 0.816,0.84 1.248,2.064 0.456,1.2 0.456,2.712 z"
     style="font-size:24px;font-family:Ubuntu;fill:#111111"
     id="path866" /><path
     d="m 64.662375,-1.656 q 3.648,0 3.648,-2.496 0,-0.768 -0.336,-1.296 -0.312,-0.552 -0.864,-0.936 -0.552,-0.408 -1.272,-0.696 -0.696,-0.288 -1.488,-0.576 -0.912,-0.312 -1.728,-0.696 -0.816,-0.408 -1.416,-0.936 -0.6,-0.552 -0.96,-1.296 -0.336,-0.744 -0.336,-1.8 0,-2.184 1.488,-3.408 1.488,-1.224 4.104,-1.224 1.512,0 2.736,0.336 1.248,0.312 1.824,0.696 l -0.744,1.896 q -0.504,-0.312 -1.512,-0.6 -0.984,-0.312 -2.304,-0.312 -0.672,0 -1.248,0.144 -0.576,0.144 -1.008,0.432 -0.432,0.288 -0.696,0.744 -0.24,0.432 -0.24,1.032 0,0.672 0.264,1.128 0.264,0.456 0.744,0.816 0.48,0.336 1.104,0.624 0.648,0.288 1.416,0.576 1.08,0.432 1.968,0.864 0.912,0.432 1.56,1.032 0.672,0.6 1.032,1.44 0.36,0.816 0.36,1.992 0,2.184 -1.608,3.36 -1.584,1.176 -4.488,1.176 -0.984,0 -1.824,-0.144 -0.816,-0.12 -1.464,-0.288 -0.648,-0.192 -1.128,-0.384 -0.456,-0.216 -0.72,-0.36 l 0.696,-1.92 q 0.552,0.312 1.68,0.696 1.128,0.384 2.76,0.384 z"
     style="font-size:24px;font-family:Ubuntu;fill:#111111"
     id="path868" /><path
     d="m 75.492375,-12.48 h 4.728 v 1.872 h -4.728 v 5.76 q 0,0.936 0.144,1.56 0.144,0.6 0.432,0.96 0.288,0.336 0.72,0.48 0.432,0.144 1.008,0.144 1.008,0 1.608,-0.216 0.624,-0.24 0.864,-0.336 l 0.432,1.848 q -0.336,0.168 -1.176,0.408 -0.84,0.264 -1.92,0.264 -1.272,0 -2.112,-0.312 -0.816,-0.336 -1.32,-0.984 -0.504,-0.648 -0.72,-1.584 -0.192,-0.96 -0.192,-2.208 V -15.96 l 2.232,-0.384 z"
     style="font-size:24px;font-family:Ubuntu;fill:#111111"
     id="path870" /><path
     d="m 93.7485,-6.24 q 0,1.488 -0.432,2.688 -0.432,1.2 -1.224,2.064 -0.768,0.864 -1.848,1.344 -1.08,0.456 -2.352,0.456 -1.272,0 -2.352,-0.456 -1.08,-0.48 -1.872,-1.344 -0.768,-0.864 -1.2,-2.064 -0.432,-1.2 -0.432,-2.688 0,-1.464 0.432,-2.664 0.432,-1.224 1.2,-2.088 0.792,-0.864 1.872,-1.32 1.08,-0.48 2.352,-0.48 1.272,0 2.352,0.48 1.08,0.456 1.848,1.32 0.792,0.864 1.224,2.088 0.432,1.2 0.432,2.664 z m -2.328,0 q 0,-2.112 -0.96,-3.336 -0.936,-1.248 -2.568,-1.248 -1.632,0 -2.592,1.248 -0.936,1.224 -0.936,3.336 0,2.112 0.936,3.36 0.96,1.224 2.592,1.224 1.632,0 2.568,-1.224 0.96,-1.248 0.96,-3.36 z"
     style="font-size:24px;font-family:Ubuntu;fill:#111111"
     id="path872" /><path
     d="m 101.49675,-12.744 q 0.288,0 0.648,0.048 0.384,0.024 0.744,0.096 0.36,0.048 0.648,0.12 0.312,0.048 0.456,0.096 l -0.384,1.944 q -0.264,-0.096 -0.888,-0.216 -0.6,-0.144 -1.56,-0.144 -0.624,0 -1.248,0.144 -0.6,0.12 -0.792,0.168 V 0 h -2.232 v -11.952 q 0.792,-0.288 1.968,-0.528 1.176,-0.264 2.64,-0.264 z"
     style="font-size:24px;font-family:Ubuntu;fill:#111111"
     id="path874" /><path
     d="m 105.474,-6.216 q 0,-1.656 0.48,-2.88 0.48,-1.248 1.272,-2.064 0.792,-0.816 1.824,-1.224 1.032,-0.408 2.112,-0.408 2.52,0 3.864,1.584 1.344,1.56 1.344,4.776 0,0.144 0,0.384 0,0.216 -0.024,0.408 h -8.544 q 0.144,1.944 1.128,2.952 0.984,1.008 3.072,1.008 1.176,0 1.968,-0.192 0.816,-0.216 1.224,-0.408 l 0.312,1.872 q -0.408,0.216 -1.44,0.456 -1.008,0.24 -2.304,0.24 -1.632,0 -2.832,-0.48 -1.176,-0.504 -1.944,-1.368 -0.768,-0.864 -1.152,-2.04 -0.36,-1.2 -0.36,-2.616 z m 8.568,-1.224 q 0.024,-1.512 -0.768,-2.472 -0.768,-0.984 -2.136,-0.984 -0.768,0 -1.368,0.312 -0.576,0.288 -0.984,0.768 -0.408,0.48 -0.648,1.104 -0.216,0.624 -0.288,1.272 z"
     style="font-size:24px;font-family:Ubuntu;fill:#111111"
     id="path876" /></g>
	</g>
</g>
</svg>