<?xml version="1.0" encoding="UTF-8"?>
<!-- Generator: Adobe Illustrator 23.0.1, SVG Export Plug-In . SVG Version: 6.00 Build 0)  -->
<svg width="206" height="56" enable-background="new 0 0 206 56" version="1.1" viewBox="0 0 206 56" xml:space="preserve" xmlns="http://www.w3.org/2000/svg"> xml:space="preserve" xmlns:cc="http://creativecommons.org/ns#"
<style type="text/css">
	.st0{fill-rule:evenodd;clip-rule:evenodd;fill:#FFFFFF;stroke:#CDCDCD;}
	.st1{fill:#82BEA0;}
	.st2{fill:#FA6441;}
	.st3{fill:#111111;}
	.st4{font-family:'Ubuntu';}
	.st5{font-size:12px;}
	.st6{font-family:'Ubuntu';}
	.st7{font-size:24px;}
</style>
<title>[TR]-snap-store-white</title>
<desc>Created with Inkscape.</desc>
<g>
	<path id="Rectangle-path" class="st0" d="m2.7528.5h200.49c1.239 0 2.2528.88393 2.2528 1.9643v51.071c0 1.0804-1.0138 1.9643-2.2528 1.9643h-200.49c-1.2391 0-2.2528-.88393-2.2528-1.9643v-51.071c0-1.0804 1.0138-1.9643 2.2528-1.9643z"/>
	<g id="logo" transform="translate(8,11)">
		<path id="body" class="st1" d="m19 17.8v-10.5l7.2 3.2zm-13.8 13.8 8.9-16.6 3.9 3.9zm-5-31.4 18.2 6.6v11.6z"/>
		<polygon id="head" class="st2" points="19.4 6.8 32.9 12.9 29.9 6.8"/>
	</g>
	<text class="st3 st4 st5" transform="translate(50,44)" font-family="Ubuntu">Edinin</text>
	<text class="st3 st4 st7" transform="translate(50,27)">Snap Store<tspan font-size="12px">’dan</tspan></text>
</g>
</svg>
