<?xml version="1.0" encoding="UTF-8"?>
<!-- Generator: Adobe Illustrator 23.0.1, SVG Export Plug-In . SVG Version: 6.00 Build 0)  -->
<svg width="206" height="56" enable-background="new 0 0 206 56" version="1.1" viewBox="0 0 206 56" xml:space="preserve" xmlns="http://www.w3.org/2000/svg"> xml:space="preserve" xmlns:cc="http://creativecommons.org/ns#"
<style type="text/css">
	.st0{fill-rule:evenodd;clip-rule:evenodd;fill:#FFFFFF;stroke:#CDCDCD;}
	.st1{fill:#82BEA0;}
	.st2{fill:#FA6441;}
	.st3{fill:#111111;}
	.st4{font-family:'Ubuntu';}
	.st5{font-size:12px;}
	.st6{font-family:'Ubuntu';}
	.st7{font-size:24px;}
</style>
<title>[TR]-snap-store-white-uneditable</title>
<desc>Created with Inkscape.</desc>
<g>
	<path id="Rectangle-path" class="st0" d="m2.7528.5h200.49c1.239 0 2.2528.88393 2.2528 1.9643v51.071c0 1.0804-1.0138 1.9643-2.2528 1.9643h-200.49c-1.2391 0-2.2528-.88393-2.2528-1.9643v-51.071c0-1.0804 1.0138-1.9643 2.2528-1.9643z"/>
	<g id="logo" transform="translate(8,11)">
		<path id="body" class="st1" d="m19 17.8v-10.5l7.2 3.2zm-13.8 13.8 8.9-16.6 3.9 3.9zm-5-31.4 18.2 6.6v11.6z"/>
		<path id="head" class="st2" d="m19.4 6.8 13.5 6.1-3-6.1z" fill="#fa6441"/>
	</g>
	<path class="st3 st4 st5" transform="translate(50,44)" d="m1.032 0v-8.316h5.076v.996h-3.912v2.472h3.48v.972h-3.48v2.88h4.212v.996zm10.608-4.92q-.204-.168-.588-.324t-.84-.156q-.48 0-.828.18-.336.168-.552.48-.216.3-.312.72t-.096.9q0 1.092.54 1.692.54.588 1.44.588.456 0 .756-.036.312-.048.48-.096zm0-4.2 1.116-.192v9.132q-.384.108-.984.216t-1.38.108q-.72 0-1.296-.228t-.984-.648-.636-1.02q-.216-.612-.216-1.368 0-.72.18-1.32.192-.6.552-1.032t.876-.672q.528-.24 1.2-.24.54 0 .948.144.42.144.624.276zm4.152 9.12h-1.116v-6.24h1.116zm-.564-7.368q-.3 0-.516-.192-.204-.204-.204-.54t.204-.528q.216-.204.516-.204t.504.204q.216.192.216.528t-.216.54q-.204.192-.504.192zm2.484 1.308q.384-.096 1.02-.204t1.464-.108q.744 0 1.236.216.492.204.78.588.3.372.42.9t.12 1.164v3.504h-1.116v-3.264q0-.576-.084-.984-.072-.408-.252-.66t-.48-.36q-.3-.12-.744-.12-.18 0-.372.012t-.372.036q-.168.012-.312.036-.132.024-.192.036v5.268h-1.116zm8.004 6.06h-1.116v-6.24h1.116zm-.564-7.368q-.3 0-.516-.192-.204-.204-.204-.54t.204-.528q.216-.204.516-.204t.504.204q.216.192.216.528t-.216.54q-.204.192-.504.192zm2.484 1.308q.384-.096 1.02-.204t1.464-.108q.744 0 1.236.216.492.204.78.588.3.372.42.9t.12 1.164v3.504h-1.116v-3.264q0-.576-.084-.984-.072-.408-.252-.66t-.48-.36q-.3-.12-.744-.12-.18 0-.372.012t-.372.036q-.168.012-.312.036-.132.024-.192.036v5.268h-1.116z" fill="#111" aria-label="Edinin"/>
	<g class="st3 st4 st7" transform="translate(50,27)" fill="#111" aria-label="Snap Store’dan"><path d="m5.928-1.656q3.648 0 3.648-2.496 0-.768-.336-1.296-.312-.552-.864-.936-.552-.408-1.272-.696-.696-.288-1.488-.576-.912-.312-1.728-.696-.816-.408-1.416-.936-.6-.552-.96-1.296-.336-.744-.336-1.8 0-2.184 1.488-3.408t4.104-1.224q1.512 0 2.736.336 1.248.312 1.824.696l-.744 1.896q-.504-.312-1.512-.6-.984-.312-2.304-.312-.672 0-1.248.144t-1.008.432-.696.744q-.24.432-.24 1.032 0 .672.264 1.128t.744.816q.48.336 1.104.624.648.288 1.416.576 1.08.432 1.968.864.912.432 1.56 1.032.672.6 1.032 1.44.36.816.36 1.992 0 2.184-1.608 3.36-1.584 1.176-4.488 1.176-.984 0-1.824-.144-.816-.12-1.464-.288-.648-.192-1.128-.384-.456-.216-.72-.36l.696-1.92q.552.312 1.68.696t2.76.384zm8.76-10.464q.768-.192 2.04-.408t2.928-.216q1.488 0 2.472.432.984.408 1.56 1.176.6.744.84 1.8t.24 2.328v7.008h-2.232v-6.528q0-1.152-.168-1.968-.144-.816-.504-1.32t-.96-.72q-.6-.24-1.488-.24-.36 0-.744.024t-.744.072q-.336.024-.624.072-.264.048-.384.072v10.536h-2.232zm18 10.512q.792 0 1.392-.024.624-.048 1.032-.144v-3.72q-.24-.12-.792-.192-.528-.096-1.296-.096-.504 0-1.08.072-.552.072-1.032.312-.456.216-.768.624-.312.384-.312 1.032 0 1.2.768 1.68.768.456 2.088.456zm-.192-11.184q1.344 0 2.256.36.936.336 1.488.984.576.624.816 1.512.24.864.24 1.92v7.8q-.288.048-.816.144-.504.072-1.152.144t-1.416.12q-.744.072-1.488.072-1.056 0-1.944-.216t-1.536-.672q-.648-.48-1.008-1.248t-.36-1.848q0-1.032.408-1.776.432-.744 1.152-1.2t1.68-.672 2.016-.216q.336 0 .696.048.36.024.672.096.336.048.576.096t.336.072v-.624q0-.552-.12-1.08-.12-.552-.432-.96-.312-.432-.864-.672-.528-.264-1.392-.264-1.104 0-1.944.168-.816.144-1.224.312l-.264-1.848q.432-.192 1.44-.36 1.008-.192 2.184-.192zm17.16 6.576q0-2.184-1.08-3.36t-2.88-1.176q-1.008 0-1.584.072-.552.072-.888.168v7.872q.408.336 1.176.648t1.68.312q.96 0 1.632-.336.696-.36 1.128-.96.432-.624.624-1.44.192-.84.192-1.8zm2.328 0q0 1.416-.384 2.616-.36 1.2-1.08 2.064t-1.776 1.344q-1.032.48-2.376.48-1.08 0-1.92-.288-.816-.288-1.224-.552v4.992h-2.232v-16.536q.792-.192 1.968-.408 1.2-.24 2.76-.24 1.44 0 2.592.456t1.968 1.296 1.248 2.064q.456 1.2.456 2.712zm12.696 4.56q3.648 0 3.648-2.496 0-.768-.336-1.296-.312-.552-.864-.936-.552-.408-1.272-.696-.696-.288-1.488-.576-.912-.312-1.728-.696-.816-.408-1.416-.936-.6-.552-.96-1.296-.336-.744-.336-1.8 0-2.184 1.488-3.408t4.104-1.224q1.512 0 2.736.336 1.248.312 1.824.696l-.744 1.896q-.504-.312-1.512-.6-.984-.312-2.304-.312-.672 0-1.248.144t-1.008.432-.696.744q-.24.432-.24 1.032 0 .672.264 1.128t.744.816q.48.336 1.104.624.648.288 1.416.576 1.08.432 1.968.864.912.432 1.56 1.032.672.6 1.032 1.44.36.816.36 1.992 0 2.184-1.608 3.36-1.584 1.176-4.488 1.176-.984 0-1.824-.144-.816-.12-1.464-.288-.648-.192-1.128-.384-.456-.216-.72-.36l.696-1.92q.552.312 1.68.696t2.76.384zm10.848-10.824h4.728v1.872h-4.728v5.76q0 .936.144 1.56.144.6.432.96.288.336.72.48t1.008.144q1.008 0 1.608-.216.624-.24.864-.336l.432 1.848q-.336.168-1.176.408-.84.264-1.92.264-1.272 0-2.112-.312-.816-.336-1.32-.984t-.72-1.584q-.192-.96-.192-2.208v-11.136l2.232-.384zm18.24 6.24q0 1.488-.432 2.688t-1.224 2.064q-.768.864-1.848 1.344-1.08.456-2.352.456t-2.352-.456q-1.08-.48-1.872-1.344-.768-.864-1.2-2.064t-.432-2.688q0-1.464.432-2.664.432-1.224 1.2-2.088.792-.864 1.872-1.32 1.08-.48 2.352-.48t2.352.48q1.08.456 1.848 1.32.792.864 1.224 2.088.432 1.2.432 2.664zm-2.328 0q0-2.112-.96-3.336-.936-1.248-2.568-1.248t-2.592 1.248q-.936 1.224-.936 3.336t.936 3.36q.96 1.224 2.592 1.224t2.568-1.224q.96-1.248.96-3.36zm10.08-6.504q.288 0 .648.048.384.024.744.096.36.048.648.12.312.048.456.096l-.384 1.944q-.264-.096-.888-.216-.6-.144-1.56-.144-.624 0-1.248.144-.6.12-.792.168v10.488h-2.232v-11.952q.792-.288 1.968-.528 1.176-.264 2.64-.264zm3.96 6.528q0-1.656.48-2.88.48-1.248 1.272-2.064t1.824-1.224 2.112-.408q2.52 0 3.864 1.584 1.344 1.56 1.344 4.776 0 .144 0 .384 0 .216-.024.408h-8.544q.144 1.944 1.128 2.952t3.072 1.008q1.176 0 1.968-.192.816-.216 1.224-.408l.312 1.872q-.408.216-1.44.456-1.008.24-2.304.24-1.632 0-2.832-.48-1.176-.504-1.944-1.368t-1.152-2.04q-.36-1.2-.36-2.616zm8.568-1.224q.024-1.512-.768-2.472-.768-.984-2.136-.984-.768 0-1.368.312-.576.288-.984.768t-.648 1.104q-.216.624-.288 1.272z"/><path d="m119.77-9q0 .132 0 .264 0 .12-.012.24-.048.624-.276 1.236-.228.6-.552 1.14l-.864-.276q.252-.54.372-1.068.132-.54.132-1.008 0-.12-.012-.252 0-.144-.012-.276zm5.712 4.08q-.204-.168-.588-.324t-.84-.156q-.48 0-.828.18-.336.168-.552.48-.216.3-.312.72t-.096.9q0 1.092.54 1.692.54.588 1.44.588.456 0 .756-.036.312-.048.48-.096zm0-4.2 1.116-.192v9.132q-.384.108-.984.216t-1.38.108q-.72 0-1.296-.228t-.984-.648-.636-1.02q-.216-.612-.216-1.368 0-.72.18-1.32.192-.6.552-1.032t.876-.672q.528-.24 1.2-.24.54 0 .948.144.42.144.624.276zm5.148 8.316q.396 0 .696-.012.312-.024.516-.072v-1.86q-.12-.06-.396-.096-.264-.048-.648-.048-.252 0-.54.036-.276.036-.516.156-.228.108-.384.312-.156.192-.156.516 0 .6.384.84.384.228 1.044.228zm-.096-5.592q.672 0 1.128.18.468.168.744.492.288.312.408.756.12.432.12.96v3.9q-.144.024-.408.072-.252.036-.576.072t-.708.06q-.372.036-.744.036-.528 0-.972-.108t-.768-.336q-.324-.24-.504-.624t-.18-.924q0-.516.204-.888.216-.372.576-.6t.84-.336 1.008-.108q.168 0 .348.024.18.012.336.048.168.024.288.048t.168.036v-.312q0-.276-.06-.54-.06-.276-.216-.48-.156-.216-.432-.336-.264-.132-.696-.132-.552 0-.972.084-.408.072-.612.156l-.132-.924q.216-.096.72-.18.504-.096 1.092-.096zm4.248.336q.384-.096 1.02-.204t1.464-.108q.744 0 1.236.216.492.204.78.588.3.372.42.9t.12 1.164v3.504h-1.116v-3.264q0-.576-.084-.984-.072-.408-.252-.66t-.48-.36q-.3-.12-.744-.12-.18 0-.372.012t-.372.036q-.168.012-.312.036-.132.024-.192.036v5.268h-1.116z"/></g>
</g>
</svg>
