<?xml version="1.0" encoding="UTF-8" standalone="no"?>
<svg
   xmlns:dc="http://purl.org/dc/elements/1.1/"
   xmlns:cc="http://creativecommons.org/ns#"
   xmlns:rdf="http://www.w3.org/1999/02/22-rdf-syntax-ns#"
   xmlns:svg="http://www.w3.org/2000/svg"
   xmlns="http://www.w3.org/2000/svg"
   xmlns:xlink="http://www.w3.org/1999/xlink"
   xmlns:sodipodi="http://sodipodi.sourceforge.net/DTD/sodipodi-0.dtd"
   xmlns:inkscape="http://www.inkscape.org/namespaces/inkscape"
   width="182px"
   height="56px"
   viewBox="0 0 182 56"
   version="1.1"
   id="svg46"
   sodipodi:docname="[RU]-snap-store-black-uneditable.svg"
   inkscape:version="0.92.3 (2405546, 2018-03-11)"
   inkscape:export-filename="/home/user/Загрузки/snap-store-badges/RU/[RU]-snap-store-black.png"
   inkscape:export-xdpi="90"
   inkscape:export-ydpi="90">
  <metadata
     id="metadata50">
    <rdf:RDF>
      <cc:Work
         rdf:about="">
        <dc:format>image/svg+xml</dc:format>
        <dc:type
           rdf:resource="http://purl.org/dc/dcmitype/StillImage" />
        <dc:title>[EN]-snap-store-black</dc:title>
      </cc:Work>
    </rdf:RDF>
  </metadata>
  <sodipodi:namedview
     pagecolor="#ffffff"
     bordercolor="#666666"
     borderopacity="1"
     objecttolerance="10"
     gridtolerance="10"
     guidetolerance="10"
     inkscape:pageopacity="0"
     inkscape:pageshadow="2"
     inkscape:window-width="1299"
     inkscape:window-height="704"
     id="namedview48"
     showgrid="false"
     inkscape:zoom="2.7637363"
     inkscape:cx="97.287792"
     inkscape:cy="33.751683"
     inkscape:window-x="67"
     inkscape:window-y="27"
     inkscape:window-maximized="1"
     inkscape:current-layer="Get-it-from-the" />
  <!-- Generator: Sketch 52.3 (67297) - http://www.bohemiancoding.com/sketch -->
  <title
     id="title2">[EN]-snap-store-black</title>
  <desc
     id="desc4">Created with Sketch.</desc>
  <defs
     id="defs7">
    <polygon
       id="path-1"
       points="10.5520345 0.559428571 0.0608793103 0.559428571 13.5487759 6.58" />
  </defs>
  <g
     id="[EN]-snap-store-black"
     style="fill:none;fill-rule:evenodd;stroke:none;stroke-width:1">
    <g
       transform="translate(1,1)"
       id="g43">
      <rect
         id="Rectangle-path"
         x="0"
         y="0"
         width="180"
         height="54"
         rx="2"
         style="fill:#252525;stroke:#cdcdcd" />
      <g
         id="logo"
         transform="translate(8,11)">
        <g
           id="g30">
          <polygon
             id="Fill-2265"
             points="26.205414,10.552571 18.987517,7.3308571 18.987517,17.801714 "
             style="fill:#82bea0" />
          <polygon
             id="Fill-2266"
             points="17.942328,18.852 14.058569,14.974286 5.2077414,31.641143 "
             style="fill:#82bea0" />
          <polygon
             id="Fill-2267"
             points="18.37531,18.417143 18.37531,6.8457143 0.16018086,0.23326286 "
             style="fill:#82bea0" />
          <g
             id="Fill-2268"
             transform="translate(19.344828,6.285714)"
             style="fill:#fa6441">
            <polygon
               id="path-2"
               points="10.552034,0.55942857 0.06087931,0.55942857 13.548776,6.58 " />
          </g>
          <g
             id="colour/snappy-accent-Clipped"
             transform="translate(19.344828,6.285714)">
            <g
               id="g27">
              <mask
                 id="mask-2"
                 fill="white">
                <use
                   xlink:href="#path-1"
                   id="use15"
                   x="0"
                   y="0"
                   width="100%"
                   height="100%" />
              </mask>
              <g
                 id="g18" />
              <g
                 id="colour/snappy-accent"
                 mask="url(#mask-2)">
                <g
                   transform="translate(-20,-10)"
                   id="Rectangle-2">
                  <g
                     transform="translate(0.086207,0.857143)"
                     id="g23">
                    <g
                       id="Group"
                       transform="translate(0.343092,0.497771)"
                       style="fill:#fa6441">
                      <rect
                         id="rect20"
                         x="0"
                         y="0"
                         width="101.27586"
                         height="34.857143" />
                    </g>
                  </g>
                </g>
              </g>
            </g>
          </g>
        </g>
      </g>
      <g
         id="Get-it-from-the"
         transform="translate(50,7)"
         font-size="12"
         font-weight="normal"
         style="font-weight:normal;font-size:12px;font-family:Ubuntu;fill:#ffffff">
        <g
           aria-label="Загрузите из"
           id="text35">
          <path
             d="M 1.74,6.14 H 2.364 Q 2.76,6.14 3.168,6.08 3.576,6.02 3.912,5.864 4.248,5.696 4.464,5.42 4.68,5.144 4.68,4.724 4.68,4.184 4.212,3.848 3.756,3.5 2.988,3.5 2.328,3.5 1.8,3.656 1.272,3.8 1.02,3.956 L 0.648,3.008 Q 0.792,2.912 1.032,2.828 1.284,2.732 1.584,2.66 1.896,2.588 2.256,2.552 2.616,2.504 3,2.504 q 0.624,0 1.152,0.132 0.528,0.132 0.912,0.408 0.384,0.264 0.6,0.684 Q 5.88,4.136 5.88,4.7 5.88,5.276 5.508,5.78 5.148,6.284 4.44,6.512 4.8,6.608 5.124,6.788 5.46,6.956 5.7,7.232 5.952,7.496 6.096,7.856 6.252,8.216 6.252,8.696 6.252,9.356 6,9.836 5.76,10.304 5.316,10.604 4.884,10.904 4.26,11.036 3.636,11.18 2.88,11.18 2.424,11.18 2.016,11.108 1.608,11.048 1.284,10.964 0.96,10.868 0.72,10.76 0.48,10.652 0.348,10.58 L 0.696,9.62 q 0.132,0.072 0.348,0.168 0.228,0.096 0.504,0.18 0.276,0.084 0.612,0.144 0.336,0.06 0.708,0.06 1.02,0 1.584,-0.336 0.576,-0.348 0.576,-1.164 0,-0.48 -0.204,-0.78 Q 4.632,7.58 4.284,7.4 3.948,7.22 3.48,7.16 3.024,7.088 2.484,7.088 H 1.74 Z"
             id="path843"
             inkscape:connector-curvature="0" />
          <path
             d="m 9.9391875,10.196 q 0.3960005,0 0.6960005,-0.012 0.312,-0.024 0.515999,-0.072 v -1.86 q -0.119999,-0.06 -0.395999,-0.096 -0.264001,-0.048 -0.648,-0.048 -0.2520005,0 -0.5400005,0.036 -0.276,0.036 -0.516,0.156 -0.228,0.108 -0.384,0.312 -0.156,0.192 -0.156,0.516 0,0.6 0.384,0.84 0.384,0.228 1.044,0.228 z m -0.096,-5.592 q 0.6720005,0 1.1279995,0.18 0.468,0.168 0.744001,0.492 0.287999,0.312 0.408,0.756 0.12,0.432 0.12,0.96 v 3.9 q -0.144001,0.024 -0.408,0.072 -0.252,0.036 -0.576001,0.072 -0.323999,0.036 -0.707999,0.06 -0.372,0.036 -0.7440005,0.036 -0.528,0 -0.972,-0.108 -0.444,-0.108 -0.768,-0.336 -0.324,-0.24 -0.504,-0.624 -0.18,-0.384 -0.18,-0.924 0,-0.516 0.204,-0.888 0.216,-0.372 0.576,-0.6 0.36,-0.228 0.84,-0.336 0.48,-0.108 1.0080005,-0.108 0.168,0 0.348,0.024 0.18,0.012 0.335999,0.048 0.168001,0.024 0.288001,0.048 0.12,0.024 0.167999,0.036 V 7.052 q 0,-0.276 -0.06,-0.54 -0.06,-0.276 -0.216001,-0.48 -0.155999,-0.216 -0.431999,-0.336 -0.264,-0.132 -0.6960005,-0.132 -0.552,0 -0.972,0.084 -0.408,0.072 -0.612,0.156 l -0.132,-0.924 q 0.216,-0.096 0.72,-0.18 0.504,-0.096 1.092001,-0.096 z"
             id="path845"
             inkscape:connector-curvature="0" />
          <path
             d="M 17.949,5.696 H 15.201 V 11 H 14.085 V 4.76 h 3.864 z"
             id="path847"
             inkscape:connector-curvature="0" />
          <path
             d="m 23.432625,7.892 q 0,-1.092 -0.54,-1.68 -0.54,-0.588 -1.44,-0.588 -0.504,0 -0.792,0.036 -0.276,0.036 -0.444,0.084 V 9.68 q 0.204,0.168 0.588,0.324 0.384,0.156 0.84,0.156 0.48,0 0.816,-0.168 0.348,-0.18 0.564,-0.48 0.216,-0.312 0.312,-0.72 0.096,-0.42 0.096,-0.9 z m 1.164,0 q 0,0.708 -0.192,1.308 -0.18,0.6 -0.54,1.032 -0.36,0.432 -0.888,0.672 -0.516,0.24 -1.188,0.24 -0.54,0 -0.96,-0.144 -0.408,-0.144 -0.612,-0.276 v 2.496 h -1.116 V 4.952 q 0.396,-0.096 0.984,-0.204 0.6,-0.12 1.38,-0.12 0.72,0 1.296,0.228 0.576,0.228 0.984,0.648 0.408,0.42 0.624,1.032 0.228,0.6 0.228,1.356 z"
             id="path849"
             inkscape:connector-curvature="0" />
          <path
             d="m 25.282688,12.164 q 0.131999,0.06 0.335999,0.108 0.216,0.06 0.420001,0.06 0.659999,0 1.031999,-0.3 0.372,-0.288 0.672,-0.948 -0.756,-1.44 -1.416,-3.048 -0.648,-1.62 -1.08,-3.276 h 1.2 q 0.132,0.54 0.312,1.164 0.192,0.624 0.42,1.284 0.228,0.66 0.492,1.32 0.264,0.66 0.552,1.272 0.456,-1.26 0.792,-2.496 0.336,-1.236 0.636,-2.544 h 1.152 q -0.432,1.764 -0.96,3.396 -0.528,1.62 -1.14,3.036 -0.24,0.54 -0.504,0.924 -0.252,0.396 -0.564,0.648 -0.312,0.252 -0.708,0.372 -0.384,0.12 -0.876,0.12 -0.132,0 -0.276,-0.024 -0.144,-0.012 -0.288,-0.048 -0.132,-0.024 -0.252,-0.06 -0.108,-0.036 -0.156,-0.06 z"
             id="path851"
             inkscape:connector-curvature="0" />
          <path
             d="m 33.551812,4.604 q 0.540001,0 1.008,0.108 0.468001,0.108 0.804001,0.324 0.335999,0.216 0.527999,0.54 0.192,0.324 0.192,0.756 0,0.276 -0.096,0.504 -0.096,0.228 -0.24,0.408 -0.144,0.18 -0.324001,0.312 -0.168,0.12 -0.324,0.168 0.552,0.168 0.864001,0.6 0.323999,0.42 0.323999,1.068 0,0.888 -0.719999,1.32 -0.72,0.432 -1.956001,0.432 -0.756,0 -1.308,-0.12 -0.54,-0.12 -0.768,-0.228 l 0.192,-0.948 q 0.192,0.072 0.684001,0.204 0.503999,0.12 1.199999,0.12 0.756,0 1.152,-0.228 0.396,-0.24 0.396,-0.708 0,-0.336 -0.155999,-0.54 -0.144,-0.216 -0.372,-0.324 -0.228001,-0.108 -0.492001,-0.144 -0.263999,-0.036 -0.492,-0.036 H 32.603813 V 7.304 h 1.007999 q 0.216,0 0.444001,-0.024 0.239999,-0.036 0.431999,-0.132 0.204,-0.096 0.336001,-0.264 0.131999,-0.18 0.131999,-0.468 0,-0.228 -0.119999,-0.384 Q 34.727812,5.864 34.535812,5.756 34.343812,5.648 34.079813,5.6 33.827812,5.54 33.551812,5.54 q -0.215999,0 -0.468,0.036 -0.252,0.036 -0.491999,0.096 -0.240001,0.048 -0.432001,0.108 -0.192,0.06 -0.276,0.108 l -0.204,-0.96 q 0.096,-0.036 0.300001,-0.096 0.204,-0.06 0.455999,-0.108 0.264,-0.048 0.552,-0.084 0.288,-0.036 0.564,-0.036 z"
             id="path853"
             inkscape:connector-curvature="0" />
          <path
             d="M 43.071187,4.76 V 11 H 41.991188 V 6.248 q -0.36,0.456 -0.792001,1.068 -0.432,0.612 -0.863999,1.272 -0.432,0.648 -0.828001,1.284 -0.396,0.636 -0.683999,1.128 H 37.827187 V 4.76 h 1.08 v 4.488 q 0.312001,-0.516 0.708,-1.128 0.396,-0.624 0.816,-1.224 0.432001,-0.612 0.852,-1.164 0.432,-0.564 0.804,-0.972 z"
             id="path855"
             inkscape:connector-curvature="0" />
          <path
             d="m 49.403062,4.76 v 0.936 h -2.028 V 11 h -1.116 V 5.696 h -2.028 V 4.76 Z"
             id="path857"
             inkscape:connector-curvature="0" />
          <path
             d="m 50.20575,7.892 q 0,-0.828 0.24,-1.44 0.24,-0.624 0.636,-1.032 0.396,-0.408 0.912,-0.612 0.516,-0.204 1.056,-0.204 1.26,0 1.932,0.792 0.672,0.78 0.672,2.388 0,0.072 0,0.192 0,0.108 -0.012,0.204 h -4.272 q 0.072,0.972 0.564,1.476 0.492,0.504 1.536,0.504 0.588,0 0.984,-0.096 0.408,-0.108 0.612,-0.204 l 0.156,0.936 q -0.204,0.108 -0.72,0.228 -0.504,0.12 -1.152,0.12 -0.816,0 -1.416,-0.24 -0.588,-0.252 -0.972,-0.684 -0.384,-0.432 -0.576,-1.02 -0.18,-0.6 -0.18,-1.308 z m 4.284,-0.612 q 0.012,-0.756 -0.384,-1.236 -0.384,-0.492 -1.068,-0.492 -0.384,0 -0.684,0.156 -0.288,0.144 -0.492,0.384 -0.204,0.24 -0.324,0.552 -0.108,0.312 -0.144,0.636 z"
             id="path859"
             inkscape:connector-curvature="0" />
          <path
             d="M 65.2665,4.76 V 11 h -1.08 V 6.248 q -0.36,0.456 -0.792,1.068 -0.432,0.612 -0.864,1.272 -0.432,0.648 -0.828,1.284 -0.396,0.636 -0.684,1.128 h -0.996 V 4.76 h 1.08 v 4.488 q 0.312,-0.516 0.708,-1.128 0.396,-0.624 0.816,-1.224 0.432,-0.612 0.852,-1.164 0.432,-0.564 0.804,-0.972 z"
             id="path861"
             inkscape:connector-curvature="0" />
          <path
             d="m 68.778375,4.604 q 0.54,0 1.008,0.108 0.468,0.108 0.804,0.324 0.336,0.216 0.528,0.54 0.192,0.324 0.192,0.756 0,0.276 -0.096,0.504 -0.096,0.228 -0.24,0.408 -0.144,0.18 -0.324,0.312 -0.168,0.12 -0.324,0.168 0.552,0.168 0.864,0.6 0.324,0.42 0.324,1.068 0,0.888 -0.72,1.32 -0.72,0.432 -1.956,0.432 -0.756,0 -1.308,-0.12 -0.54,-0.12 -0.768,-0.228 l 0.192,-0.948 q 0.192,0.072 0.684,0.204 0.504,0.12 1.2,0.12 0.756,0 1.152,-0.228 0.396,-0.24 0.396,-0.708 0,-0.336 -0.156,-0.54 -0.144,-0.216 -0.372,-0.324 -0.228,-0.108 -0.492,-0.144 -0.264,-0.036 -0.492,-0.036 h -1.044 V 7.304 h 1.008 q 0.216,0 0.444,-0.024 0.24,-0.036 0.432,-0.132 0.204,-0.096 0.336,-0.264 0.132,-0.18 0.132,-0.468 0,-0.228 -0.12,-0.384 -0.108,-0.168 -0.3,-0.276 -0.192,-0.108 -0.456,-0.156 -0.252,-0.06 -0.528,-0.06 -0.216,0 -0.468,0.036 -0.252,0.036 -0.492,0.096 -0.24,0.048 -0.432,0.108 -0.192,0.06 -0.276,0.108 l -0.204,-0.96 q 0.096,-0.036 0.3,-0.096 0.204,-0.06 0.456,-0.108 0.264,-0.048 0.552,-0.084 0.288,-0.036 0.564,-0.036 z"
             id="path863"
             inkscape:connector-curvature="0" />
        </g>
      </g>
      <g
         id="Snap-Store"
         transform="translate(51,19)"
         font-size="24"
         font-weight="normal"
         style="font-weight:normal;font-size:24px;font-family:Ubuntu;fill:#ffffff">
        <text
           id="text40">
          <tspan
             x="0"
             y="22"
             id="tspan38">Snap Store</tspan>
        </text>
      </g>
    </g>
  </g>
</svg>
