<svg xmlns="http://www.w3.org/2000/svg" version="1.1" id="Layer_1" x="0" y="0" viewBox="0 0 182 56" xml:space="preserve"><style type="text/css" id="style2">.st3{fill:#111}.st4{font-family:&apos;Ubuntu&apos;}</style><g id="g17"><g id="White-badge"><path id="Rectangle-path" d="M2.5.5h177c1.1 0 2 .9 2 2v51c0 1.1-.9 2-2 2H2.5c-1.1 0-2-.9-2-2v-51c0-1.1.9-2 2-2z" fill-rule="evenodd" clip-rule="evenodd" fill="#fff" stroke="#cdcdcd"/><g id="logo" transform="translate(8 11)"><path id="body" d="M19 17.8V7.3l7.2 3.2-7.2 7.3zM5.2 31.6L14.1 15l3.9 3.9L5.2 31.6zM.2.2l18.2 6.6v11.6L.2.2z" fill="#82bea0"/><path id="head" fill="#fa6441" d="M29.9 6.8H19.4l13.5 6.1z"/></g><text transform="translate(50 17)" class="st3 st4" id="text12" font-size="12">Инсталирайте го от</text><text transform="translate(50 41)" class="st3 st4" id="text14" font-size="24">Snap Store</text></g></g></svg>